<?xml version="1.0" encoding="utf-8"?>
<!-- Generator: Adobe Illustrator 16.0.0, SVG Export Plug-In . SVG Version: 6.00 Build 0)  -->
<!DOCTYPE svg PUBLIC "-//W3C//DTD SVG 1.1//EN" "http://www.w3.org/Graphics/SVG/1.1/DTD/svg11.dtd">
<svg version="1.1" id="レイヤー_1" xmlns="http://www.w3.org/2000/svg" xmlns:xlink="http://www.w3.org/1999/xlink" x="0px"
	 y="0px" width="841.89px" height="595.28px" viewBox="0 0 841.89 595.28" enable-background="new 0 0 841.89 595.28"
	 xml:space="preserve">
<g>
	<path d="M380.802,237.142c0,1.932-0.571,3.485-1.713,4.66c-1.042,1.058-2.302,1.587-3.78,1.587c-1.143,0-2.167-0.335-3.074-1.008
		c-0.992-0.739-1.697-1.772-2.117-3.1c-0.034-0.117-0.051-0.235-0.051-0.353c0-0.303,0.105-0.546,0.315-0.731
		c0.209-0.185,0.449-0.277,0.718-0.277c0.47,0,0.781,0.235,0.933,0.706c0.252,0.823,0.688,1.47,1.311,1.94
		c0.571,0.42,1.209,0.63,1.915,0.63c0.94,0,1.747-0.352,2.419-1.056c0.739-0.754,1.108-1.752,1.108-2.993
		c0-1.324-0.387-2.331-1.159-3.018c-0.571-0.486-1.335-0.805-2.293-0.956c-0.504-0.033-1.017-0.067-1.537-0.101
		c-0.286-0.017-0.521-0.113-0.706-0.289c-0.185-0.176-0.277-0.356-0.277-0.541c0-0.335,0.143-0.654,0.428-0.956l2.923-3.068h-4.36
		c-0.672,0-1.008-0.349-1.008-1.045c0-0.714,0.336-1.071,1.008-1.071l7.636-0.025c0.47,0,0.706,0.177,0.706,0.532
		c0,0.253-0.299,0.701-0.897,1.342l-3.004,3.17C379.283,231.726,380.802,233.733,380.802,237.142z"/>
	<path d="M395.594,237.142c0,1.932-0.571,3.485-1.713,4.66c-1.042,1.058-2.302,1.587-3.78,1.587c-1.143,0-2.167-0.335-3.074-1.008
		c-0.992-0.739-1.697-1.772-2.117-3.1c-0.034-0.117-0.051-0.235-0.051-0.353c0-0.303,0.105-0.546,0.315-0.731
		c0.209-0.185,0.449-0.277,0.718-0.277c0.47,0,0.781,0.235,0.933,0.706c0.252,0.823,0.688,1.47,1.311,1.94
		c0.571,0.42,1.209,0.63,1.915,0.63c0.94,0,1.747-0.352,2.419-1.056c0.739-0.754,1.108-1.752,1.108-2.993
		c0-1.324-0.387-2.331-1.159-3.018c-0.571-0.486-1.335-0.805-2.293-0.956c-0.504-0.033-1.017-0.067-1.537-0.101
		c-0.286-0.017-0.521-0.113-0.706-0.289c-0.185-0.176-0.277-0.356-0.277-0.541c0-0.335,0.143-0.654,0.428-0.956l2.923-3.068h-4.36
		c-0.672,0-1.008-0.349-1.008-1.045c0-0.714,0.336-1.071,1.008-1.071l7.636-0.025c0.47,0,0.706,0.177,0.706,0.532
		c0,0.253-0.299,0.701-0.897,1.342l-3.004,3.17C394.075,231.726,395.594,233.733,395.594,237.142z"/>
	<path d="M410.537,240.693h-1.386v1.638c0,0.706-0.344,1.058-1.033,1.058s-1.033-0.353-1.033-1.058v-1.638h-7.257
		c-0.471,0-0.706-0.369-0.706-1.109c0-0.319,0.05-0.63,0.151-0.932l4.133-11.895c0.168-0.47,0.479-0.706,0.933-0.706
		c0.285,0,0.545,0.101,0.781,0.303c0.235,0.202,0.353,0.446,0.353,0.731c0,0.135-0.024,0.261-0.071,0.378l-3.798,11.086h5.482
		v-2.904c0-0.701,0.344-1.052,1.033-1.052s1.033,0.351,1.033,1.052v2.904h1.397c0.698,0,1.047,0.357,1.047,1.071
		C411.595,240.336,411.243,240.693,410.537,240.693z"/>
	<path d="M424.221,234.796c0,2.335-0.462,4.334-1.386,5.998c-0.992,1.798-2.269,2.696-3.831,2.696c-1.563,0-2.839-0.898-3.831-2.696
		c-0.924-1.664-1.386-3.663-1.386-5.998c0-2.318,0.47-4.326,1.411-6.023c0.991-1.797,2.26-2.696,3.806-2.696
		c1.562,0,2.839,0.899,3.831,2.696C423.759,230.454,424.221,232.461,424.221,234.796z M422.205,234.771
		c0-1.757-0.27-3.255-0.807-4.494c-0.588-1.372-1.386-2.058-2.394-2.058c-0.992,0-1.781,0.694-2.369,2.083
		c-0.538,1.239-0.806,2.736-0.806,4.494s0.269,3.255,0.806,4.493c0.588,1.373,1.377,2.059,2.369,2.059
		c0.991,0,1.789-0.694,2.394-2.083C421.936,238.026,422.205,236.528,422.205,234.771z"/>
	<path d="M439.365,227.413l-4.259,15.095c-0.169,0.605-0.614,0.907-1.336,0.907c-0.723,0-1.176-0.293-1.36-0.882l-4.788-15.095
		c-0.034-0.134-0.051-0.26-0.051-0.378c0-0.285,0.104-0.524,0.314-0.718c0.209-0.193,0.456-0.29,0.741-0.29
		c0.469,0,0.778,0.245,0.93,0.733l4.197,12.903l3.636-12.883c0.135-0.502,0.438-0.753,0.912-0.753c0.286,0,0.544,0.099,0.771,0.295
		c0.229,0.197,0.343,0.45,0.343,0.757C439.416,227.208,439.398,227.31,439.365,227.413z"/>
	<path d="M454.536,240.743c-0.841,1.042-1.659,1.76-2.457,2.155c-0.799,0.395-1.761,0.592-2.886,0.592
		c-1.898,0-3.452-0.807-4.662-2.419c-1.26-1.663-1.89-3.838-1.89-6.526c0-2.974,0.705-5.233,2.116-6.779
		c1.126-1.227,2.486-1.84,4.083-1.84c1.276,0,2.276,0.185,2.999,0.554c0.789,0.403,1.47,1.126,2.041,2.167
		c0.101,0.185,0.151,0.361,0.151,0.529c0,0.286-0.109,0.529-0.328,0.73s-0.462,0.303-0.73,0.303c-0.37,0-0.655-0.174-0.857-0.523
		c-0.353-0.631-0.798-1.063-1.335-1.295c-0.471-0.216-1.117-0.324-1.94-0.324c-1.109,0-2.041,0.485-2.798,1.456
		c-0.906,1.155-1.36,2.829-1.36,5.021c0,2.009,0.429,3.645,1.285,4.908s1.949,1.895,3.276,1.895c1.411,0,2.646-0.656,3.704-1.97
		c0.201-0.249,0.453-0.374,0.756-0.374c0.269,0,0.517,0.11,0.743,0.328c0.228,0.219,0.341,0.471,0.341,0.756
		C454.788,240.324,454.703,240.542,454.536,240.743z"/>
	<path d="M471.193,234.796c0,2.335-0.563,4.334-1.688,5.998c-1.227,1.798-2.806,2.696-4.737,2.696c-1.933,0-3.52-0.898-4.763-2.696
		c-1.177-1.68-1.765-3.679-1.765-5.998c0-2.335,0.555-4.36,1.663-6.073c1.193-1.865,2.722-2.797,4.587-2.797
		c1.999,0,3.646,0.933,4.939,2.797C470.605,230.437,471.193,232.461,471.193,234.796z M469.127,234.796
		c0-1.791-0.378-3.322-1.134-4.594c-0.874-1.422-2.041-2.134-3.503-2.134c-1.361,0-2.419,0.711-3.176,2.134
		c-0.672,1.239-1.008,2.771-1.008,4.594c0,1.774,0.369,3.272,1.109,4.494c0.822,1.373,1.94,2.059,3.352,2.059
		s2.52-0.686,3.326-2.059C468.782,238.085,469.127,236.586,469.127,234.796z"/>
</g>
<g>
	<path d="M371.186,254.563c-0.026-0.046-0.041-0.1-0.041-0.157c0-0.172,0.133-0.311,0.296-0.311c0.113,0,0.211,0.066,0.261,0.164
		c0.318,0.595,1.042,0.964,1.911,0.964c1.122,0,1.827-0.604,1.827-1.545c0-0.739-0.532-1.107-1.658-1.107h-0.422
		c-0.164,0-0.296-0.139-0.296-0.311c0-0.171,0.132-0.311,0.296-0.311h0.422c0.899,0,1.419-0.409,1.419-1.073
		c0-0.663-0.673-1.18-1.572-1.18c-0.8,0-1.328,0.249-1.695,0.791c-0.054,0.081-0.143,0.134-0.244,0.134
		c-0.164,0-0.296-0.139-0.296-0.311c0-0.068,0.021-0.131,0.057-0.183c0.48-0.709,1.195-1.053,2.178-1.053
		c1.225,0,2.165,0.778,2.165,1.802c0,0.568-0.244,1.027-0.668,1.323c0.59,0.276,0.907,0.776,0.907,1.479
		c0,1.296-0.974,2.167-2.419,2.167C372.539,255.845,371.61,255.357,371.186,254.563z"/>
	<path d="M381.339,255.845c-1.074,0-2.002-0.488-2.427-1.282c-0.026-0.046-0.041-0.1-0.041-0.157c0-0.172,0.133-0.311,0.296-0.311
		c0.113,0,0.211,0.066,0.261,0.164c0.318,0.595,1.042,0.964,1.911,0.964c1.123,0,1.827-0.604,1.827-1.545
		c0-0.739-0.532-1.107-1.658-1.107h-0.422c-0.164,0-0.296-0.139-0.296-0.311c0-0.171,0.132-0.311,0.296-0.311h0.422
		c0.899,0,1.419-0.409,1.419-1.073c0-0.663-0.673-1.18-1.572-1.18c-0.8,0-1.328,0.249-1.695,0.791
		c-0.054,0.081-0.143,0.134-0.244,0.134c-0.164,0-0.296-0.139-0.296-0.311c0-0.068,0.021-0.131,0.057-0.183
		c0.48-0.709,1.195-1.053,2.178-1.053c1.225,0,2.165,0.778,2.165,1.802c0,0.568-0.244,1.027-0.668,1.323
		c0.59,0.276,0.907,0.776,0.907,1.479C383.758,254.975,382.784,255.845,381.339,255.845L381.339,255.845z"/>
	<path d="M386.665,253.5c0-0.07,0.022-0.135,0.06-0.187l2.857-4.058c0.054-0.078,0.141-0.129,0.24-0.129h0.469
		c0.164,0,0.296,0.139,0.296,0.311v4.373h0.725c0.163,0,0.296,0.139,0.296,0.311c0,0.171-0.133,0.311-0.296,0.311h-0.725v1.068
		c0,0.171-0.132,0.311-0.296,0.311s-0.296-0.139-0.296-0.311v-1.068h-3.033c-0.164,0-0.296-0.139-0.296-0.311V253.5z
		 M387.257,253.81h2.737v-4.062h-0.023l-2.714,3.854V253.81z"/>
	<path d="M394.311,252.46c0-2.049,0.964-3.386,2.467-3.386c1.502,0,2.467,1.337,2.467,3.386c0,2.048-0.965,3.385-2.467,3.385
		C395.275,255.845,394.311,254.508,394.311,252.46z M398.653,252.46c0-1.713-0.726-2.764-1.875-2.764
		c-1.15,0-1.875,1.051-1.875,2.764c0,1.712,0.726,2.764,1.875,2.764C397.928,255.224,398.653,254.172,398.653,252.46z"/>
	<path d="M402.001,252.056v-1.711c0-0.361,0.282-0.656,0.625-0.656h2.698v-0.364h-2.314c-0.164,0-0.296-0.139-0.296-0.311
		c0-0.172,0.133-0.311,0.296-0.311h5.221c0.164,0,0.296,0.139,0.296,0.311c0,0.171-0.133,0.311-0.296,0.311h-2.314v0.364h2.697
		c0.344,0,0.625,0.295,0.625,0.656v1.711c0,0.171-0.133,0.311-0.296,0.311s-0.296-0.139-0.296-0.311v-1.711
		c0-0.02-0.014-0.035-0.033-0.035h-2.697v1.746c0,0.171-0.132,0.311-0.296,0.311s-0.296-0.139-0.296-0.311v-1.746h-2.698
		c-0.019,0-0.033,0.015-0.033,0.035v1.711c0,0.171-0.133,0.311-0.296,0.311C402.134,252.366,402.001,252.227,402.001,252.056z
		 M406.215,256.4c-0.528,0-0.954-0.453-0.954-1.002v-0.043h-2.202c-0.272,0-0.494-0.233-0.494-0.518v-1.74
		c0-0.285,0.222-0.518,0.494-0.518h4.996c0.272,0,0.494,0.233,0.494,0.518v1.74c0,0.285-0.222,0.518-0.494,0.518h-2.202v0.043
		c0,0.21,0.162,0.38,0.362,0.38h2.261c0.086,0,0.157-0.043,0.2-0.122c0.071-0.131,0.113-0.265,0.145-0.464
		c0.021-0.15,0.145-0.265,0.293-0.265c0.164,0,0.296,0.14,0.296,0.311c0,0.019-0.001,0.038-0.005,0.056
		c-0.042,0.263-0.11,0.478-0.214,0.669c-0.146,0.268-0.42,0.436-0.715,0.436H406.215z M403.342,251.274
		c-0.164,0-0.296-0.139-0.296-0.311s0.133-0.311,0.296-0.311h1.232c0.164,0,0.296,0.139,0.296,0.311s-0.132,0.311-0.296,0.311
		H403.342z M403.342,252.237c-0.164,0-0.296-0.139-0.296-0.311c0-0.171,0.133-0.311,0.296-0.311h1.232
		c0.164,0,0.296,0.139,0.296,0.311c0,0.172-0.132,0.311-0.296,0.311H403.342z M403.158,253.643h2.103v-0.442h-2.103V253.643z
		 M403.158,254.734h2.103v-0.47h-2.103V254.734z M405.853,253.643h2.103v-0.442h-2.103V253.643z M405.853,254.734h2.103v-0.47
		h-2.103V254.734z M406.665,251.274c-0.164,0-0.296-0.139-0.296-0.311s0.132-0.311,0.296-0.311h1.232
		c0.164,0,0.296,0.139,0.296,0.311s-0.133,0.311-0.296,0.311H406.665z M406.665,252.237c-0.164,0-0.296-0.139-0.296-0.311
		c0-0.171,0.132-0.311,0.296-0.311h1.232c0.164,0,0.296,0.139,0.296,0.311c0,0.172-0.133,0.311-0.296,0.311H406.665z"/>
	<path d="M412.054,255.353c0.576-0.984,0.872-2.444,0.872-4.344v-1.2c0-0.432,0.329-0.777,0.74-0.777h5.551
		c0.165,0,0.296,0.138,0.296,0.311c0,0.173-0.131,0.311-0.296,0.311h-5.551c-0.083,0-0.148,0.069-0.148,0.156v1.2
		c0,1.071-0.09,2.03-0.271,2.841c-0.164,0.708-0.395,1.322-0.69,1.831c-0.049,0.095-0.148,0.147-0.247,0.147
		c-0.058,0-0.107-0.018-0.156-0.043C412.013,255.69,411.972,255.5,412.054,255.353z M416.989,255.422h2.435
		c0.165,0,0.296,0.138,0.296,0.311s-0.132,0.311-0.296,0.311h-5.28c-0.164,0-0.296-0.138-0.296-0.311s0.132-0.311,0.296-0.311h2.254
		v-2.694h-1.793c-0.165,0-0.296-0.138-0.296-0.311s0.132-0.311,0.296-0.311h1.793v-1.408c0-0.172,0.131-0.311,0.296-0.311
		s0.296,0.138,0.296,0.311v1.408h1.842c0.165,0,0.296,0.138,0.296,0.311s-0.132,0.311-0.296,0.311h-1.842V255.422z"/>
	<path d="M424.229,256.182v-2.867h-1.094v2.029c0,0.173-0.131,0.311-0.297,0.311c-0.164,0-0.295-0.138-0.295-0.311v-2.133
		c0-0.285,0.221-0.518,0.492-0.518h1.193v-0.907h-1.537c-0.166,0-0.297-0.138-0.297-0.311c0-0.172,0.131-0.311,0.297-0.311h1.537
		v-0.967h-1.094c-0.141,0.224-0.305,0.449-0.502,0.665c-0.057,0.061-0.131,0.095-0.213,0.095c-0.166,0-0.297-0.138-0.297-0.311
		c0-0.086,0.033-0.155,0.082-0.216c0.469-0.518,0.715-0.984,0.863-1.667c0.033-0.146,0.156-0.242,0.289-0.242
		c0.189,0,0.336,0.19,0.287,0.389c-0.049,0.233-0.115,0.458-0.197,0.665h0.781v-0.838c0-0.172,0.131-0.311,0.297-0.311
		c0.164,0,0.295,0.138,0.295,0.311v0.838h1.357c0.164,0,0.297,0.138,0.297,0.311c0,0.172-0.133,0.311-0.297,0.311h-1.357v0.967
		h1.473c0.164,0,0.297,0.139,0.297,0.311c0,0.173-0.133,0.311-0.297,0.311h-1.473v0.907h1.193c0.271,0,0.492,0.233,0.492,0.518
		v2.133c0,0.173-0.131,0.311-0.295,0.311s-0.297-0.138-0.297-0.311v-2.029h-1.094v2.867c0,0.173-0.131,0.311-0.295,0.311
		C424.359,256.493,424.229,256.355,424.229,256.182z M427.164,253.781v-4.146c0-0.173,0.133-0.311,0.297-0.311
		s0.297,0.138,0.297,0.311v4.146c0,0.173-0.133,0.311-0.297,0.311S427.164,253.954,427.164,253.781z M427.559,256.165
		c-0.105-0.043-0.18-0.156-0.18-0.285c0-0.225,0.223-0.38,0.42-0.285c0.262,0.121,0.6,0.199,0.863,0.199
		c0.09,0,0.164-0.078,0.164-0.173v-6.823c0-0.173,0.131-0.311,0.297-0.311c0.164,0,0.295,0.138,0.295,0.311v6.823
		c0,0.44-0.338,0.794-0.756,0.794C428.324,256.415,427.889,256.32,427.559,256.165z"/>
	<path d="M432.553,253.099c-0.09,0-0.18-0.043-0.238-0.129c-0.09-0.138-0.066-0.337,0.066-0.432
		c0.592-0.458,1.061-0.985,1.381-1.581c0.082-0.147,0.264-0.199,0.402-0.121c0.141,0.086,0.189,0.276,0.107,0.432
		c-0.098,0.181-0.213,0.363-0.336,0.535v4.508c0,0.173-0.133,0.311-0.297,0.311s-0.297-0.138-0.297-0.311v-3.809
		c-0.188,0.19-0.395,0.363-0.607,0.536C432.676,253.073,432.619,253.099,432.553,253.099z M432.627,250.638
		c-0.107-0.13-0.09-0.329,0.033-0.432c0.525-0.475,0.896-1.002,1.109-1.624c0.059-0.164,0.23-0.242,0.379-0.182
		c0.156,0.052,0.23,0.233,0.182,0.397c-0.256,0.717-0.676,1.339-1.283,1.874c-0.059,0.052-0.123,0.078-0.197,0.078
		C432.768,250.75,432.686,250.715,432.627,250.638z M434.371,249.782c0.402-0.285,0.896-0.829,1.143-1.252
		c0.082-0.147,0.264-0.19,0.402-0.104c0.141,0.086,0.189,0.276,0.1,0.423c-0.082,0.156-0.197,0.32-0.32,0.484h1.693
		c0.164,0,0.297,0.138,0.297,0.311c0,0.172-0.133,0.311-0.297,0.311h-1.027v0.993h0.889c0.164,0,0.295,0.138,0.295,0.311
		s-0.131,0.311-0.295,0.311h-0.889v1.088h0.889c0.164,0,0.295,0.147,0.295,0.311c0,0.173-0.131,0.311-0.295,0.311h-0.889v1.572
		c0.328-0.173,0.641-0.363,0.863-0.527c0.131-0.095,0.32-0.061,0.412,0.078c0.098,0.147,0.064,0.337-0.074,0.432
		c-0.338,0.25-0.881,0.561-1.365,0.786c-0.01,0-0.018,0.009-0.025,0.009c-0.215,0.104-0.428,0.19-0.6,0.242
		c-0.092,0.026-0.182,0.043-0.264,0.043c-0.174,0-0.33-0.052-0.453-0.147c-0.189-0.147-0.295-0.372-0.295-0.63v-2.436
		c0-0.173,0.139-0.311,0.295-0.311c0.164,0,0.297,0.138,0.297,0.311v2.436c0,0.061,0.016,0.104,0.049,0.129
		c0.049,0.035,0.123,0.035,0.197,0.009c0.107-0.035,0.238-0.086,0.371-0.138v-2.133v-0.035c0-0.008,0-0.017,0-0.026v-1.373h-0.881
		c-0.164,0-0.297-0.138-0.297-0.311s0.133-0.311,0.297-0.311h0.881v-0.993h-0.65c-0.141,0.13-0.279,0.25-0.42,0.346
		c-0.049,0.034-0.107,0.052-0.164,0.052c-0.09,0-0.189-0.052-0.246-0.138C434.197,250.076,434.238,249.877,434.371,249.782z
		 M437.793,256.346v-6.65c0-0.138,0.057-0.276,0.156-0.38c0.098-0.104,0.229-0.164,0.361-0.164h0.855c0.295,0,0.51,0.233,0.51,0.553
		v4.992c0,0.25-0.074,0.475-0.215,0.639c-0.146,0.181-0.369,0.276-0.607,0.276c-0.141,0-0.313-0.043-0.469-0.121v0.855
		c0,0.173-0.141,0.311-0.297,0.311C437.924,256.657,437.793,256.519,437.793,256.346z M438.385,249.774v5
		c0.139,0.121,0.361,0.216,0.469,0.216c0.205,0,0.23-0.181,0.23-0.293v-4.923H438.385z"/>
	<path d="M442.873,256.22c0-0.139,0.086-0.256,0.205-0.296c1.102-0.396,1.646-0.979,1.84-2.11h-1.24
		c-0.162,0-0.295-0.139-0.295-0.311c0-0.171,0.133-0.311,0.295-0.311h1.311c0.012-0.183,0.018-0.377,0.018-0.583v-0.468h-0.838
		c-0.164,0-0.295-0.139-0.295-0.311c0-0.078,0.025-0.148,0.07-0.203c-0.367,0.21-0.748,0.393-1.123,0.537
		c-0.033,0.014-0.07,0.021-0.107,0.021c-0.164,0-0.297-0.139-0.297-0.311c0-0.137,0.084-0.253,0.201-0.295
		c0.592-0.227,1.195-0.557,1.736-0.934c-0.289-0.234-0.594-0.453-0.914-0.655c-0.088-0.054-0.146-0.154-0.146-0.27
		c0-0.171,0.131-0.311,0.295-0.311c0.059,0,0.111,0.017,0.156,0.047c0.387,0.244,0.76,0.517,1.111,0.811
		c0.441-0.36,0.813-0.742,1.063-1.107h-1.117c-0.164,0-0.297-0.139-0.297-0.311c0-0.171,0.133-0.311,0.297-0.311h1.303
		c0.271,0,0.494,0.232,0.494,0.519c0,0.05-0.012,0.107-0.027,0.161c0.191,0.227,0.395,0.443,0.607,0.648
		c0.225-0.204,0.414-0.418,0.607-0.684c0.055-0.076,0.141-0.125,0.238-0.125c0.162,0,0.295,0.139,0.295,0.311
		c0,0.072-0.023,0.138-0.063,0.19c-0.197,0.272-0.396,0.501-0.623,0.714c0.189,0.156,0.385,0.303,0.584,0.441
		c0.242-0.214,0.451-0.45,0.656-0.74c0.053-0.078,0.141-0.129,0.24-0.129c0.162,0,0.295,0.14,0.295,0.311
		c0,0.07-0.021,0.135-0.059,0.188c-0.188,0.267-0.385,0.498-0.6,0.707c0.354,0.205,0.721,0.382,1.1,0.529
		c0.117,0.042,0.199,0.158,0.199,0.294c0,0.172-0.131,0.311-0.295,0.311c-0.039,0-0.076-0.008-0.109-0.022
		c-0.383-0.148-0.76-0.329-1.123-0.537c0.045,0.055,0.072,0.125,0.072,0.204c0,0.171-0.133,0.311-0.297,0.311h-0.947v1.052h1.438
		c0.164,0,0.297,0.139,0.297,0.311c0,0.172-0.133,0.311-0.297,0.311h-1.438v1.667c0,0.133,0.104,0.242,0.23,0.242h1.615
		c0.164,0,0.297,0.139,0.297,0.311c0,0.172-0.133,0.311-0.297,0.311h-1.615c-0.449,0-0.822-0.386-0.822-0.864v-1.667h-1.24
		c-0.219,1.427-0.896,2.211-2.246,2.698c-0.031,0.012-0.066,0.019-0.102,0.019C443.006,256.531,442.873,256.392,442.873,256.22z
		 M446.23,249.751c-0.494,0.624-1.264,1.265-2.109,1.771c0.016-0.003,0.031-0.004,0.047-0.004h4.129
		c0.016,0,0.033,0.001,0.049,0.004C447.561,251.049,446.838,250.446,446.23,249.751z M446.758,253.192v-1.052h-1.16v0.468
		c0,0.204-0.006,0.398-0.018,0.583H446.758z"/>
	<path d="M453.475,256.251v-1.926c-0.256,0.078-0.51,0.138-0.781,0.19c-0.215,0.043-0.361-0.121-0.361-0.302
		c0-0.155,0.105-0.285,0.254-0.311c0.313-0.052,0.602-0.129,0.889-0.224v-2.911h-0.822c-0.164,0-0.297-0.138-0.297-0.311
		s0.133-0.311,0.297-0.311h0.822v-1.373c0-0.173,0.131-0.311,0.297-0.311c0.164,0,0.295,0.138,0.295,0.311v1.373h0.674
		c0.166,0,0.297,0.138,0.297,0.311s-0.131,0.311-0.297,0.311h-0.674v2.686c0.189-0.086,0.395-0.19,0.592-0.302
		c0.051-0.026,0.1-0.035,0.141-0.035c0.164,0,0.297,0.138,0.297,0.311c0,0.121-0.066,0.224-0.166,0.276
		c-0.287,0.164-0.574,0.302-0.863,0.415v2.133c0,0.173-0.131,0.311-0.295,0.311C453.605,256.562,453.475,256.424,453.475,256.251z
		 M457.012,256.372c-0.346,0-0.625-0.293-0.625-0.656v-3.472h-0.609c-0.041,1.875-0.213,2.66-0.699,3.723
		c-0.049,0.121-0.156,0.19-0.271,0.19c-0.164,0-0.295-0.138-0.295-0.311c0-0.043,0.008-0.095,0.031-0.147
		c0.543-1.183,0.65-1.943,0.65-4.664v-1.546c0-0.363,0.279-0.656,0.625-0.656h3.645c0.164,0,0.295,0.138,0.295,0.311
		c0,0.172-0.131,0.311-0.295,0.311h-3.645c-0.016,0-0.033,0.018-0.033,0.035v2.133h3.809c0.164,0,0.297,0.138,0.297,0.311
		c0,0.172-0.133,0.311-0.297,0.311h-2.615v3.472c0,0.035,0.023,0.043,0.057,0.026c0.271-0.147,0.502-0.346,0.732-0.639
		c0.059-0.069,0.141-0.112,0.23-0.112c0.164,0,0.297,0.138,0.297,0.311c0,0.078-0.025,0.147-0.074,0.207
		c-0.271,0.337-0.576,0.604-0.914,0.786C457.201,256.355,457.094,256.372,457.012,256.372z M456.574,250.854
		c-0.164,0-0.295-0.138-0.295-0.311s0.131-0.311,0.295-0.311h2.402c0.164,0,0.297,0.138,0.297,0.311s-0.133,0.311-0.297,0.311
		H456.574z M459.627,256.208c-0.732-0.579-1.26-1.313-1.563-2.211c-0.107-0.319,0.016-0.682,0.295-0.864
		c0.215-0.138,0.412-0.302,0.643-0.535c0.049-0.052,0.123-0.086,0.205-0.086c0.164,0,0.297,0.138,0.297,0.311
		c0,0.086-0.033,0.165-0.092,0.225c-0.254,0.259-0.492,0.458-0.748,0.622c-0.041,0.026-0.057,0.069-0.041,0.121
		c0.271,0.803,0.699,1.408,1.357,1.917c0.082,0.061,0.123,0.155,0.123,0.25c0,0.173-0.131,0.311-0.297,0.311
		C459.75,256.269,459.684,256.251,459.627,256.208z"/>
	<path d="M470.172,253.574c-0.01,0.164-0.141,0.285-0.289,0.285h-0.033c-0.303-0.026-1.076-0.155-1.834-0.423
		c-0.822-0.285-1.398-0.665-1.719-1.123c-0.082,0.121-0.18,0.233-0.295,0.337c-0.297,0.268-0.699,0.509-1.209,0.708
		c-1.012,0.397-2.041,0.501-2.049,0.501h-0.033c-0.148,0-0.279-0.121-0.287-0.285c-0.018-0.172,0.098-0.319,0.264-0.336
		c0.262-0.026,1.117-0.156,1.898-0.458c0.438-0.173,0.781-0.38,1.029-0.596l0.098-0.104h-2.689c-0.164,0-0.295-0.138-0.295-0.311
		c0-0.173,0.131-0.311,0.295-0.311h2.979v-0.061v-0.44c0-0.173,0.131-0.311,0.295-0.311s0.297,0.138,0.297,0.311v0.44v0.061h2.977
		c0.164,0,0.297,0.138,0.297,0.311c0,0.172-0.133,0.311-0.297,0.311h-2.689c0.264,0.294,0.717,0.553,1.324,0.769
		c0.732,0.259,1.473,0.371,1.703,0.389C470.072,253.254,470.188,253.401,470.172,253.574z M465.326,253.954
		c0.271,0,0.494,0.233,0.494,0.518v1.2c0,0.285-0.223,0.519-0.494,0.519h-1.857c-0.271,0-0.494-0.233-0.494-0.519v-1.2
		c0-0.285,0.223-0.518,0.494-0.518H465.326z M463.51,250.966c-0.271,0-0.494-0.233-0.494-0.519v-1.105
		c0-0.285,0.223-0.518,0.494-0.518h1.816c0.271,0,0.494,0.233,0.494,0.518v1.105c0,0.285-0.223,0.519-0.494,0.519H463.51z
		 M465.229,255.569v-0.993h-1.662v0.993H465.229z M463.607,249.446v0.898h1.621v-0.898H463.607z M467.268,250.966
		c-0.271,0-0.494-0.233-0.494-0.519v-1.105c0-0.285,0.223-0.518,0.494-0.518h1.818c0.271,0,0.492,0.233,0.492,0.518v1.105
		c0,0.285-0.221,0.519-0.492,0.519H467.268z M469.127,253.954c0.271,0,0.492,0.233,0.492,0.518v1.2c0,0.285-0.221,0.519-0.492,0.519
		h-1.859c-0.271,0-0.494-0.233-0.494-0.519v-1.2c0-0.285,0.223-0.518,0.494-0.518H469.127z M467.367,249.446v0.898h1.619v-0.898
		H467.367z M469.027,255.569v-0.993h-1.66v0.993H469.027z"/>
</g>
<g>
</g>
<g>
</g>
<g>
</g>
<g>
</g>
<g>
</g>
<g>
</g>
</svg>
