<?xml version="1.0" encoding="utf-8"?>
<!-- Generator: Adobe Illustrator 16.0.0, SVG Export Plug-In . SVG Version: 6.00 Build 0)  -->
<!DOCTYPE svg PUBLIC "-//W3C//DTD SVG 1.1//EN" "http://www.w3.org/Graphics/SVG/1.1/DTD/svg11.dtd">
<svg version="1.1" xmlns="http://www.w3.org/2000/svg" xmlns:xlink="http://www.w3.org/1999/xlink" x="0px" y="0px"
	 width="841.89px" height="595.28px" viewBox="0 0 841.89 595.28" enable-background="new 0 0 841.89 595.28" xml:space="preserve">
<g id="レイヤー_1" display="none">
	
		<line display="inline" fill="none" stroke="#000000" stroke-miterlimit="10" x1="322.466" y1="217.912" x2="327.375" y2="215.077"/>
	
		<line display="inline" fill="none" stroke="#000000" stroke-miterlimit="10" x1="313.127" y1="208.573" x2="315.961" y2="203.664"/>
	
		<line display="inline" fill="none" stroke="#000000" stroke-miterlimit="10" x1="300.371" y1="205.156" x2="300.371" y2="199.486"/>
	<line display="inline" fill="none" stroke="#000000" stroke-miterlimit="10" x1="287.852" y1="208.44" x2="284.781" y2="203.122"/>
	
		<line display="inline" fill="none" stroke="#000000" stroke-miterlimit="10" x1="278.511" y1="217.504" x2="273.368" y2="214.535"/>
	
		<line display="inline" fill="none" stroke="#000000" stroke-width="0.25" stroke-miterlimit="10" x1="297.537" y1="230.667" x2="303.206" y2="230.667"/>
	
		<line display="inline" fill="none" stroke="#000000" stroke-width="0.25" stroke-miterlimit="10" x1="300.371" y1="233.502" x2="300.371" y2="227.833"/>
	<g display="inline">
		<path d="M298.526,194.436c0-1.423,0.703-2.351,1.799-2.351s1.799,0.928,1.799,2.351c0,1.422-0.704,2.351-1.799,2.351
			S298.526,195.858,298.526,194.436z M301.692,194.436c0-1.189-0.529-1.919-1.367-1.919s-1.367,0.73-1.367,1.919
			c0,1.189,0.529,1.918,1.367,1.918S301.692,195.625,301.692,194.436z"/>
	</g>
	<g display="inline">
		<path d="M280.683,198.867c-0.119,0-0.216-0.097-0.216-0.216c0-0.12,0.097-0.216,0.216-0.216h1.799c0.12,0,0.216,0.097,0.216,0.216
			c0,0.119-0.097,0.216-0.216,0.216H280.683z"/>
		<path d="M285.252,200.546v-3.956l-0.358,0.264c-0.036,0.027-0.081,0.043-0.129,0.043c-0.119,0-0.216-0.097-0.216-0.216
			c0-0.072,0.035-0.136,0.09-0.175l0.465-0.343c0.036-0.027,0.081-0.043,0.13-0.043h0.234c0.119,0,0.216,0.097,0.216,0.216v4.209
			c0,0.12-0.097,0.216-0.216,0.216S285.252,200.666,285.252,200.546z"/>
	</g>
	<g display="inline">
		<path d="M267.35,210.367c-0.119,0-0.216-0.097-0.216-0.216c0-0.12,0.097-0.216,0.216-0.216h1.799c0.12,0,0.216,0.097,0.216,0.216
			c0,0.119-0.097,0.216-0.216,0.216H267.35z"/>
		<path d="M270.377,212.25c-0.119,0-0.216-0.097-0.216-0.216c0-0.777,0.735-1.557,1.913-2.054c0.734-0.31,1.038-0.629,1.038-1.05
			c0-0.58-0.411-0.913-1.147-0.913c-0.564,0-0.981,0.249-1.256,0.751c-0.036,0.069-0.108,0.116-0.191,0.116
			c-0.12,0-0.216-0.097-0.216-0.216c0-0.039,0.01-0.075,0.028-0.107c0.349-0.637,0.916-0.977,1.635-0.977
			c0.971,0,1.58,0.514,1.58,1.345c0,0.619-0.417,1.074-1.302,1.448c-0.891,0.376-1.488,0.921-1.621,1.441h2.847
			c0.119,0,0.216,0.097,0.216,0.216s-0.097,0.216-0.216,0.216H270.377z"/>
	</g>
	<g display="inline">
		<path d="M315.526,199.97v-1.283h-1.283c-0.119,0-0.216-0.097-0.216-0.216s0.097-0.216,0.216-0.216h1.283v-1.283
			c0-0.119,0.097-0.216,0.216-0.216s0.216,0.097,0.216,0.216v1.283h1.284c0.119,0,0.216,0.097,0.216,0.216s-0.097,0.216-0.216,0.216
			h-1.284v1.283c0,0.12-0.097,0.216-0.216,0.216S315.526,200.09,315.526,199.97z"/>
		<path d="M320.072,200.546v-3.956l-0.358,0.264c-0.036,0.027-0.081,0.043-0.129,0.043c-0.119,0-0.216-0.097-0.216-0.216
			c0-0.072,0.035-0.136,0.09-0.175l0.465-0.343c0.036-0.027,0.081-0.043,0.13-0.043h0.234c0.119,0,0.216,0.097,0.216,0.216v4.209
			c0,0.12-0.097,0.216-0.216,0.216S320.072,200.666,320.072,200.546z"/>
	</g>
	<g display="inline">
		<path d="M326.863,211.47v-1.283h-1.283c-0.119,0-0.216-0.097-0.216-0.216s0.097-0.216,0.216-0.216h1.283v-1.283
			c0-0.119,0.097-0.216,0.216-0.216s0.216,0.097,0.216,0.216v1.283h1.284c0.119,0,0.216,0.097,0.216,0.216s-0.097,0.216-0.216,0.216
			h-1.284v1.283c0,0.12-0.097,0.216-0.216,0.216S326.863,211.59,326.863,211.47z"/>
		<path d="M329.868,212.25c-0.119,0-0.216-0.097-0.216-0.216c0-0.777,0.735-1.557,1.913-2.054c0.734-0.31,1.038-0.629,1.038-1.05
			c0-0.58-0.411-0.913-1.147-0.913c-0.564,0-0.981,0.249-1.256,0.751c-0.036,0.069-0.108,0.116-0.191,0.116
			c-0.12,0-0.216-0.097-0.216-0.216c0-0.039,0.01-0.075,0.028-0.107c0.349-0.637,0.916-0.977,1.635-0.977
			c0.971,0,1.58,0.514,1.58,1.345c0,0.619-0.417,1.074-1.302,1.448c-0.891,0.376-1.488,0.921-1.621,1.441h2.847
			c0.119,0,0.216,0.097,0.216,0.216s-0.097,0.216-0.216,0.216H329.868z"/>
	</g>
</g>
<g id="レイヤー_1のコピー">
	<rect x="324.42" y="213.66" transform="matrix(0.4999 0.8661 -0.8661 0.4999 349.9859 -173.1396)" width="1" height="5.668"/>
	<rect x="314.044" y="203.284" transform="matrix(0.8661 0.4999 -0.4999 0.8661 145.1691 -129.6417)" width="1" height="5.669"/>
	<rect x="299.871" y="199.486" width="1" height="5.67"/>
	<rect x="283.245" y="205.281" transform="matrix(0.5 0.866 -0.866 0.5 321.3715 -145.0664)" width="6.142" height="1"/>
	<rect x="272.97" y="215.519" transform="matrix(0.866 0.5 -0.5 0.866 144.9732 -109.0264)" width="5.939" height="1"/>
	<rect x="297.537" y="230.542" width="5.669" height="0.25"/>
	<rect x="300.246" y="227.833" width="0.25" height="5.669"/>
	<g>
		<path d="M298.526,194.436c0-1.423,0.703-2.351,1.799-2.351s1.799,0.928,1.799,2.351c0,1.422-0.704,2.351-1.799,2.351
			S298.526,195.858,298.526,194.436z M301.692,194.436c0-1.189-0.529-1.919-1.367-1.919s-1.367,0.73-1.367,1.919
			c0,1.189,0.529,1.918,1.367,1.918S301.692,195.625,301.692,194.436z"/>
	</g>
	<g>
		<path d="M280.683,198.867c-0.119,0-0.216-0.097-0.216-0.216c0-0.12,0.097-0.216,0.216-0.216h1.799c0.12,0,0.216,0.097,0.216,0.216
			c0,0.119-0.097,0.216-0.216,0.216H280.683z"/>
		<path d="M285.252,200.546v-3.956l-0.358,0.264c-0.036,0.027-0.081,0.043-0.129,0.043c-0.119,0-0.216-0.097-0.216-0.216
			c0-0.072,0.035-0.136,0.09-0.175l0.465-0.343c0.036-0.027,0.081-0.043,0.13-0.043h0.234c0.119,0,0.216,0.097,0.216,0.216v4.209
			c0,0.12-0.097,0.216-0.216,0.216S285.252,200.666,285.252,200.546z"/>
	</g>
	<g>
		<path d="M267.35,210.367c-0.119,0-0.216-0.097-0.216-0.216c0-0.12,0.097-0.216,0.216-0.216h1.799c0.12,0,0.216,0.097,0.216,0.216
			c0,0.119-0.097,0.216-0.216,0.216H267.35z"/>
		<path d="M270.377,212.25c-0.119,0-0.216-0.097-0.216-0.216c0-0.777,0.735-1.557,1.913-2.054c0.734-0.31,1.038-0.629,1.038-1.05
			c0-0.58-0.411-0.913-1.147-0.913c-0.564,0-0.981,0.249-1.256,0.751c-0.036,0.069-0.108,0.116-0.191,0.116
			c-0.12,0-0.216-0.097-0.216-0.216c0-0.039,0.01-0.075,0.028-0.107c0.349-0.637,0.916-0.977,1.635-0.977
			c0.971,0,1.58,0.514,1.58,1.345c0,0.619-0.417,1.074-1.302,1.448c-0.891,0.376-1.488,0.921-1.621,1.441h2.847
			c0.119,0,0.216,0.097,0.216,0.216s-0.097,0.216-0.216,0.216H270.377z"/>
	</g>
	<g>
		<path d="M315.526,199.97v-1.283h-1.283c-0.119,0-0.216-0.097-0.216-0.216s0.097-0.216,0.216-0.216h1.283v-1.283
			c0-0.119,0.097-0.216,0.216-0.216s0.216,0.097,0.216,0.216v1.283h1.284c0.119,0,0.216,0.097,0.216,0.216s-0.097,0.216-0.216,0.216
			h-1.284v1.283c0,0.12-0.097,0.216-0.216,0.216S315.526,200.09,315.526,199.97z"/>
		<path d="M320.072,200.546v-3.956l-0.358,0.264c-0.036,0.027-0.081,0.043-0.129,0.043c-0.119,0-0.216-0.097-0.216-0.216
			c0-0.072,0.035-0.136,0.09-0.175l0.465-0.343c0.036-0.027,0.081-0.043,0.13-0.043h0.234c0.119,0,0.216,0.097,0.216,0.216v4.209
			c0,0.12-0.097,0.216-0.216,0.216S320.072,200.666,320.072,200.546z"/>
	</g>
	<g>
		<path d="M326.863,211.47v-1.283h-1.283c-0.119,0-0.216-0.097-0.216-0.216s0.097-0.216,0.216-0.216h1.283v-1.283
			c0-0.119,0.097-0.216,0.216-0.216s0.216,0.097,0.216,0.216v1.283h1.284c0.119,0,0.216,0.097,0.216,0.216s-0.097,0.216-0.216,0.216
			h-1.284v1.283c0,0.12-0.097,0.216-0.216,0.216S326.863,211.59,326.863,211.47z"/>
		<path d="M329.868,212.25c-0.119,0-0.216-0.097-0.216-0.216c0-0.777,0.735-1.557,1.913-2.054c0.734-0.31,1.038-0.629,1.038-1.05
			c0-0.58-0.411-0.913-1.147-0.913c-0.564,0-0.981,0.249-1.256,0.751c-0.036,0.069-0.108,0.116-0.191,0.116
			c-0.12,0-0.216-0.097-0.216-0.216c0-0.039,0.01-0.075,0.028-0.107c0.349-0.637,0.916-0.977,1.635-0.977
			c0.971,0,1.58,0.514,1.58,1.345c0,0.619-0.417,1.074-1.302,1.448c-0.891,0.376-1.488,0.921-1.621,1.441h2.847
			c0.119,0,0.216,0.097,0.216,0.216s-0.097,0.216-0.216,0.216H329.868z"/>
	</g>
	<g>
	</g>
	<g>
	</g>
	<g>
	</g>
	<g>
	</g>
	<g>
	</g>
	<g>
	</g>
</g>
</svg>
