<?xml version="1.0" encoding="utf-8"?>
<!-- Generator: Adobe Illustrator 16.0.0, SVG Export Plug-In . SVG Version: 6.00 Build 0)  -->
<!DOCTYPE svg PUBLIC "-//W3C//DTD SVG 1.1//EN" "http://www.w3.org/Graphics/SVG/1.1/DTD/svg11.dtd">
<svg version="1.1" id="レイヤー_2のコピー_2"
	 xmlns="http://www.w3.org/2000/svg" xmlns:xlink="http://www.w3.org/1999/xlink" x="0px" y="0px" width="841.89px"
	 height="595.28px" viewBox="0 0 841.89 595.28" enable-background="new 0 0 841.89 595.28" xml:space="preserve">
<polygon points="344.269,215.382 340.18,207.206 336.092,215.382 335.198,214.935 340.18,204.969 345.163,214.935 "/>
<g>
	<polygon points="393.385,215.658 387.282,215.658 387.282,206.587 384.813,206.587 384.813,215.158 383.813,215.158 
		383.813,205.587 388.282,205.587 388.282,214.658 393.385,214.658 	"/>
	<polygon points="393.885,215.658 387.782,215.658 387.782,214.658 392.885,214.658 392.885,206.087 393.885,206.087 	"/>
</g>
<polygon points="359.25,206.769 359.25,196.491 360.25,196.491 360.25,204.355 369.321,195.284 369.321,205.562 368.321,205.562 
	368.321,197.698 "/>
<rect x="361.451" y="237.964" width="5.669" height="0.25"/>
<rect x="364.16" y="235.254" width="0.25" height="5.669"/>
<rect x="383.829" y="215.21" transform="matrix(0.7071 0.7071 -0.7071 0.7071 266.7482 -207.8979)" width="1" height="5.669"/>
<rect x="363.785" y="206.908" width="1" height="5.669"/>
<rect x="341.406" y="217.545" transform="matrix(0.7071 0.7071 -0.7071 0.7071 255.0313 -179.5568)" width="5.67" height="1"/>
<g>
</g>
<g>
</g>
<g>
</g>
<g>
</g>
<g>
</g>
<g>
</g>
</svg>
