<?xml version="1.0" encoding="utf-8"?>
<!-- Generator: Adobe Illustrator 16.0.0, SVG Export Plug-In . SVG Version: 6.00 Build 0)  -->
<!DOCTYPE svg PUBLIC "-//W3C//DTD SVG 1.1//EN" "http://www.w3.org/Graphics/SVG/1.1/DTD/svg11.dtd">
<svg version="1.1" xmlns="http://www.w3.org/2000/svg" xmlns:xlink="http://www.w3.org/1999/xlink" x="0px" y="0px"
	 width="143.424px" height="364.464px" viewBox="0 0 143.424 364.464" enable-background="new 0 0 143.424 364.464"
	 xml:space="preserve">
<g id="目盛り">
	<g>
		
			<line fill="none" stroke="#000000" stroke-width="0.25" stroke-miterlimit="10" x1="122.743" y1="85.343" x2="124.157" y2="87.792"/>
		
			<line fill="none" stroke="#000000" stroke-width="0.25" stroke-miterlimit="10" x1="130.522" y1="77.556" x2="132.976" y2="78.974"/>
		
			<line fill="none" stroke="#000000" stroke-width="0.25" stroke-miterlimit="10" x1="133.37" y1="66.926" x2="136.204" y2="66.926"/>
		
			<line fill="none" stroke="#000000" stroke-width="0.25" stroke-miterlimit="10" x1="130.524" y1="56.294" x2="132.976" y2="54.879"/>
		
			<line fill="none" stroke="#000000" stroke-width="0.25" stroke-miterlimit="10" x1="122.741" y1="48.512" x2="124.157" y2="46.06"/>
		
			<line fill="none" stroke="#000000" stroke-width="0.25" stroke-miterlimit="10" x1="112.11" y1="45.666" x2="112.11" y2="42.832"/>
		
			<line fill="none" stroke="#000000" stroke-width="0.25" stroke-miterlimit="10" x1="101.478" y1="48.51" x2="100.063" y2="46.06"/>
		
			<line fill="none" stroke="#000000" stroke-width="0.25" stroke-miterlimit="10" x1="93.699" y1="56.296" x2="91.244" y2="54.879"/>
		
			<line fill="none" stroke="#000000" stroke-width="0.25" stroke-miterlimit="10" x1="90.851" y1="66.926" x2="88.016" y2="66.926"/>
		
			<line fill="none" stroke="#000000" stroke-width="0.25" stroke-miterlimit="10" x1="93.696" y1="77.558" x2="91.244" y2="78.974"/>
		
			<line fill="none" stroke="#000000" stroke-width="0.25" stroke-miterlimit="10" x1="101.393" y1="85.489" x2="100.063" y2="87.792"/>
		
			<line fill="none" stroke="#000000" stroke-width="0.25" stroke-miterlimit="10" x1="114.944" y1="66.926" x2="109.276" y2="66.926"/>
		
			<line fill="none" stroke="#000000" stroke-width="0.25" stroke-miterlimit="10" x1="112.11" y1="69.761" x2="112.11" y2="64.091"/>
	</g>
	<g>
		
			<line fill="none" stroke="#000000" stroke-width="0.25" stroke-miterlimit="10" x1="122.743" y1="200.374" x2="124.157" y2="202.823"/>
		
			<line fill="none" stroke="#000000" stroke-width="0.25" stroke-miterlimit="10" x1="130.522" y1="192.586" x2="132.977" y2="194.004"/>
		
			<line fill="none" stroke="#000000" stroke-width="0.25" stroke-miterlimit="10" x1="133.37" y1="181.957" x2="136.205" y2="181.957"/>
		
			<line fill="none" stroke="#000000" stroke-width="0.25" stroke-miterlimit="10" x1="130.524" y1="171.325" x2="132.977" y2="169.909"/>
		
			<line fill="none" stroke="#000000" stroke-width="0.25" stroke-miterlimit="10" x1="122.742" y1="163.542" x2="124.157" y2="161.09"/>
		
			<line fill="none" stroke="#000000" stroke-width="0.25" stroke-miterlimit="10" x1="112.11" y1="160.696" x2="112.11" y2="157.862"/>
		
			<line fill="none" stroke="#000000" stroke-width="0.25" stroke-miterlimit="10" x1="101.478" y1="163.54" x2="100.063" y2="161.09"/>
		
			<line fill="none" stroke="#000000" stroke-width="0.25" stroke-miterlimit="10" x1="93.699" y1="171.327" x2="91.244" y2="169.909"/>
		
			<line fill="none" stroke="#000000" stroke-width="0.25" stroke-miterlimit="10" x1="90.851" y1="181.957" x2="88.016" y2="181.957"/>
		
			<line fill="none" stroke="#000000" stroke-width="0.25" stroke-miterlimit="10" x1="93.696" y1="192.588" x2="91.244" y2="194.004"/>
		
			<line fill="none" stroke="#000000" stroke-width="0.25" stroke-miterlimit="10" x1="101.393" y1="200.52" x2="100.063" y2="202.823"/>
		
			<line fill="none" stroke="#000000" stroke-width="0.25" stroke-miterlimit="10" x1="114.944" y1="181.957" x2="109.276" y2="181.957"/>
		
			<line fill="none" stroke="#000000" stroke-width="0.25" stroke-miterlimit="10" x1="112.11" y1="184.792" x2="112.11" y2="179.122"/>
	</g>
	<g>
		
			<line fill="none" stroke="#000000" stroke-width="0.25" stroke-miterlimit="10" x1="122.743" y1="257.972" x2="124.157" y2="260.421"/>
		
			<line fill="none" stroke="#000000" stroke-width="0.25" stroke-miterlimit="10" x1="130.522" y1="250.185" x2="132.977" y2="251.603"/>
		
			<line fill="none" stroke="#000000" stroke-width="0.25" stroke-miterlimit="10" x1="133.37" y1="239.555" x2="136.205" y2="239.555"/>
		
			<line fill="none" stroke="#000000" stroke-width="0.25" stroke-miterlimit="10" x1="130.524" y1="228.923" x2="132.977" y2="227.508"/>
		
			<line fill="none" stroke="#000000" stroke-width="0.25" stroke-miterlimit="10" x1="122.742" y1="221.141" x2="124.157" y2="218.689"/>
		
			<line fill="none" stroke="#000000" stroke-width="0.25" stroke-miterlimit="10" x1="112.11" y1="218.295" x2="112.11" y2="215.46"/>
		
			<line fill="none" stroke="#000000" stroke-width="0.25" stroke-miterlimit="10" x1="101.478" y1="221.139" x2="100.063" y2="218.689"/>
		
			<line fill="none" stroke="#000000" stroke-width="0.25" stroke-miterlimit="10" x1="93.699" y1="228.925" x2="91.244" y2="227.508"/>
		
			<line fill="none" stroke="#000000" stroke-width="0.25" stroke-miterlimit="10" x1="90.851" y1="239.555" x2="88.016" y2="239.555"/>
		
			<line fill="none" stroke="#000000" stroke-width="0.25" stroke-miterlimit="10" x1="93.696" y1="250.187" x2="91.244" y2="251.603"/>
		
			<line fill="none" stroke="#000000" stroke-width="0.25" stroke-miterlimit="10" x1="101.393" y1="258.119" x2="100.063" y2="260.421"/>
		
			<line fill="none" stroke="#000000" stroke-width="0.25" stroke-miterlimit="10" x1="114.944" y1="239.555" x2="109.276" y2="239.555"/>
		
			<line fill="none" stroke="#000000" stroke-width="0.25" stroke-miterlimit="10" x1="112.11" y1="242.39" x2="112.11" y2="236.72"/>
	</g>
	<g>
		
			<line fill="none" stroke="#000000" stroke-width="0.25" stroke-miterlimit="10" x1="122.743" y1="315.701" x2="124.157" y2="318.15"/>
		
			<line fill="none" stroke="#000000" stroke-width="0.25" stroke-miterlimit="10" x1="130.522" y1="307.914" x2="132.977" y2="309.332"/>
		
			<line fill="none" stroke="#000000" stroke-width="0.25" stroke-miterlimit="10" x1="133.37" y1="297.284" x2="136.205" y2="297.284"/>
		
			<line fill="none" stroke="#000000" stroke-width="0.25" stroke-miterlimit="10" x1="130.524" y1="286.652" x2="132.977" y2="285.237"/>
		
			<line fill="none" stroke="#000000" stroke-width="0.25" stroke-miterlimit="10" x1="122.742" y1="278.87" x2="124.157" y2="276.417"/>
		
			<line fill="none" stroke="#000000" stroke-width="0.25" stroke-miterlimit="10" x1="112.11" y1="276.024" x2="112.11" y2="273.189"/>
		
			<line fill="none" stroke="#000000" stroke-width="0.25" stroke-miterlimit="10" x1="101.478" y1="278.868" x2="100.063" y2="276.417"/>
		
			<line fill="none" stroke="#000000" stroke-width="0.25" stroke-miterlimit="10" x1="93.699" y1="286.654" x2="91.244" y2="285.237"/>
		
			<line fill="none" stroke="#000000" stroke-width="0.25" stroke-miterlimit="10" x1="90.851" y1="297.284" x2="88.016" y2="297.284"/>
		
			<line fill="none" stroke="#000000" stroke-width="0.25" stroke-miterlimit="10" x1="93.696" y1="307.916" x2="91.244" y2="309.332"/>
		
			<line fill="none" stroke="#000000" stroke-width="0.25" stroke-miterlimit="10" x1="101.393" y1="315.847" x2="100.063" y2="318.15"/>
		
			<line fill="none" stroke="#000000" stroke-width="0.25" stroke-miterlimit="10" x1="114.944" y1="297.284" x2="109.276" y2="297.284"/>
		
			<line fill="none" stroke="#000000" stroke-width="0.25" stroke-miterlimit="10" x1="112.11" y1="300.119" x2="112.11" y2="294.449"/>
	</g>
	<line fill="none" stroke="#000000" stroke-width="0.25" stroke-miterlimit="10" x1="40.89" y1="101.967" x2="40.89" y2="99.127"/>
	<line fill="none" stroke="#000000" stroke-width="0.25" stroke-miterlimit="10" x1="56.714" y1="108.815" x2="58.929" y2="106.6"/>
	<line fill="none" stroke="#000000" stroke-width="0.25" stroke-miterlimit="10" x1="24.646" y1="108.395" x2="22.85" y2="106.6"/>
	
		<line fill="none" stroke="#000000" stroke-width="0.25" stroke-linecap="round" stroke-miterlimit="10" x1="92.841" y1="112.677" x2="90.328" y2="111.226"/>
	
		<line fill="none" stroke="#000000" stroke-width="0.25" stroke-linecap="round" stroke-miterlimit="10" x1="101.294" y1="104.708" x2="99.666" y2="101.888"/>
	
		<line fill="none" stroke="#000000" stroke-width="0.25" stroke-linecap="round" stroke-miterlimit="10" x1="112.422" y1="101.965" x2="112.422" y2="98.47"/>
	
		<line fill="none" stroke="#000000" stroke-width="0.25" stroke-linecap="round" stroke-miterlimit="10" x1="123.4" y1="104.967" x2="125.178" y2="101.888"/>
	
		<line fill="none" stroke="#000000" stroke-width="0.25" stroke-linecap="round" stroke-miterlimit="10" x1="131.542" y1="112.943" x2="134.516" y2="111.226"/>
	
		<line fill="none" stroke="#000000" stroke-width="0.25" stroke-miterlimit="10" x1="115.256" y1="124.639" x2="109.588" y2="124.639"/>
	
		<line fill="none" stroke="#000000" stroke-width="0.25" stroke-miterlimit="10" x1="112.422" y1="127.474" x2="112.422" y2="121.804"/>
</g>
<g id="値">
	<g>
		<path d="M85.695,109.971c-0.079,0-0.144-0.064-0.144-0.144c0-0.079,0.064-0.144,0.144-0.144h1.199c0.08,0,0.145,0.064,0.145,0.144
			c0,0.08-0.064,0.144-0.145,0.144H85.695z"/>
		<path d="M87.714,111.226c-0.079,0-0.144-0.064-0.144-0.144c0-0.519,0.49-1.038,1.275-1.37c0.489-0.207,0.691-0.419,0.691-0.7
			c0-0.387-0.273-0.609-0.765-0.609c-0.376,0-0.654,0.166-0.837,0.501c-0.024,0.046-0.072,0.077-0.128,0.077
			c-0.079,0-0.144-0.064-0.144-0.144c0-0.026,0.007-0.05,0.019-0.071c0.232-0.425,0.61-0.651,1.09-0.651
			c0.647,0,1.053,0.343,1.053,0.896c0,0.413-0.278,0.716-0.867,0.965c-0.594,0.251-0.992,0.614-1.081,0.96h1.897
			c0.08,0,0.145,0.064,0.145,0.144s-0.064,0.144-0.145,0.144H87.714z"/>
	</g>
	<g>
		<path d="M96.278,99.291c-0.079,0-0.144-0.064-0.144-0.144c0-0.079,0.064-0.144,0.144-0.144h1.199c0.08,0,0.145,0.064,0.145,0.144
			c0,0.08-0.064,0.144-0.145,0.144H96.278z"/>
		<path d="M99.325,100.411v-2.637l-0.239,0.176c-0.024,0.019-0.054,0.029-0.086,0.029c-0.08,0-0.145-0.064-0.145-0.144
			c0-0.048,0.023-0.091,0.061-0.117l0.31-0.229c0.024-0.018,0.055-0.029,0.087-0.029h0.156c0.079,0,0.144,0.064,0.144,0.144v2.807
			c0,0.079-0.064,0.144-0.144,0.144S99.325,100.49,99.325,100.411z"/>
	</g>
	<g>
		<path d="M111.202,95.938c0-0.948,0.469-1.567,1.199-1.567s1.199,0.619,1.199,1.567s-0.469,1.567-1.199,1.567
			S111.202,96.887,111.202,95.938z M113.313,95.938c0-0.793-0.353-1.279-0.911-1.279c-0.56,0-0.912,0.486-0.912,1.279
			c0,0.792,0.353,1.279,0.912,1.279C112.96,97.218,113.313,96.731,113.313,95.938z"/>
	</g>
	<g>
		<path d="M125.452,100.796V99.94h-0.855c-0.079,0-0.144-0.064-0.144-0.144s0.064-0.144,0.144-0.144h0.855v-0.855
			c0-0.08,0.064-0.144,0.145-0.144c0.079,0,0.144,0.064,0.144,0.144v0.855h0.855c0.08,0,0.145,0.064,0.145,0.144
			s-0.064,0.144-0.145,0.144h-0.855v0.856c0,0.079-0.064,0.144-0.144,0.144C125.517,100.939,125.452,100.875,125.452,100.796z"/>
		<path d="M128.483,101.18v-2.637l-0.239,0.176c-0.024,0.019-0.054,0.029-0.086,0.029c-0.08,0-0.145-0.064-0.145-0.144
			c0-0.048,0.023-0.091,0.061-0.117l0.31-0.229c0.024-0.018,0.055-0.029,0.087-0.029h0.156c0.079,0,0.144,0.064,0.144,0.144v2.807
			c0,0.079-0.064,0.144-0.144,0.144S128.483,101.259,128.483,101.18z"/>
	</g>
	<g>
		<path d="M136.257,110.706v-0.856h-0.855c-0.079,0-0.144-0.064-0.144-0.144s0.064-0.144,0.144-0.144h0.855v-0.855
			c0-0.08,0.064-0.144,0.145-0.144c0.079,0,0.144,0.064,0.144,0.144v0.855h0.855c0.08,0,0.145,0.064,0.145,0.144
			s-0.064,0.144-0.145,0.144h-0.855v0.856c0,0.079-0.064,0.144-0.144,0.144C136.321,110.85,136.257,110.785,136.257,110.706z"/>
		<path d="M138.26,111.226c-0.079,0-0.144-0.064-0.144-0.144c0-0.518,0.49-1.038,1.275-1.369c0.489-0.207,0.691-0.419,0.691-0.7
			c0-0.387-0.273-0.609-0.765-0.609c-0.376,0-0.654,0.166-0.837,0.501c-0.024,0.046-0.072,0.077-0.128,0.077
			c-0.079,0-0.144-0.064-0.144-0.144c0-0.026,0.007-0.05,0.019-0.071c0.232-0.425,0.61-0.651,1.09-0.651
			c0.647,0,1.053,0.343,1.053,0.896c0,0.413-0.278,0.716-0.867,0.965c-0.594,0.251-0.992,0.614-1.081,0.961h1.897
			c0.08,0,0.145,0.064,0.145,0.144s-0.064,0.144-0.145,0.144H138.26z"/>
	</g>
</g>
<g id="波形_1_">
	<line fill="none" x1="0" y1="76.044" x2="6.462" y2="79.357"/>
	<line fill="none" x1="6.087" y1="79.732" x2="11.212" y2="84.294"/>
	
		<line fill="none" stroke="#000000" stroke-width="0.5" stroke-linecap="round" stroke-miterlimit="10" x1="21.251" y1="98.938" x2="18.421" y2="104.509"/>
	
		<line fill="none" stroke="#000000" stroke-width="0.5" stroke-linecap="round" stroke-miterlimit="10" x1="21.251" y1="98.938" x2="24.081" y2="104.509"/>
	
		<line fill="none" stroke="#000000" stroke-width="0.5" stroke-linecap="round" stroke-miterlimit="10" x1="38.012" y1="91.693" x2="38.012" y2="97.481"/>
	
		<line fill="none" stroke="#000000" stroke-width="0.5" stroke-linecap="round" stroke-miterlimit="10" x1="38.012" y1="97.481" x2="43.768" y2="91.693"/>
	
		<line fill="none" stroke="#000000" stroke-width="0.5" stroke-linecap="round" stroke-miterlimit="10" x1="43.768" y1="91.693" x2="43.768" y2="97.481"/>
	
		<line fill="none" stroke="#000000" stroke-width="0.5" stroke-linecap="round" stroke-miterlimit="10" x1="57.155" y1="104.746" x2="57.155" y2="99.031"/>
	
		<line fill="none" stroke="#000000" stroke-width="0.5" stroke-linecap="round" stroke-miterlimit="10" x1="57.155" y1="99.031" x2="59.342" y2="99.031"/>
	
		<line fill="none" stroke="#000000" stroke-width="0.5" stroke-linecap="round" stroke-miterlimit="10" x1="59.342" y1="99.031" x2="59.342" y2="104.746"/>
	
		<line fill="none" stroke="#000000" stroke-width="0.5" stroke-linecap="round" stroke-miterlimit="10" x1="59.342" y1="104.746" x2="62.872" y2="104.746"/>
	
		<line fill="none" stroke="#000000" stroke-width="0.5" stroke-linecap="round" stroke-miterlimit="10" x1="62.872" y1="104.746" x2="62.872" y2="99.031"/>
</g>
<g id="名称">
	<g>
		<path d="M33.679,46.43h0.663l-1.531,4.864H32.11l-1.569-4.864h0.667l1.251,4.136L33.679,46.43z"/>
		<path d="M35.583,51.943l1.688-5.64h0.489l-1.695,5.64H35.583z"/>
		<path d="M39.09,48.863c0-0.804,0.16-1.432,0.479-1.883s0.759-0.677,1.319-0.677s1.001,0.228,1.321,0.682
			c0.32,0.455,0.48,1.081,0.48,1.878c0,0.8-0.16,1.427-0.48,1.881c-0.32,0.455-0.761,0.682-1.321,0.682
			c-0.558,0-0.998-0.227-1.317-0.682C39.25,50.291,39.09,49.663,39.09,48.863z M39.763,48.863c0,0.615,0.101,1.098,0.302,1.449
			c0.202,0.351,0.476,0.526,0.822,0.526c0.349,0,0.624-0.176,0.825-0.528c0.202-0.353,0.303-0.835,0.303-1.448
			c0-0.615-0.101-1.099-0.303-1.451c-0.201-0.353-0.477-0.528-0.825-0.528c-0.346,0-0.62,0.175-0.822,0.526
			C39.864,47.762,39.763,48.246,39.763,48.863z"/>
		<path d="M46.237,49.489h0.673c-0.062,0.604-0.247,1.078-0.557,1.422s-0.705,0.516-1.186,0.516c-0.561,0-1-0.227-1.319-0.682
			c-0.319-0.454-0.479-1.082-0.479-1.881c0-0.802,0.16-1.429,0.479-1.881c0.319-0.453,0.759-0.679,1.319-0.679
			c0.438,0,0.806,0.143,1.104,0.429c0.298,0.286,0.485,0.675,0.561,1.167h-0.663c-0.073-0.321-0.197-0.571-0.373-0.749
			s-0.385-0.267-0.629-0.267c-0.349,0-0.624,0.175-0.826,0.526c-0.201,0.351-0.302,0.835-0.302,1.453
			c0,0.613,0.102,1.095,0.304,1.448c0.203,0.352,0.478,0.528,0.824,0.528c0.285,0,0.522-0.119,0.711-0.357
			C46.067,50.244,46.187,49.913,46.237,49.489z"/>
		<path d="M48.995,51.293v-4.269h-1.477v-0.588h3.592v0.588h-1.47v4.269H48.995z"/>
	</g>
	<g>
		<path d="M104.98,39.67v-4.857h3.161v0.588h-2.513v1.456h2.045v0.581h-2.045v2.232H104.98z"/>
		<path d="M110.306,39.082v-3.681h-0.896v-0.588h2.438v0.588h-0.896v3.681h0.896v0.588h-2.438v-0.588H110.306z"/>
		<path d="M113.248,39.67v-4.857h0.763l1.838,3.982v-3.982h0.588v4.857h-0.748l-1.863-3.982v3.982H113.248z"/>
		<path d="M117.585,39.67v-4.857h3.024v0.588h-2.379v1.456h2.171v0.581h-2.171v1.644h2.434v0.588H117.585z"/>
	</g>
	<g>
		<path d="M106.145,155.027v-4.857h0.861l0.889,4.283l0.898-4.283h0.852v4.857h-0.543v-4.409l-0.902,4.409h-0.605l-0.909-4.409
			v4.409H106.145z"/>
		<path d="M110.311,152.597c0-0.804,0.159-1.432,0.479-1.883s0.759-0.677,1.319-0.677s1.001,0.228,1.321,0.682
			c0.32,0.455,0.479,1.081,0.479,1.878c0,0.8-0.159,1.427-0.479,1.881c-0.32,0.455-0.761,0.682-1.321,0.682
			c-0.559,0-0.997-0.227-1.317-0.682C110.471,154.024,110.311,153.397,110.311,152.597z M110.983,152.597
			c0,0.615,0.102,1.098,0.303,1.449c0.202,0.351,0.476,0.526,0.822,0.526c0.349,0,0.624-0.176,0.825-0.528
			c0.202-0.353,0.303-0.835,0.303-1.448c0-0.615-0.101-1.099-0.303-1.451c-0.201-0.353-0.477-0.528-0.825-0.528
			c-0.347,0-0.62,0.175-0.822,0.526C111.085,151.496,110.983,151.979,110.983,152.597z"/>
		<path d="M116.316,150.17c0.608,0,1.062,0.201,1.36,0.602s0.447,1.009,0.447,1.825c0,0.777-0.156,1.376-0.471,1.798
			s-0.761,0.632-1.337,0.632H114.7v-4.857H116.316z M116.269,150.751h-0.916v3.695h0.916c0.401,0,0.698-0.151,0.893-0.455
			c0.193-0.303,0.29-0.768,0.29-1.395c0-0.654-0.093-1.125-0.276-1.414C116.989,150.896,116.688,150.751,116.269,150.751z"/>
	</g>
	<g>
		<path d="M107.043,212.626v-4.857h1.682c0.483,0,0.849,0.119,1.098,0.355c0.248,0.237,0.372,0.585,0.372,1.043
			c0,0.244-0.042,0.46-0.125,0.649s-0.206,0.349-0.37,0.479c-0.133,0.103-0.283,0.175-0.451,0.217
			c-0.169,0.042-0.45,0.063-0.845,0.063h-0.714v2.051H107.043z M108.551,208.365h-0.861v1.616h0.81c0.381,0,0.646-0.063,0.796-0.188
			c0.15-0.125,0.227-0.333,0.227-0.625c0-0.287-0.074-0.493-0.221-0.617C109.153,208.426,108.903,208.365,108.551,208.365z"/>
		<path d="M111.411,212.626l-0.838-4.863h0.574l0.602,4.135l0.677-4.135h0.612l0.689,4.135l0.602-4.135h0.561l-0.854,4.863h-0.588
			l-0.722-4.215l-0.697,4.215H111.411z"/>
		<path d="M115.198,212.626v-4.857h0.861l0.889,4.283l0.898-4.283h0.852v4.857h-0.543v-4.409l-0.902,4.409h-0.605l-0.909-4.409
			v4.409H115.198z"/>
	</g>
	<g>
		<path d="M79.282,99.536c0-0.804,0.16-1.432,0.479-1.883s0.759-0.677,1.319-0.677s1.001,0.228,1.321,0.682
			c0.319,0.455,0.479,1.081,0.479,1.878c0,0.8-0.16,1.427-0.479,1.881c-0.32,0.455-0.761,0.682-1.321,0.682
			c-0.558,0-0.997-0.227-1.317-0.682C79.442,100.963,79.282,100.336,79.282,99.536z M79.956,99.536c0,0.615,0.101,1.098,0.302,1.449
			c0.202,0.351,0.476,0.526,0.822,0.526c0.349,0,0.624-0.176,0.825-0.528c0.202-0.353,0.303-0.835,0.303-1.448
			c0-0.615-0.101-1.099-0.303-1.451c-0.201-0.353-0.477-0.528-0.825-0.528c-0.347,0-0.62,0.175-0.822,0.526
			C80.057,98.435,79.956,98.918,79.956,99.536z"/>
		<path d="M86.43,100.162h0.674c-0.063,0.604-0.248,1.078-0.558,1.422s-0.705,0.516-1.187,0.516c-0.561,0-1-0.227-1.318-0.682
			c-0.319-0.454-0.479-1.082-0.479-1.881c0-0.802,0.159-1.429,0.479-1.881c0.318-0.453,0.758-0.679,1.318-0.679
			c0.438,0,0.806,0.143,1.104,0.429c0.299,0.286,0.485,0.675,0.561,1.167h-0.663c-0.073-0.321-0.197-0.571-0.373-0.749
			c-0.175-0.178-0.385-0.267-0.629-0.267c-0.348,0-0.623,0.175-0.825,0.526c-0.201,0.351-0.302,0.835-0.302,1.453
			c0,0.613,0.101,1.095,0.304,1.448c0.203,0.352,0.478,0.528,0.823,0.528c0.285,0,0.522-0.119,0.711-0.357
			C86.26,100.917,86.38,100.585,86.43,100.162z"/>
		<path d="M89.188,101.966v-4.269h-1.477v-0.588h3.593v0.588h-1.471v4.269H89.188z"/>
	</g>
	<g>
		<path d="M12.817,167.784v-4.857h0.643v4.27h2.478v0.588H12.817z"/>
		<path d="M18.129,167.196v-3.682h-0.896v-0.588h2.437v0.588h-0.896v3.682h0.896v0.588h-2.437v-0.588H18.129z"/>
		<path d="M21.072,167.784v-4.857h0.762l1.839,3.982v-3.982h0.588v4.857h-0.749l-1.863-3.982v3.982H21.072z"/>
		<path d="M25.447,167.784v-4.857h3.162v0.588h-2.512v1.457h2.044v0.58h-2.044v2.232H25.447z"/>
		<path d="M29.343,167.784v-4.857h0.861l0.889,4.283l0.899-4.283h0.851v4.857H32.3v-4.409l-0.902,4.409h-0.605l-0.909-4.409v4.409
			H29.343z"/>
	</g>
	<g>
		<path d="M57.602,167.783v-4.857h0.861l0.889,4.283l0.899-4.283h0.851v4.857h-0.543v-4.409l-0.902,4.409h-0.605l-0.909-4.409v4.409
			H57.602z"/>
		<path d="M61.768,165.353c0-0.804,0.16-1.432,0.479-1.883s0.759-0.677,1.319-0.677s1.001,0.228,1.321,0.682
			c0.32,0.455,0.48,1.081,0.48,1.878c0,0.8-0.16,1.427-0.48,1.881c-0.32,0.455-0.761,0.682-1.321,0.682
			c-0.558,0-0.998-0.227-1.317-0.682C61.928,166.78,61.768,166.153,61.768,165.353z M62.441,165.353
			c0,0.615,0.101,1.098,0.302,1.449c0.202,0.351,0.476,0.526,0.822,0.526c0.349,0,0.624-0.176,0.825-0.528
			c0.202-0.353,0.303-0.835,0.303-1.448c0-0.615-0.101-1.099-0.303-1.451c-0.201-0.353-0.477-0.528-0.825-0.528
			c-0.346,0-0.62,0.175-0.822,0.526C62.542,164.251,62.441,164.735,62.441,165.353z"/>
		<path d="M67.773,162.926c0.608,0,1.062,0.201,1.36,0.602s0.447,1.009,0.447,1.825c0,0.777-0.157,1.376-0.471,1.798
			s-0.76,0.632-1.336,0.632h-1.617v-4.857H67.773z M67.726,163.507H66.81v3.695h0.916c0.401,0,0.698-0.151,0.892-0.455
			s0.291-0.768,0.291-1.395c0-0.654-0.092-1.125-0.277-1.414C68.447,163.651,68.145,163.507,67.726,163.507z"/>
	</g>
	<g>
		<path d="M14.873,219.713v-4.857h0.653v1.979h1.945v-1.979h0.646v4.857H17.47v-2.283h-1.945v2.283H14.873z"/>
		<path d="M18.584,219.713l1.771-4.863h0.714l1.777,4.863H22.19l-0.513-1.429H19.74l-0.513,1.429H18.584z M19.962,217.69h1.5
			l-0.752-2.143L19.962,217.69z"/>
		<path d="M23.366,219.713v-4.857h1.624c0.479,0,0.843,0.118,1.094,0.354c0.25,0.235,0.376,0.579,0.376,1.03
			c0,0.267-0.054,0.492-0.163,0.677c-0.108,0.185-0.268,0.326-0.48,0.424c0.178,0.055,0.305,0.142,0.383,0.262
			c0.078,0.119,0.126,0.329,0.147,0.63l0.051,0.79c0.011,0.171,0.033,0.296,0.065,0.376s0.082,0.141,0.15,0.182v0.133h-0.735
			c-0.032-0.053-0.058-0.131-0.079-0.236c-0.021-0.104-0.037-0.246-0.048-0.424l-0.034-0.629c-0.018-0.316-0.083-0.522-0.195-0.618
			s-0.392-0.144-0.841-0.144h-0.667v2.051H23.366z M24.809,215.452h-0.793v1.616h0.749c0.38,0,0.646-0.063,0.796-0.188
			c0.15-0.125,0.226-0.333,0.226-0.625c0-0.287-0.074-0.493-0.222-0.617S25.164,215.452,24.809,215.452z"/>
		<path d="M29.132,214.856c0.608,0,1.062,0.201,1.36,0.602c0.298,0.401,0.448,1.01,0.448,1.826c0,0.776-0.157,1.376-0.472,1.797
			c-0.314,0.422-0.76,0.633-1.336,0.633h-1.617v-4.857H29.132z M29.084,215.438h-0.916v3.694h0.916c0.401,0,0.698-0.151,0.892-0.454
			c0.194-0.304,0.291-0.769,0.291-1.395c0-0.654-0.092-1.126-0.277-1.414S29.504,215.438,29.084,215.438z"/>
		<path d="M15.392,226.51c0,0.354,0.104,0.634,0.311,0.84s0.486,0.309,0.837,0.309c0.319,0,0.575-0.08,0.767-0.24
			c0.193-0.161,0.289-0.375,0.289-0.641c0-0.36-0.342-0.633-1.025-0.817c-0.137-0.036-0.243-0.065-0.318-0.085
			c-0.549-0.155-0.912-0.327-1.087-0.515c-0.175-0.188-0.263-0.451-0.263-0.788c0-0.431,0.143-0.778,0.427-1.044
			s0.657-0.398,1.118-0.398c0.526,0,0.934,0.136,1.224,0.408s0.434,0.657,0.434,1.153v0.014H17.47
			c-0.025-0.323-0.124-0.571-0.295-0.743c-0.172-0.172-0.408-0.258-0.706-0.258c-0.276,0-0.496,0.07-0.661,0.21
			c-0.166,0.141-0.248,0.326-0.248,0.559s0.062,0.404,0.187,0.514c0.124,0.109,0.452,0.225,0.982,0.348
			c0.618,0.145,1.023,0.314,1.219,0.514c0.194,0.197,0.292,0.483,0.292,0.857c0,0.472-0.155,0.847-0.467,1.125
			c-0.311,0.277-0.73,0.416-1.259,0.416c-0.54,0-0.962-0.15-1.266-0.451c-0.305-0.301-0.469-0.729-0.494-1.285H15.392z"/>
		<path d="M21.076,228.114h-0.653v-1.924l-1.665-2.939h0.776l1.213,2.3l1.196-2.3h0.728l-1.596,2.898V228.114z"/>
		<path d="M23.332,228.114v-4.857h0.762l1.839,3.982v-3.982h0.588v4.857h-0.749l-1.863-3.982v3.982H23.332z"/>
		<path d="M30.274,226.309h0.673c-0.062,0.604-0.247,1.078-0.557,1.422s-0.705,0.516-1.186,0.516c-0.561,0-1-0.227-1.319-0.682
			c-0.319-0.454-0.479-1.082-0.479-1.881c0-0.803,0.16-1.43,0.479-1.882s0.759-0.679,1.319-0.679c0.438,0,0.806,0.143,1.104,0.429
			s0.485,0.675,0.561,1.167h-0.663c-0.073-0.32-0.197-0.57-0.373-0.748s-0.385-0.267-0.629-0.267c-0.349,0-0.624,0.176-0.826,0.526
			c-0.201,0.351-0.302,0.835-0.302,1.453c0,0.612,0.102,1.095,0.304,1.447c0.203,0.352,0.478,0.527,0.824,0.527
			c0.285,0,0.522-0.118,0.711-0.356S30.224,226.733,30.274,226.309z"/>
	</g>
	<g>
		<path d="M15.049,275.709c0,0.354,0.104,0.634,0.311,0.84s0.486,0.309,0.837,0.309c0.319,0,0.575-0.08,0.767-0.24
			c0.193-0.161,0.289-0.375,0.289-0.641c0-0.36-0.342-0.633-1.025-0.817c-0.137-0.036-0.243-0.065-0.318-0.085
			c-0.549-0.155-0.912-0.327-1.087-0.515c-0.175-0.188-0.263-0.451-0.263-0.788c0-0.431,0.143-0.778,0.427-1.044
			s0.657-0.398,1.118-0.398c0.526,0,0.934,0.136,1.224,0.408s0.434,0.657,0.434,1.153v0.014h-0.636
			c-0.025-0.323-0.124-0.571-0.295-0.743c-0.172-0.172-0.408-0.258-0.706-0.258c-0.276,0-0.496,0.07-0.661,0.21
			c-0.166,0.141-0.248,0.326-0.248,0.559s0.062,0.404,0.187,0.514c0.124,0.109,0.452,0.225,0.982,0.348
			c0.618,0.145,1.023,0.314,1.219,0.514c0.194,0.197,0.292,0.483,0.292,0.857c0,0.472-0.155,0.847-0.467,1.125
			c-0.311,0.277-0.73,0.416-1.259,0.416c-0.54,0-0.962-0.15-1.266-0.451c-0.305-0.301-0.469-0.729-0.494-1.285H15.049z"/>
		<path d="M18.569,274.883c0-0.805,0.16-1.433,0.479-1.884s0.759-0.677,1.319-0.677s1.001,0.228,1.321,0.682
			c0.32,0.455,0.48,1.081,0.48,1.879c0,0.799-0.16,1.427-0.48,1.881c-0.32,0.455-0.761,0.682-1.321,0.682
			c-0.558,0-0.998-0.227-1.317-0.682C18.729,276.31,18.569,275.682,18.569,274.883z M19.243,274.883
			c0,0.615,0.101,1.098,0.302,1.449c0.202,0.351,0.476,0.525,0.822,0.525c0.349,0,0.624-0.176,0.825-0.527
			c0.202-0.353,0.303-0.835,0.303-1.447c0-0.615-0.101-1.1-0.303-1.451c-0.201-0.353-0.477-0.528-0.825-0.528
			c-0.346,0-0.62,0.176-0.822,0.526C19.344,273.781,19.243,274.265,19.243,274.883z"/>
		<path d="M23.149,277.313v-4.857h3.162v0.588h-2.512v1.457h2.044v0.58h-2.044v2.232H23.149z"/>
		<path d="M28.475,277.313v-4.27h-1.477v-0.588h3.592v0.588h-1.47v4.27H28.475z"/>
		<path d="M15.049,284.11c0,0.354,0.104,0.634,0.311,0.84s0.486,0.309,0.837,0.309c0.319,0,0.575-0.08,0.767-0.24
			c0.193-0.161,0.289-0.375,0.289-0.641c0-0.36-0.342-0.633-1.025-0.817c-0.137-0.036-0.243-0.065-0.318-0.085
			c-0.549-0.155-0.912-0.327-1.087-0.515c-0.175-0.188-0.263-0.451-0.263-0.788c0-0.431,0.143-0.778,0.427-1.044
			s0.657-0.398,1.118-0.398c0.526,0,0.934,0.136,1.224,0.408s0.434,0.657,0.434,1.153v0.014h-0.636
			c-0.025-0.323-0.124-0.571-0.295-0.743c-0.172-0.172-0.408-0.258-0.706-0.258c-0.276,0-0.496,0.07-0.661,0.21
			c-0.166,0.141-0.248,0.326-0.248,0.559s0.062,0.404,0.187,0.514c0.124,0.109,0.452,0.225,0.982,0.348
			c0.618,0.145,1.023,0.314,1.219,0.514c0.194,0.197,0.292,0.483,0.292,0.857c0,0.472-0.155,0.847-0.467,1.125
			c-0.311,0.277-0.73,0.416-1.259,0.416c-0.54,0-0.962-0.15-1.266-0.451c-0.305-0.301-0.469-0.729-0.494-1.285H15.049z"/>
		<path d="M20.733,285.713H20.08v-1.924l-1.665-2.939h0.776l1.213,2.3l1.196-2.3h0.728l-1.596,2.898V285.713z"/>
		<path d="M22.989,285.713v-4.857h0.762l1.839,3.982v-3.982h0.588v4.857h-0.749l-1.863-3.982v3.982H22.989z"/>
		<path d="M29.931,283.909h0.673c-0.062,0.604-0.247,1.078-0.557,1.422s-0.705,0.516-1.186,0.516c-0.561,0-1-0.227-1.319-0.682
			c-0.319-0.454-0.479-1.082-0.479-1.881c0-0.803,0.16-1.43,0.479-1.882s0.759-0.679,1.319-0.679c0.438,0,0.806,0.143,1.104,0.429
			s0.485,0.675,0.561,1.167h-0.663c-0.073-0.32-0.197-0.57-0.373-0.748s-0.385-0.267-0.629-0.267c-0.349,0-0.624,0.176-0.826,0.526
			c-0.201,0.351-0.302,0.835-0.302,1.453c0,0.612,0.102,1.095,0.304,1.447c0.203,0.352,0.478,0.527,0.824,0.527
			c0.285,0,0.522-0.118,0.711-0.356S29.88,284.333,29.931,283.909z"/>
	</g>
	<g>
		<path d="M57.875,225.382v-4.857h1.682c0.483,0,0.849,0.119,1.097,0.355c0.249,0.237,0.373,0.585,0.373,1.043
			c0,0.244-0.042,0.46-0.125,0.649c-0.083,0.189-0.207,0.349-0.371,0.479c-0.132,0.103-0.283,0.175-0.451,0.217
			s-0.45,0.063-0.844,0.063h-0.714v2.051H57.875z M59.382,221.121h-0.861v1.616h0.81c0.38,0,0.646-0.063,0.796-0.188
			c0.15-0.125,0.226-0.333,0.226-0.625c0-0.287-0.074-0.493-0.22-0.617C59.985,221.182,59.735,221.121,59.382,221.121z"/>
		<path d="M62.243,225.382l-0.837-4.863h0.574l0.602,4.135l0.677-4.135h0.612l0.69,4.135l0.602-4.135h0.561l-0.854,4.863H64.28
			l-0.721-4.215l-0.697,4.215H62.243z"/>
		<path d="M66.03,225.382v-4.857h0.861l0.889,4.283l0.899-4.283h0.851v4.857h-0.543v-4.409l-0.902,4.409h-0.605l-0.909-4.409v4.409
			H66.03z"/>
	</g>
	<g>
		<path d="M57.199,279.71c0-0.805,0.16-1.433,0.479-1.884s0.759-0.677,1.319-0.677s1.001,0.228,1.321,0.682
			c0.32,0.455,0.48,1.081,0.48,1.879c0,0.799-0.16,1.427-0.48,1.881c-0.32,0.455-0.761,0.682-1.321,0.682
			c-0.558,0-0.998-0.227-1.317-0.682C57.359,281.137,57.199,280.509,57.199,279.71z M57.873,279.71c0,0.615,0.101,1.098,0.302,1.449
			c0.202,0.351,0.476,0.525,0.822,0.525c0.349,0,0.624-0.176,0.825-0.527c0.202-0.353,0.303-0.835,0.303-1.447
			c0-0.615-0.101-1.1-0.303-1.451c-0.201-0.353-0.477-0.528-0.825-0.528c-0.346,0-0.62,0.176-0.822,0.526
			C57.974,278.608,57.873,279.092,57.873,279.71z"/>
		<path d="M61.54,280.291v-3.008h0.643v3.046c0,0.46,0.084,0.802,0.253,1.023c0.168,0.223,0.427,0.333,0.776,0.333
			c0.344,0,0.601-0.112,0.769-0.338s0.253-0.565,0.253-1.019v-3.046h0.653v3.008c0,0.675-0.137,1.174-0.41,1.498
			c-0.273,0.323-0.695,0.484-1.265,0.484c-0.565,0-0.985-0.161-1.26-0.484C61.677,281.464,61.54,280.965,61.54,280.291z"/>
		<path d="M67.104,282.14v-4.27h-1.477v-0.588h3.592v0.588h-1.47v4.27H67.104z"/>
	</g>
	<g>
		<path d="M50.925,326.284h-3.551v-1.025h5.004v1.137l-2.121,2.115c0.801,0.066,1.412,0.31,1.834,0.729s0.633,0.991,0.633,1.714
			c0,0.801-0.29,1.448-0.87,1.942s-1.343,0.741-2.288,0.741c-0.688,0-1.418-0.164-2.191-0.492v-1.131
			c0.633,0.391,1.324,0.586,2.074,0.586c0.668,0,1.19-0.153,1.567-0.46s0.565-0.731,0.565-1.274c0-0.43-0.17-0.785-0.51-1.066
			s-0.771-0.422-1.295-0.422h-1.008v-0.873L50.925,326.284z"/>
		<path d="M58.15,326.284h-3.551v-1.025h5.004v1.137l-2.121,2.115c0.801,0.066,1.412,0.31,1.834,0.729s0.633,0.991,0.633,1.714
			c0,0.801-0.29,1.448-0.87,1.942s-1.343,0.741-2.288,0.741c-0.688,0-1.418-0.164-2.191-0.492v-1.131
			c0.633,0.391,1.324,0.586,2.074,0.586c0.668,0,1.19-0.153,1.567-0.46s0.565-0.731,0.565-1.274c0-0.43-0.17-0.785-0.51-1.066
			s-0.771-0.422-1.295-0.422h-1.008v-0.873L58.15,326.284z"/>
		<path d="M66.125,330.684h1.031v1.061h-1.031v1.799h-1.143v-1.799H61.83v-1.242l2.438-5.244h1.178l-2.514,5.426h2.051v-1.729h1.143
			V330.684z"/>
		<path d="M71.832,325.165c0.601,0,1.066,0.07,1.392,0.211s0.566,0.377,0.723,0.709c0.352,0.727,0.527,1.836,0.527,3.328
			c0,1.871-0.242,3.076-0.727,3.615c-0.367,0.406-1.08,0.609-2.138,0.609c-1.098,0-1.793-0.271-2.086-0.814
			c-0.383-0.711-0.574-1.867-0.574-3.469c0-1.605,0.191-2.738,0.574-3.398c0.16-0.277,0.423-0.479,0.788-0.604
			S71.183,325.165,71.832,325.165z M71.808,326.219c-0.422,0-0.731,0.022-0.929,0.067s-0.341,0.126-0.431,0.243
			c-0.105,0.137-0.197,0.483-0.275,1.04s-0.117,1.149-0.117,1.778c0,0.523,0.03,1.063,0.091,1.617s0.13,0.932,0.208,1.131
			c0.074,0.191,0.204,0.326,0.39,0.404s0.47,0.117,0.853,0.117c0.441,0,0.771-0.029,0.988-0.088s0.361-0.156,0.436-0.293
			c0.234-0.445,0.352-1.314,0.352-2.607c0-0.762-0.039-1.435-0.117-2.019s-0.182-0.956-0.311-1.116
			c-0.082-0.105-0.203-0.178-0.363-0.217S72.164,326.219,71.808,326.219z"/>
		<path d="M78.95,332.454l1.746-6.615h1.143l-2.104,7.705h-1.623l-2.08-7.705h1.154L78.95,332.454z"/>
		<path d="M88.53,327.555h-1.09c-0.043-0.234-0.152-0.423-0.33-0.565s-0.396-0.214-0.654-0.214c-0.445,0-0.803,0.263-1.072,0.788
			s-0.404,1.22-0.404,2.083c0,0.906,0.133,1.626,0.398,2.159s0.625,0.8,1.078,0.8c0.254,0,0.473-0.079,0.656-0.237
			s0.293-0.362,0.328-0.612h1.148v0.088c0,0.484-0.205,0.904-0.617,1.26s-0.898,0.533-1.457,0.533c-0.813,0-1.459-0.352-1.941-1.055
			s-0.725-1.641-0.725-2.813c0-1.266,0.24-2.253,0.719-2.962s1.143-1.063,1.994-1.063c0.57,0,1.041,0.171,1.412,0.513
			S88.53,327.032,88.53,327.555z"/>
		<path d="M93.399,325.745c0.77,0,1.416,0.377,1.938,1.131s0.781,1.686,0.781,2.795c0,1.176-0.254,2.131-0.762,2.865
			s-1.166,1.102-1.975,1.102c-0.789,0-1.439-0.365-1.951-1.096s-0.768-1.66-0.768-2.789c0-1.148,0.26-2.104,0.779-2.865
			S92.614,325.745,93.399,325.745z M93.399,326.776c-0.496,0-0.871,0.221-1.125,0.662c-0.32,0.555-0.48,1.322-0.48,2.303
			c0,0.902,0.141,1.605,0.42,2.109s0.67,0.756,1.174,0.756c0.5,0,0.893-0.259,1.176-0.776s0.424-1.239,0.424-2.165
			c0-0.879-0.143-1.58-0.43-2.104S93.884,326.776,93.399,326.776z"/>
	</g>
	<g>
	</g>
	<g>
		<path d="M97.989,269.689v-4.857h1.682c0.482,0,0.849,0.119,1.098,0.355c0.248,0.237,0.372,0.585,0.372,1.043
			c0,0.244-0.042,0.46-0.125,0.649s-0.206,0.349-0.37,0.479c-0.133,0.103-0.283,0.175-0.451,0.217
			c-0.169,0.042-0.451,0.063-0.845,0.063h-0.714v2.051H97.989z M99.497,265.427h-0.861v1.616h0.81c0.38,0,0.646-0.063,0.796-0.188
			c0.15-0.125,0.227-0.333,0.227-0.625c0-0.287-0.074-0.493-0.221-0.617C100.1,265.489,99.85,265.427,99.497,265.427z"/>
		<path d="M103.198,269.689v-1.043h0.967v1.043H103.198z"/>
		<path d="M106.572,269.689l-0.838-4.863h0.574l0.602,4.135l0.677-4.135h0.612l0.689,4.135l0.602-4.135h0.561l-0.854,4.863h-0.588
			l-0.722-4.215l-0.697,4.215H106.572z"/>
		<path d="M111.787,269.101v-3.682h-0.896v-0.588h2.438v0.588h-0.896v3.682h0.896v0.588h-2.438v-0.588H111.787z"/>
		<path d="M116.316,264.832c0.608,0,1.062,0.201,1.36,0.602c0.299,0.401,0.447,1.01,0.447,1.826c0,0.776-0.156,1.376-0.471,1.797
			c-0.314,0.422-0.761,0.633-1.337,0.633H114.7v-4.857H116.316z M116.269,265.414h-0.916v3.694h0.916
			c0.401,0,0.698-0.151,0.893-0.454c0.193-0.304,0.29-0.769,0.29-1.395c0-0.654-0.093-1.126-0.276-1.414
			C116.989,265.557,116.688,265.414,116.269,265.414z"/>
		<path d="M120.217,269.689v-4.27h-1.477v-0.588h3.593v0.588h-1.471v4.27H120.217z"/>
		<path d="M123.129,269.689v-4.857h0.652v1.979h1.945v-1.979h0.646v4.857h-0.646v-2.283h-1.945v2.283H123.129z"/>
	</g>
</g>
<g id="タイトル">
	<g>
		<path d="M30.432,18.635V16.26c0-0.501,0.41-0.912,0.911-0.912h3.934v-0.505h-3.375c-0.238,0-0.432-0.193-0.432-0.432
			s0.193-0.432,0.432-0.432h7.614c0.238,0,0.432,0.193,0.432,0.432s-0.193,0.432-0.432,0.432H36.14v0.505h3.934
			c0.501,0,0.912,0.411,0.912,0.912v2.375c0,0.238-0.193,0.432-0.432,0.432c-0.239,0-0.432-0.193-0.432-0.432V16.26
			c0-0.028-0.02-0.048-0.048-0.048H36.14v2.424c0,0.238-0.193,0.432-0.432,0.432c-0.238,0-0.432-0.193-0.432-0.432v-2.424h-3.934
			c-0.028,0-0.048,0.021-0.048,0.048v2.375c0,0.238-0.193,0.432-0.432,0.432S30.432,18.874,30.432,18.635z M36.577,24.669
			c-0.771,0-1.391-0.628-1.391-1.391v-0.06h-3.211c-0.396,0-0.72-0.324-0.72-0.72v-2.417c0-0.396,0.324-0.72,0.72-0.72h7.285
			c0.396,0,0.72,0.323,0.72,0.72v2.417c0,0.396-0.323,0.72-0.72,0.72h-3.211v0.06c0,0.291,0.237,0.528,0.528,0.528h3.297
			c0.125,0,0.229-0.061,0.292-0.169c0.104-0.183,0.165-0.368,0.211-0.645c0.031-0.208,0.21-0.367,0.427-0.367
			c0.238,0,0.432,0.193,0.432,0.432c0,0.027-0.002,0.053-0.007,0.078c-0.061,0.365-0.161,0.663-0.312,0.929
			c-0.212,0.373-0.613,0.605-1.042,0.605H36.577z M32.388,17.55c-0.238,0-0.432-0.193-0.432-0.432c0-0.239,0.193-0.432,0.432-0.432
			h1.797c0.238,0,0.432,0.193,0.432,0.432c0,0.238-0.193,0.432-0.432,0.432H32.388z M32.388,18.888
			c-0.238,0-0.432-0.193-0.432-0.432s0.193-0.432,0.432-0.432h1.797c0.238,0,0.432,0.193,0.432,0.432s-0.193,0.432-0.432,0.432
			H32.388z M32.119,20.839h3.067v-0.614h-3.067V20.839z M32.119,22.354h3.067v-0.652h-3.067V22.354z M36.049,20.839h3.067v-0.614
			h-3.067V20.839z M36.049,22.354h3.067v-0.652h-3.067V22.354z M37.232,17.55c-0.238,0-0.432-0.193-0.432-0.432
			c0-0.239,0.193-0.432,0.432-0.432h1.797c0.239,0,0.432,0.193,0.432,0.432c0,0.238-0.193,0.432-0.432,0.432H37.232z M37.232,18.888
			c-0.238,0-0.432-0.193-0.432-0.432s0.193-0.432,0.432-0.432h1.797c0.239,0,0.432,0.193,0.432,0.432s-0.193,0.432-0.432,0.432
			H37.232z"/>
		<path d="M42.083,23.214c0.84-1.367,1.271-3.394,1.271-6.033v-1.667c0-0.6,0.48-1.079,1.08-1.079h8.095
			c0.24,0,0.432,0.192,0.432,0.432s-0.192,0.432-0.432,0.432h-8.095c-0.12,0-0.216,0.096-0.216,0.216v1.667
			c0,1.487-0.132,2.819-0.396,3.946c-0.24,0.984-0.576,1.835-1.007,2.543c-0.072,0.132-0.216,0.204-0.36,0.204
			c-0.084,0-0.156-0.024-0.228-0.06C42.024,23.682,41.964,23.418,42.083,23.214z M49.28,23.311h3.55c0.24,0,0.432,0.192,0.432,0.432
			s-0.192,0.432-0.432,0.432h-7.7c-0.24,0-0.432-0.192-0.432-0.432s0.192-0.432,0.432-0.432h3.286v-3.742h-2.614
			c-0.24,0-0.432-0.192-0.432-0.432s0.192-0.432,0.432-0.432h2.614V16.75c0-0.24,0.192-0.432,0.432-0.432
			c0.24,0,0.432,0.192,0.432,0.432v1.955h2.687c0.24,0,0.432,0.192,0.432,0.432s-0.192,0.432-0.432,0.432H49.28V23.311z"/>
		<path d="M57.154,24.366v-3.981h-1.595v2.818c0,0.24-0.192,0.432-0.432,0.432c-0.24,0-0.432-0.192-0.432-0.432V20.24
			c0-0.396,0.324-0.72,0.72-0.72h1.739v-1.259h-2.243c-0.24,0-0.432-0.192-0.432-0.432c0-0.24,0.192-0.432,0.432-0.432h2.243v-1.344
			h-1.595c-0.204,0.312-0.444,0.624-0.732,0.924c-0.084,0.084-0.192,0.132-0.312,0.132c-0.24,0-0.432-0.192-0.432-0.432
			c0-0.12,0.048-0.216,0.12-0.3c0.684-0.72,1.043-1.367,1.259-2.315c0.048-0.204,0.228-0.336,0.42-0.336
			c0.276,0,0.492,0.264,0.419,0.54c-0.072,0.324-0.167,0.635-0.288,0.923h1.139v-1.164c0-0.24,0.192-0.432,0.432-0.432
			c0.24,0,0.432,0.192,0.432,0.432v1.164h1.979c0.24,0,0.432,0.192,0.432,0.432c0,0.24-0.192,0.432-0.432,0.432h-1.979v1.344h2.147
			c0.24,0,0.432,0.191,0.432,0.432c0,0.24-0.192,0.432-0.432,0.432h-2.147v1.259h1.739c0.396,0,0.72,0.324,0.72,0.72v2.962
			c0,0.24-0.192,0.432-0.432,0.432s-0.432-0.192-0.432-0.432v-2.818h-1.595v3.981c0,0.24-0.192,0.432-0.432,0.432
			C57.346,24.798,57.154,24.606,57.154,24.366z M61.436,21.032v-5.757c0-0.24,0.192-0.432,0.432-0.432
			c0.24,0,0.432,0.192,0.432,0.432v5.757c0,0.24-0.192,0.432-0.432,0.432C61.627,21.463,61.436,21.271,61.436,21.032z
			 M62.011,24.342c-0.156-0.06-0.264-0.216-0.264-0.396c0-0.312,0.324-0.528,0.612-0.396c0.384,0.168,0.875,0.276,1.259,0.276
			c0.132,0,0.24-0.108,0.24-0.24v-9.475c0-0.24,0.192-0.432,0.432-0.432s0.432,0.192,0.432,0.432v9.475
			c0,0.611-0.492,1.104-1.103,1.104C63.127,24.69,62.491,24.558,62.011,24.342z"/>
		<path d="M66.587,20.084c-0.132,0-0.264-0.06-0.348-0.18c-0.132-0.192-0.096-0.468,0.096-0.6c0.864-0.636,1.547-1.367,2.015-2.195
			c0.12-0.204,0.384-0.276,0.587-0.168c0.204,0.12,0.276,0.384,0.156,0.6c-0.144,0.252-0.312,0.504-0.492,0.744v6.261
			c0,0.24-0.192,0.432-0.432,0.432c-0.24,0-0.432-0.192-0.432-0.432v-5.289c-0.276,0.264-0.576,0.503-0.888,0.744
			C66.767,20.048,66.684,20.084,66.587,20.084z M66.695,16.666c-0.156-0.18-0.132-0.456,0.048-0.6
			c0.768-0.66,1.308-1.391,1.619-2.255c0.084-0.228,0.336-0.335,0.552-0.251c0.228,0.072,0.336,0.324,0.264,0.551
			c-0.372,0.996-0.984,1.859-1.871,2.603c-0.084,0.072-0.18,0.108-0.288,0.108C66.899,16.822,66.779,16.774,66.695,16.666z
			 M69.238,15.479c0.588-0.396,1.308-1.151,1.667-1.739c0.12-0.204,0.384-0.264,0.587-0.144c0.204,0.12,0.276,0.384,0.144,0.588
			c-0.12,0.216-0.288,0.444-0.468,0.671h2.471c0.24,0,0.432,0.192,0.432,0.432c0,0.24-0.191,0.432-0.432,0.432h-1.5v1.379h1.295
			c0.239,0,0.433,0.192,0.433,0.432c0,0.24-0.193,0.432-0.433,0.432H72.14v1.511h1.295c0.239,0,0.433,0.204,0.433,0.432
			c0,0.24-0.193,0.432-0.433,0.432H72.14v2.183c0.48-0.24,0.935-0.504,1.259-0.732c0.192-0.132,0.469-0.084,0.6,0.108
			c0.145,0.204,0.096,0.468-0.107,0.6c-0.492,0.348-1.283,0.779-1.991,1.091c-0.012,0-0.024,0.012-0.036,0.012
			c-0.312,0.144-0.624,0.264-0.876,0.336c-0.132,0.036-0.264,0.06-0.384,0.06c-0.251,0-0.479-0.072-0.659-0.204
			c-0.276-0.204-0.432-0.516-0.432-0.875v-3.382c0-0.24,0.204-0.432,0.432-0.432c0.24,0,0.432,0.192,0.432,0.432v3.382
			c0,0.084,0.024,0.144,0.072,0.18c0.072,0.048,0.18,0.048,0.288,0.012c0.156-0.048,0.348-0.12,0.54-0.192v-2.962v-0.048
			c0-0.012,0-0.024,0-0.036v-1.907h-1.283c-0.24,0-0.432-0.192-0.432-0.432c0-0.24,0.192-0.432,0.432-0.432h1.283v-1.379H70.33
			c-0.204,0.18-0.408,0.348-0.612,0.479c-0.072,0.048-0.156,0.072-0.24,0.072c-0.132,0-0.276-0.072-0.36-0.192
			C68.986,15.887,69.046,15.611,69.238,15.479z M74.228,24.594v-9.235c0-0.192,0.084-0.384,0.228-0.528s0.336-0.228,0.528-0.228
			h1.246c0.433,0,0.744,0.324,0.744,0.768v6.933c0,0.348-0.107,0.659-0.312,0.887c-0.216,0.252-0.54,0.384-0.888,0.384
			c-0.204,0-0.455-0.06-0.684-0.168v1.188c0,0.24-0.204,0.432-0.432,0.432C74.419,25.025,74.228,24.833,74.228,24.594z
			 M75.091,15.467v6.944c0.203,0.167,0.527,0.3,0.684,0.3c0.3,0,0.336-0.252,0.336-0.408v-6.836H75.091z"/>
		<path d="M79.241,24.851c-0.238,0-0.432-0.193-0.432-0.432c0-0.193,0.125-0.356,0.301-0.412c1.604-0.551,2.397-1.359,2.682-2.93
			h-1.809c-0.238,0-0.432-0.193-0.432-0.432s0.193-0.432,0.432-0.432h1.91c0.018-0.253,0.025-0.523,0.025-0.81v-0.65h-1.221
			c-0.238,0-0.432-0.193-0.432-0.432c0-0.108,0.039-0.207,0.104-0.282c-0.538,0.292-1.092,0.546-1.64,0.746
			c-0.049,0.019-0.102,0.03-0.156,0.03c-0.238,0-0.432-0.193-0.432-0.432c0-0.19,0.123-0.352,0.293-0.409
			c0.863-0.314,1.742-0.773,2.531-1.297c-0.421-0.325-0.866-0.629-1.332-0.91c-0.129-0.075-0.215-0.214-0.215-0.374
			c0-0.238,0.193-0.432,0.432-0.432c0.084,0,0.162,0.024,0.229,0.065c0.563,0.338,1.107,0.717,1.618,1.126
			c0.644-0.5,1.187-1.031,1.55-1.537H81.62c-0.239,0-0.433-0.193-0.433-0.432c0-0.238,0.193-0.432,0.433-0.432h1.898
			c0.397,0,0.721,0.323,0.721,0.72c0,0.069-0.014,0.149-0.039,0.224c0.279,0.315,0.574,0.616,0.886,0.9
			c0.327-0.282,0.604-0.58,0.886-0.95c0.08-0.105,0.205-0.173,0.347-0.173c0.239,0,0.433,0.193,0.433,0.432
			c0,0.1-0.034,0.191-0.092,0.265c-0.287,0.377-0.578,0.695-0.908,0.992c0.275,0.216,0.559,0.42,0.852,0.612
			c0.354-0.297,0.656-0.624,0.955-1.028c0.078-0.108,0.206-0.179,0.35-0.179c0.239,0,0.433,0.193,0.433,0.432
			c0,0.098-0.032,0.188-0.087,0.26c-0.273,0.37-0.559,0.691-0.875,0.981c0.517,0.285,1.053,0.531,1.605,0.734
			c0.169,0.059,0.291,0.219,0.291,0.409c0,0.238-0.193,0.432-0.432,0.432c-0.057,0-0.109-0.011-0.158-0.03
			c-0.561-0.207-1.108-0.457-1.639-0.746c0.065,0.076,0.105,0.174,0.105,0.282c0,0.239-0.193,0.432-0.432,0.432h-1.381v1.46h2.096
			c0.238,0,0.432,0.193,0.432,0.432c0,0.239-0.193,0.432-0.432,0.432h-2.096v2.314c0,0.185,0.15,0.336,0.336,0.336h2.354
			c0.238,0,0.432,0.193,0.432,0.432c0,0.239-0.193,0.432-0.432,0.432h-2.354c-0.656,0-1.2-0.537-1.2-1.2v-2.314h-1.81
			c-0.318,1.981-1.307,3.071-3.275,3.747C79.344,24.841,79.294,24.851,79.241,24.851L79.241,24.851z M86.788,17.896
			c-1.145-0.658-2.197-1.496-3.084-2.46c-0.721,0.867-1.842,1.757-3.074,2.46c0.022-0.003,0.045-0.005,0.068-0.005h6.021
			C86.743,17.89,86.766,17.892,86.788,17.896L86.788,17.896z M84.475,20.214v-1.46h-1.692v0.65c0,0.283-0.008,0.553-0.023,0.81
			H84.475z"/>
		<path d="M91.715,24.462v-2.675c-0.372,0.108-0.743,0.192-1.14,0.264c-0.312,0.06-0.527-0.168-0.527-0.42
			c0-0.216,0.156-0.396,0.371-0.432c0.457-0.072,0.876-0.18,1.296-0.312v-4.042h-1.199c-0.24,0-0.433-0.192-0.433-0.432
			c0-0.24,0.192-0.432,0.433-0.432h1.199v-1.907c0-0.24,0.192-0.432,0.432-0.432s0.432,0.192,0.432,0.432v1.907h0.983
			c0.24,0,0.432,0.192,0.432,0.432c0,0.24-0.191,0.432-0.432,0.432h-0.983v3.73c0.276-0.12,0.575-0.264,0.864-0.42
			c0.071-0.036,0.144-0.048,0.203-0.048c0.24,0,0.432,0.192,0.432,0.432c0,0.168-0.096,0.312-0.24,0.384
			c-0.419,0.228-0.839,0.42-1.259,0.576v2.962c0,0.24-0.192,0.432-0.432,0.432S91.715,24.702,91.715,24.462z M96.872,24.63
			c-0.504,0-0.912-0.408-0.912-0.912v-4.821h-0.887c-0.061,2.603-0.313,3.694-1.02,5.169c-0.072,0.168-0.229,0.264-0.396,0.264
			c-0.239,0-0.432-0.192-0.432-0.432c0-0.06,0.012-0.132,0.049-0.204c0.791-1.643,0.947-2.699,0.947-6.477v-2.147
			c0-0.503,0.408-0.911,0.911-0.911h5.313c0.24,0,0.432,0.192,0.432,0.432s-0.191,0.432-0.432,0.432h-5.313
			c-0.024,0-0.048,0.024-0.048,0.048v2.962h5.553c0.24,0,0.432,0.192,0.432,0.432c0,0.24-0.191,0.432-0.432,0.432h-3.813v4.821
			c0,0.048,0.036,0.06,0.083,0.036c0.396-0.204,0.732-0.48,1.068-0.888c0.084-0.096,0.203-0.156,0.336-0.156
			c0.24,0,0.432,0.192,0.432,0.432c0,0.108-0.036,0.204-0.107,0.288c-0.396,0.468-0.84,0.84-1.332,1.092
			C97.147,24.606,96.991,24.63,96.872,24.63z M96.236,16.966c-0.239,0-0.432-0.192-0.432-0.432s0.192-0.432,0.432-0.432h3.502
			c0.239,0,0.433,0.192,0.433,0.432s-0.193,0.432-0.433,0.432H96.236z M100.687,24.402c-1.068-0.804-1.836-1.823-2.279-3.07
			c-0.156-0.444,0.023-0.947,0.432-1.199c0.313-0.192,0.6-0.42,0.936-0.744c0.072-0.072,0.18-0.12,0.3-0.12
			c0.239,0,0.432,0.192,0.432,0.432c0,0.12-0.048,0.228-0.132,0.312c-0.371,0.36-0.72,0.636-1.092,0.864
			c-0.06,0.036-0.084,0.096-0.06,0.167c0.396,1.116,1.02,1.955,1.979,2.663c0.119,0.084,0.18,0.216,0.18,0.348
			c0,0.24-0.192,0.432-0.432,0.432C100.866,24.486,100.771,24.462,100.687,24.402z"/>
		<path d="M113.358,20.744c-0.014,0.228-0.205,0.396-0.42,0.396h-0.049c-0.443-0.036-1.57-0.216-2.674-0.588
			c-1.199-0.396-2.039-0.923-2.508-1.559c-0.119,0.168-0.264,0.324-0.432,0.468c-0.432,0.372-1.02,0.708-1.762,0.983
			c-1.477,0.552-2.975,0.696-2.986,0.696h-0.049c-0.217,0-0.408-0.168-0.42-0.396c-0.023-0.24,0.145-0.443,0.385-0.468
			c0.383-0.036,1.631-0.216,2.77-0.635c0.637-0.24,1.139-0.528,1.5-0.828l0.143-0.144h-3.922c-0.238,0-0.432-0.192-0.432-0.432
			s0.193-0.432,0.432-0.432h4.342v-0.084V17.11c0-0.24,0.193-0.432,0.432-0.432c0.24,0,0.432,0.192,0.432,0.432v0.612v0.084h4.342
			c0.24,0,0.432,0.192,0.432,0.432s-0.191,0.432-0.432,0.432h-3.922c0.385,0.408,1.045,0.768,1.932,1.067
			c1.066,0.36,2.146,0.516,2.482,0.54C113.214,20.3,113.382,20.504,113.358,20.744z M106.294,21.271c0.395,0,0.719,0.324,0.719,0.72
			v1.667c0,0.396-0.324,0.72-0.719,0.72h-2.711c-0.396,0-0.719-0.324-0.719-0.72v-1.667c0-0.396,0.322-0.72,0.719-0.72H106.294z
			 M103.644,17.122c-0.396,0-0.721-0.324-0.721-0.72v-1.535c0-0.396,0.324-0.72,0.721-0.72h2.65c0.395,0,0.719,0.324,0.719,0.72
			v1.535c0,0.396-0.324,0.72-0.719,0.72H103.644z M106.149,23.514v-1.379h-2.422v1.379H106.149z M103.786,15.011v1.247h2.363v-1.247
			H103.786z M109.124,17.122c-0.396,0-0.721-0.324-0.721-0.72v-1.535c0-0.396,0.324-0.72,0.721-0.72h2.65
			c0.396,0,0.719,0.324,0.719,0.72v1.535c0,0.396-0.322,0.72-0.719,0.72H109.124z M111.835,21.271c0.395,0,0.719,0.324,0.719,0.72
			v1.667c0,0.396-0.324,0.72-0.719,0.72h-2.711c-0.396,0-0.721-0.324-0.721-0.72v-1.667c0-0.396,0.324-0.72,0.721-0.72H111.835z
			 M109.269,15.011v1.247h2.361v-1.247H109.269z M111.69,23.514v-1.379h-2.422v1.379H111.69z"/>
	</g>
</g>
<g id="関連">
	
		<line fill="none" stroke="#000000" stroke-width="0.25" stroke-miterlimit="10" x1="90.851" y1="181.956" x2="71.717" y2="181.956"/>
	
		<line fill="none" stroke="#000000" stroke-width="0.25" stroke-miterlimit="10" x1="90.851" y1="239.556" x2="71.717" y2="239.556"/>
</g>
<g id="Manfactry">
	<g>
		<g>
			<path fill="#231F20" d="M40.938,346.178v-3.739c0-0.483-0.034-0.79-0.103-0.921c-0.068-0.13-0.253-0.235-0.556-0.316
				c-0.438-0.123-0.658-0.336-0.658-0.64c0-0.213,0.093-0.377,0.278-0.49c0.186-0.114,0.454-0.171,0.805-0.171
				c0.117,0,0.407,0.007,0.87,0.021h0.438c0.809-0.005,1.283-0.011,1.422-0.018c0.139-0.008,0.635-0.049,1.488-0.125
				c0.283-0.028,0.541-0.043,0.775-0.043c0.8,0,1.511,0.159,2.135,0.477c1.087,0.55,1.63,1.422,1.63,2.616
				c0,0.967-0.38,1.742-1.141,2.325c-0.716,0.545-1.584,0.817-2.603,0.817c-0.258,0-0.575-0.017-0.95-0.05
				c-0.2-0.015-0.324-0.021-0.373-0.021c-0.142,0-0.212,0.078-0.212,0.234v0.043l0.051,1.166c0.01,0.228,0.053,0.397,0.128,0.509
				c0.076,0.111,0.23,0.226,0.464,0.345c0.317,0.166,0.476,0.346,0.476,0.54c0,0.299-0.234,0.528-0.702,0.689
				c-0.468,0.161-1.131,0.242-1.989,0.242c-1.804,0-2.706-0.302-2.706-0.903c0-0.143,0.039-0.251,0.117-0.327
				c0.078-0.075,0.261-0.185,0.548-0.327c0.175-0.09,0.278-0.216,0.307-0.377C40.909,347.575,40.928,347.055,40.938,346.178z
				 M44.235,341.536v2.417c0,0.186,0.042,0.297,0.125,0.335c0.141,0.066,0.319,0.1,0.534,0.1c0.322,0,0.592-0.088,0.812-0.264
				c0.317-0.251,0.476-0.673,0.476-1.266c0-0.615-0.186-1.062-0.556-1.336c-0.234-0.176-0.517-0.264-0.848-0.264
				C44.416,341.258,44.235,341.351,44.235,341.536z"/>
			<path fill="#231F20" d="M53.982,340.164l3.642,3.1c0.341,0.289,0.587,0.434,0.738,0.434c0.253,0,0.38-0.263,0.38-0.789
				c0-0.597-0.037-1.005-0.11-1.223s-0.227-0.381-0.46-0.49c-0.19-0.09-0.324-0.187-0.402-0.288s-0.117-0.233-0.117-0.395
				c0-0.398,0.28-0.654,0.841-0.768c0.229-0.048,0.628-0.071,1.199-0.071c0.736,0,1.246,0.043,1.528,0.128
				c0.449,0.133,0.673,0.384,0.673,0.754c0,0.308-0.183,0.54-0.548,0.696c-0.146,0.062-0.246,0.116-0.3,0.164
				c-0.054,0.047-0.1,0.118-0.139,0.213c-0.131,0.313-0.2,0.905-0.205,1.777v2.317c0,0.355,0.002,0.842,0.007,1.458
				c0.005,0.834-0.046,1.436-0.154,1.806c-0.131,0.46-0.37,0.689-0.716,0.689c-0.151,0-0.282-0.031-0.391-0.093
				c-0.11-0.062-0.292-0.203-0.545-0.427l-4.336-3.774c-0.302-0.266-0.553-0.398-0.753-0.398c-0.297,0-0.446,0.4-0.446,1.201
				c0,0.659,0.038,1.109,0.113,1.352c0.076,0.241,0.23,0.419,0.464,0.533c0.327,0.156,0.49,0.359,0.49,0.611
				c0,0.658-0.729,0.988-2.187,0.988c-0.658,0-1.169-0.085-1.532-0.253c-0.363-0.168-0.545-0.406-0.545-0.714
				c0-0.161,0.034-0.282,0.103-0.363c0.068-0.08,0.222-0.189,0.46-0.327c0.229-0.132,0.368-0.367,0.417-0.703
				c0.083-0.611,0.124-1.491,0.124-2.638c0-1.223-0.073-2.114-0.219-2.674c-0.054-0.203-0.122-0.355-0.205-0.454
				c-0.083-0.1-0.219-0.194-0.41-0.285c-0.219-0.104-0.372-0.206-0.457-0.306c-0.085-0.1-0.128-0.22-0.128-0.362
				c0-0.455,0.402-0.741,1.207-0.86c0.273-0.038,0.75-0.057,1.433-0.057c0.39,0,0.674,0.029,0.852,0.089
				C53.528,339.822,53.739,339.956,53.982,340.164z"/>
			<path fill="#231F20" d="M63.612,346.178v-3.739c0-0.483-0.034-0.79-0.103-0.921c-0.068-0.13-0.253-0.235-0.556-0.316
				c-0.438-0.123-0.658-0.336-0.658-0.64c0-0.213,0.093-0.377,0.278-0.49c0.186-0.114,0.454-0.171,0.805-0.171
				c0.117,0,0.407,0.007,0.87,0.021h0.438c0.809-0.005,1.283-0.011,1.422-0.018c0.139-0.008,0.635-0.049,1.488-0.125
				c0.283-0.028,0.541-0.043,0.775-0.043c0.8,0,1.511,0.159,2.135,0.477c1.087,0.55,1.63,1.422,1.63,2.616
				c0,0.967-0.38,1.742-1.141,2.325c-0.716,0.545-1.584,0.817-2.603,0.817c-0.258,0-0.575-0.017-0.95-0.05
				c-0.2-0.015-0.324-0.021-0.373-0.021c-0.142,0-0.212,0.078-0.212,0.234v0.043l0.051,1.166c0.01,0.228,0.053,0.397,0.128,0.509
				c0.076,0.111,0.23,0.226,0.464,0.345c0.317,0.166,0.476,0.346,0.476,0.54c0,0.299-0.234,0.528-0.702,0.689
				c-0.468,0.161-1.131,0.242-1.989,0.242c-1.804,0-2.706-0.302-2.706-0.903c0-0.143,0.039-0.251,0.117-0.327
				c0.078-0.075,0.261-0.185,0.548-0.327c0.175-0.09,0.278-0.216,0.307-0.377C63.583,347.575,63.603,347.055,63.612,346.178z
				 M66.91,341.536v2.417c0,0.186,0.042,0.297,0.125,0.335c0.141,0.066,0.319,0.1,0.534,0.1c0.322,0,0.592-0.088,0.812-0.264
				c0.317-0.251,0.476-0.673,0.476-1.266c0-0.615-0.186-1.062-0.556-1.336c-0.234-0.176-0.517-0.264-0.848-0.264
				C67.09,341.258,66.91,341.351,66.91,341.536z"/>
			<path fill="#231F20" d="M76.657,340.164l3.641,3.1c0.342,0.289,0.588,0.434,0.738,0.434c0.254,0,0.381-0.263,0.381-0.789
				c0-0.597-0.037-1.005-0.109-1.223c-0.074-0.218-0.227-0.381-0.461-0.49c-0.19-0.09-0.324-0.187-0.402-0.288
				s-0.117-0.233-0.117-0.395c0-0.398,0.28-0.654,0.842-0.768c0.229-0.048,0.628-0.071,1.197-0.071c0.736,0,1.246,0.043,1.529,0.128
				c0.447,0.133,0.672,0.384,0.672,0.754c0,0.308-0.182,0.54-0.549,0.696c-0.145,0.062-0.246,0.116-0.299,0.164
				c-0.055,0.047-0.1,0.118-0.139,0.213c-0.133,0.313-0.201,0.905-0.205,1.777v2.317c0,0.355,0.002,0.842,0.008,1.458
				c0.004,0.834-0.047,1.436-0.154,1.806c-0.131,0.46-0.371,0.689-0.717,0.689c-0.15,0-0.281-0.031-0.391-0.093
				s-0.291-0.203-0.545-0.427l-4.336-3.774c-0.302-0.266-0.553-0.398-0.752-0.398c-0.298,0-0.447,0.4-0.447,1.201
				c0,0.659,0.038,1.109,0.113,1.352c0.076,0.241,0.23,0.419,0.465,0.533c0.326,0.156,0.49,0.359,0.49,0.611
				c0,0.658-0.729,0.988-2.187,0.988c-0.658,0-1.169-0.085-1.532-0.253s-0.545-0.406-0.545-0.714c0-0.161,0.035-0.282,0.104-0.363
				c0.068-0.08,0.221-0.189,0.46-0.327c0.229-0.132,0.368-0.367,0.417-0.703c0.083-0.611,0.124-1.491,0.124-2.638
				c0-1.223-0.073-2.114-0.22-2.674c-0.053-0.203-0.121-0.355-0.204-0.454c-0.083-0.1-0.22-0.194-0.409-0.285
				c-0.22-0.104-0.372-0.206-0.457-0.306c-0.086-0.1-0.129-0.22-0.129-0.362c0-0.455,0.402-0.741,1.207-0.86
				c0.273-0.038,0.75-0.057,1.434-0.057c0.39,0,0.674,0.029,0.852,0.089S76.413,339.956,76.657,340.164z"/>
		</g>
		<g>
			<path fill="#231F20" stroke="#231F20" stroke-width="0.25" stroke-miterlimit="10" d="M41.658,354.142
				c-0.039-0.078-0.11-0.259-0.227-0.259c-0.201,0-0.136,0.794-0.136,0.992c0,0.644,0.414,0.343,0.414,0.667
				c0,0.343-0.692,0.355-0.945,0.355c-0.227,0-0.815-0.019-0.815-0.331c0-0.343,0.388-0.06,0.439-0.553
				c0.052-0.505,0.11-1.064,0.11-1.937c0-0.36-0.026-0.547-0.097-0.685c-0.065-0.127-0.434-0.169-0.434-0.415
				c0-0.343,0.602-0.427,1.12-0.427c0.757,0,0.744,0.12,0.938,0.427c0.226,0.354,0.627,1.341,0.912,1.4
				c0.201,0.042,0.466-0.686,0.699-1.082c0.33-0.565,0.336-0.745,1.19-0.745c0.285,0,0.932,0.018,0.932,0.396
				c0,0.24-0.291,0.289-0.356,0.493c-0.052,0.168-0.097,0.878-0.097,1.148c0,0.09,0.039,0.751,0.065,1.311
				c0.02,0.438,0.408,0.343,0.408,0.613c0,0.402-0.887,0.385-1.171,0.385c-0.266,0-1.152,0.023-1.152-0.361
				c0-0.21,0.291-0.246,0.336-0.438c0.026-0.103,0.155-1.137-0.071-1.137c-0.2,0-0.407,0.529-0.563,0.836
				c-0.143,0.276-0.375,0.962-0.583,0.938c-0.104-0.013-0.155,0-0.543-0.813L41.658,354.142z"/>
			<path fill="#231F20" stroke="#231F20" stroke-width="0.25" stroke-miterlimit="10" d="M49.25,354.395
				c0,1.058,0.389,0.48,0.389,0.806c0,0.342-0.505,0.715-0.977,0.715c-0.511,0-0.524-0.307-0.686-0.307
				c-0.078,0-0.162,0.078-0.304,0.15c-0.143,0.078-0.337,0.156-0.634,0.156c-0.537,0-1.074-0.265-1.074-0.859
				c0-0.427,0.439-0.956,1.578-0.956c0.201,0,0.292,0.012,0.292-0.204c0-0.198-0.006-0.613-0.304-0.613
				c-0.388,0-0.427,0.649-1.003,0.649c-0.207,0-0.362-0.139-0.362-0.331c0-0.511,1.094-0.842,1.708-0.842
				c0.369,0,1.378,0.133,1.378,1.034V354.395z M47.31,354.923c0,0.156,0.09,0.325,0.278,0.325c0.246,0,0.265-0.247,0.265-0.427
				c0-0.133,0.007-0.283-0.174-0.283C47.458,354.539,47.31,354.731,47.31,354.923z"/>
			<path fill="#231F20" stroke="#231F20" stroke-width="0.25" stroke-miterlimit="10" d="M51.661,354.828
				c0,0.583,0.22,0.48,0.22,0.709c0,0.373-0.86,0.361-1.126,0.361c-0.259,0-0.918,0-0.918-0.361c0-0.288,0.297-0.029,0.317-0.619
				l0.026-0.901c0.013-0.445-0.381-0.301-0.381-0.619c0-0.319,1.488-0.619,1.617-0.619c0.143,0,0.233,0.114,0.233,0.234
				c0,0.036-0.006,0.072-0.006,0.108c0,0.071,0.032,0.156,0.129,0.156c0.104,0,0.162-0.127,0.291-0.253
				c0.129-0.12,0.324-0.246,0.692-0.246c1.339,0,1.113,1.22,1.177,2.134c0.032,0.475,0.298,0.367,0.298,0.625
				c0,0.108,0.026,0.361-1.19,0.361c-0.233,0-0.854,0.012-0.854-0.325c0-0.216,0.213-0.114,0.246-0.505
				c0.032-0.427,0.214-1.389-0.395-1.389c-0.414,0-0.375,0.415-0.375,0.686V354.828z"/>
			<path fill="#231F20" stroke="#231F20" stroke-width="0.25" stroke-miterlimit="10" d="M56.244,354.533
				c0,0.24,0.02,0.613,0.369,0.613c0.466,0,0.401-0.564,0.401-0.854c0-0.198,0.006-0.457-0.026-0.649
				c-0.052-0.301-0.369-0.198-0.369-0.451c0-0.354,1.3-0.414,1.546-0.414c0.233,0,0.33,0.126,0.33,0.336
				c0,0.192-0.013,0.379-0.013,0.571v1.209c0,0.36,0.355,0.192,0.355,0.48c0,0.409-1.145,0.523-1.501,0.523
				c-0.498,0-0.168-0.361-0.427-0.361c-0.071,0-0.175,0.091-0.33,0.181s-0.362,0.181-0.647,0.181c-1.229,0-1.125-0.902-1.125-1.804
				c0-0.92-0.446-0.518-0.446-0.914c0-0.385,1.63-0.402,1.682-0.402c0.182,0,0.201,0.078,0.201,0.229V354.533z"/>
			<path fill="#231F20" stroke="#231F20" stroke-width="0.25" stroke-miterlimit="10" d="M59.496,354.275
				c0.013-0.187-0.052-0.283-0.259-0.283c-0.078,0-0.278,0.03-0.278-0.078c0-0.475-0.039-0.529,0.155-0.541
				c0.078-0.006,0.181-0.012,0.181-0.114c0-0.114-0.246-0.337-0.246-0.715c0-0.716,0.795-0.956,1.442-0.956
				c1.055,0,1.301,0.517,1.301,0.775c0,0.252-0.22,0.463-0.492,0.463c-0.563,0-0.634-0.541-1.002-0.541
				c-0.129,0-0.22,0.096-0.22,0.216c0,0.379,0.673,0.506,0.79,0.77c0.019,0.049,0.026,0.066,0.09,0.066
				c0.272,0,0.641-0.066,0.628,0.114l-0.033,0.439c-0.006,0.09-0.078,0.102-0.168,0.102c-0.382,0-0.447-0.006-0.447,0.391
				c0,0.169,0.02,0.379,0.065,0.535c0.117,0.361,0.576,0.169,0.576,0.541c0,0.145-0.013,0.439-1.469,0.439
				c-0.311,0-1.145-0.006-1.145-0.427c0-0.337,0.453-0.181,0.479-0.548L59.496,354.275z"/>
			<path fill="#231F20" stroke="#231F20" stroke-width="0.25" stroke-miterlimit="10" d="M65.171,354.395
				c0,1.058,0.389,0.48,0.389,0.806c0,0.342-0.505,0.715-0.977,0.715c-0.511,0-0.524-0.307-0.686-0.307
				c-0.078,0-0.162,0.078-0.304,0.15c-0.143,0.078-0.337,0.156-0.634,0.156c-0.537,0-1.074-0.265-1.074-0.859
				c0-0.427,0.439-0.956,1.578-0.956c0.201,0,0.292,0.012,0.292-0.204c0-0.198-0.006-0.613-0.304-0.613
				c-0.388,0-0.427,0.649-1.003,0.649c-0.207,0-0.362-0.139-0.362-0.331c0-0.511,1.094-0.842,1.708-0.842
				c0.369,0,1.378,0.133,1.378,1.034V354.395z M63.231,354.923c0,0.156,0.09,0.325,0.278,0.325c0.246,0,0.265-0.247,0.265-0.427
				c0-0.133,0.007-0.283-0.174-0.283C63.379,354.539,63.231,354.731,63.231,354.923z"/>
			<path fill="#231F20" stroke="#231F20" stroke-width="0.25" stroke-miterlimit="10" d="M67.659,352.759
				c0.971,0,1.482,0.499,1.482,0.92c0,0.337-0.272,0.596-0.634,0.596c-0.699,0-0.375-0.746-0.886-0.746
				c-0.285,0-0.44,0.271-0.44,0.511c0,0.445,0.356,0.896,0.867,0.896c0.407,0,0.543-0.156,0.679-0.156
				c0.174,0,0.291,0.18,0.291,0.324c0,0.354-0.583,0.812-1.488,0.812c-0.977,0-1.767-0.667-1.767-1.587
				C65.763,353.462,66.572,352.759,67.659,352.759z"/>
			<path fill="#231F20" stroke="#231F20" stroke-width="0.25" stroke-miterlimit="10" d="M71.33,354.533
				c0,0.403,0.181,0.499,0.356,0.499c0.2,0,0.317-0.138,0.434-0.138c0.129,0,0.219,0.168,0.219,0.276
				c0,0.396-0.737,0.745-1.391,0.745c-0.33,0-1.158-0.132-1.158-1.088v-1.238c0-0.108,0-0.15-0.033-0.169
				c-0.032-0.018-0.104-0.006-0.252-0.006c-0.168,0-0.252,0.006-0.284-0.023c-0.045-0.043-0.033-0.103-0.033-0.241
				c0-0.084-0.019-0.15,0.058-0.198l1.476-0.872c0.148-0.084,0.142-0.065,0.336-0.065c0.259,0,0.272-0.024,0.272,0.252
				c0,0.187-0.013,0.373,0.02,0.445c0.019,0.048,0.064,0.048,0.233,0.048h0.453c0.278,0,0.278,0.019,0.278,0.289
				c0,0.343-0.045,0.366-0.297,0.366h-0.447c-0.226,0-0.239,0.006-0.239,0.223V354.533z"/>
			<path fill="#231F20" stroke="#231F20" stroke-width="0.25" stroke-miterlimit="10" d="M72.503,354.443
				c0-1.076,1.016-1.684,2.084-1.684c1.132,0,1.779,0.824,1.779,1.569c0,0.986-1.139,1.587-2.09,1.587
				C73.318,355.916,72.503,355.393,72.503,354.443z M74.308,353.469c-0.213,0-0.33,0.186-0.316,0.36
				c0.025,0.379,0.143,1.305,0.589,1.328c0.245,0.013,0.298-0.18,0.298-0.372C74.878,354.515,74.748,353.469,74.308,353.469z"/>
			<path fill="#231F20" stroke="#231F20" stroke-width="0.25" stroke-miterlimit="10" d="M76.989,354.01c0-0.59-0.4-0.259-0.4-0.626
				c0-0.475,1.514-0.606,1.572-0.606c0.245,0,0.252,0.06,0.277,0.265c0.007,0.071,0,0.21,0.11,0.21c0.155,0,0.253-0.475,0.809-0.475
				c0.434,0,0.718,0.3,0.718,0.697c0,0.402-0.369,0.722-0.795,0.722c-0.421,0-0.537-0.343-0.705-0.343
				c-0.182,0-0.149,0.402-0.149,0.511c0,0.181,0.02,0.433,0.052,0.661c0.039,0.265,0.531,0.103,0.531,0.463
				c0,0.379-0.57,0.409-1.281,0.409c-0.299,0-1.178,0.012-1.178-0.403c0-0.252,0.297-0.252,0.369-0.463
				c0.051-0.15,0.07-0.493,0.07-0.661V354.01z"/>
			<path fill="#231F20" stroke="#231F20" stroke-width="0.25" stroke-miterlimit="10" d="M83.003,355.327
				c-0.316,0.8-0.73,1.581-1.786,1.581c-0.466,0-1.016-0.223-1.016-0.722c0-0.301,0.245-0.553,0.575-0.553
				c0.602,0,0.434,0.637,0.699,0.637c0.175,0,0.252-0.156,0.252-0.294c0-0.169-0.129-0.397-0.207-0.547l-0.905-1.762
				c-0.123-0.24-0.491-0.169-0.491-0.445c0-0.18,0.115-0.444,1.48-0.444c0.246,0,0.828,0.023,0.828,0.366
				c0,0.162-0.148,0.211-0.148,0.354c0,0.229,0.285,0.649,0.395,0.649c0.195,0,0.33-0.415,0.33-0.559
				c0-0.271-0.207-0.253-0.207-0.457c0-0.318,0.609-0.354,0.842-0.354c0.213,0,0.691,0.029,0.691,0.307
				c0,0.354-0.389,0.198-0.613,0.553c-0.143,0.21-0.246,0.475-0.338,0.709L83.003,355.327z"/>
		</g>
		<path id="path10031" fill="none" stroke="#000000" stroke-width="0.5" d="M94.518,346.919c0,2.188-1.774,3.964-3.963,3.964
			c-2.189,0-3.965-1.775-3.965-3.964s1.775-3.963,3.965-3.963C92.743,342.957,94.518,344.731,94.518,346.919z M104,353.249
			c0,2.189-1.776,3.964-3.964,3.964c-2.189,0-3.963-1.774-3.963-3.964c0-2.188,1.773-3.963,3.963-3.963
			C102.224,349.286,104,351.06,104,353.249z"/>
		<path id="path12694" fill="none" stroke="#000000" stroke-width="0.5" d="M82.844,352.904h15.516 M87.671,340.885v3.152
			l3.442,1.119 M91.07,348.521l-3.35,1.329v3.104 M92.301,346.894h10.69v3.498l-3.4,1.28 M99.591,354.923l3.35,1.134v3.939"/>
		<path id="path12704" d="M88.312,352.879c0,0.34-0.275,0.615-0.616,0.615c-0.34,0-0.615-0.275-0.615-0.615s0.275-0.615,0.615-0.615
			C88.036,352.264,88.312,352.54,88.312,352.879z M91.067,343.986h1.286v5.719h-1.286V343.986z M98.357,350.34h1.286v5.72h-1.286
			V350.34z M89.693,344.358l-0.198,0.661l1.608,0.124L89.693,344.358z M101.548,355.221l-0.199,0.66l1.608,0.124L101.548,355.221z"
			/>
	</g>
</g>
</svg>
