%TF.GenerationSoftware,KiCad,Pcbnew,7.0.7*%
%TF.CreationDate,2023-08-27T18:28:51+09:00*%
%TF.ProjectId,3340VCO_Panel,33333430-5643-44f5-9f50-616e656c2e6b,rev?*%
%TF.SameCoordinates,Original*%
%TF.FileFunction,Drillmap*%
%TF.FilePolarity,Positive*%
%FSLAX45Y45*%
G04 Gerber Fmt 4.5, Leading zero omitted, Abs format (unit mm)*
G04 Created by KiCad (PCBNEW 7.0.7) date 2023-08-27 18:28:51*
%MOMM*%
%LPD*%
G01*
G04 APERTURE LIST*
%ADD10C,0.100000*%
%ADD11C,0.200000*%
%ADD12C,0.250000*%
%ADD13C,0.320000*%
%ADD14C,0.620000*%
%ADD15C,0.750000*%
%ADD16C,0.930000*%
G04 APERTURE END LIST*
D10*
X9250000Y-3850000D02*
X14300000Y-3850000D01*
X14300000Y-16700000D01*
X9250000Y-16700000D01*
X9250000Y-3850000D01*
D11*
D12*
X10562500Y-8857000D02*
X10812500Y-9107000D01*
X10812500Y-8857000D02*
X10562500Y-9107000D01*
D13*
X10160000Y-4150000D02*
G75*
G03*
X10160000Y-4150000I-160000J0D01*
G01*
X10160000Y-16400000D02*
G75*
G03*
X10160000Y-16400000I-160000J0D01*
G01*
X13716000Y-4150000D02*
G75*
G03*
X13716000Y-4150000I-160000J0D01*
G01*
X13716000Y-16400000D02*
G75*
G03*
X13716000Y-16400000I-160000J0D01*
G01*
D14*
X10050000Y-9954000D02*
X10050000Y-10574000D01*
X9740000Y-10264000D02*
X10360000Y-10264000D01*
X10050000Y-11986000D02*
X10050000Y-12606000D01*
X9740000Y-12296000D02*
X10360000Y-12296000D01*
X10050000Y-14018000D02*
X10050000Y-14638000D01*
X9740000Y-14328000D02*
X10360000Y-14328000D01*
X10687500Y-5896000D02*
X10687500Y-6516000D01*
X10377500Y-6206000D02*
X10997500Y-6206000D01*
X11475000Y-9954000D02*
X11475000Y-10574000D01*
X11165000Y-10264000D02*
X11785000Y-10264000D01*
X11475000Y-11986000D02*
X11475000Y-12606000D01*
X11165000Y-12296000D02*
X11785000Y-12296000D01*
X11475000Y-14018000D02*
X11475000Y-14638000D01*
X11165000Y-14328000D02*
X11785000Y-14328000D01*
D15*
X13465168Y-6471168D02*
X13465168Y-5940832D01*
X12934832Y-5940832D01*
X12934832Y-6471168D01*
X13465168Y-6471168D01*
X13465168Y-8497168D02*
X13465168Y-7966832D01*
X12934832Y-7966832D01*
X12934832Y-8497168D01*
X13465168Y-8497168D01*
X13465168Y-10529168D02*
X13465168Y-9998832D01*
X12934832Y-9998832D01*
X12934832Y-10529168D01*
X13465168Y-10529168D01*
X13465168Y-12561168D02*
X13465168Y-12030832D01*
X12934832Y-12030832D01*
X12934832Y-12561168D01*
X13465168Y-12561168D01*
X13465168Y-14593168D02*
X13465168Y-14062832D01*
X12934832Y-14062832D01*
X12934832Y-14593168D01*
X13465168Y-14593168D01*
D16*
X10672777Y-8706984D02*
X11137777Y-8241984D01*
X10672777Y-7776984D01*
X10207777Y-8241984D01*
X10672777Y-8706984D01*
D11*
X9505777Y-17016484D02*
X9505777Y-16816484D01*
X9505777Y-16816484D02*
X9553396Y-16816484D01*
X9553396Y-16816484D02*
X9581967Y-16826008D01*
X9581967Y-16826008D02*
X9601015Y-16845055D01*
X9601015Y-16845055D02*
X9610539Y-16864103D01*
X9610539Y-16864103D02*
X9620063Y-16902198D01*
X9620063Y-16902198D02*
X9620063Y-16930770D01*
X9620063Y-16930770D02*
X9610539Y-16968865D01*
X9610539Y-16968865D02*
X9601015Y-16987912D01*
X9601015Y-16987912D02*
X9581967Y-17006960D01*
X9581967Y-17006960D02*
X9553396Y-17016484D01*
X9553396Y-17016484D02*
X9505777Y-17016484D01*
X9705777Y-17016484D02*
X9705777Y-16883150D01*
X9705777Y-16921246D02*
X9715301Y-16902198D01*
X9715301Y-16902198D02*
X9724824Y-16892674D01*
X9724824Y-16892674D02*
X9743872Y-16883150D01*
X9743872Y-16883150D02*
X9762920Y-16883150D01*
X9829586Y-17016484D02*
X9829586Y-16883150D01*
X9829586Y-16816484D02*
X9820063Y-16826008D01*
X9820063Y-16826008D02*
X9829586Y-16835531D01*
X9829586Y-16835531D02*
X9839110Y-16826008D01*
X9839110Y-16826008D02*
X9829586Y-16816484D01*
X9829586Y-16816484D02*
X9829586Y-16835531D01*
X9953396Y-17016484D02*
X9934348Y-17006960D01*
X9934348Y-17006960D02*
X9924824Y-16987912D01*
X9924824Y-16987912D02*
X9924824Y-16816484D01*
X10058158Y-17016484D02*
X10039110Y-17006960D01*
X10039110Y-17006960D02*
X10029586Y-16987912D01*
X10029586Y-16987912D02*
X10029586Y-16816484D01*
X10286729Y-17016484D02*
X10286729Y-16816484D01*
X10286729Y-16816484D02*
X10353396Y-16959341D01*
X10353396Y-16959341D02*
X10420063Y-16816484D01*
X10420063Y-16816484D02*
X10420063Y-17016484D01*
X10601015Y-17016484D02*
X10601015Y-16911722D01*
X10601015Y-16911722D02*
X10591491Y-16892674D01*
X10591491Y-16892674D02*
X10572444Y-16883150D01*
X10572444Y-16883150D02*
X10534348Y-16883150D01*
X10534348Y-16883150D02*
X10515301Y-16892674D01*
X10601015Y-17006960D02*
X10581967Y-17016484D01*
X10581967Y-17016484D02*
X10534348Y-17016484D01*
X10534348Y-17016484D02*
X10515301Y-17006960D01*
X10515301Y-17006960D02*
X10505777Y-16987912D01*
X10505777Y-16987912D02*
X10505777Y-16968865D01*
X10505777Y-16968865D02*
X10515301Y-16949817D01*
X10515301Y-16949817D02*
X10534348Y-16940293D01*
X10534348Y-16940293D02*
X10581967Y-16940293D01*
X10581967Y-16940293D02*
X10601015Y-16930770D01*
X10696253Y-16883150D02*
X10696253Y-17083150D01*
X10696253Y-16892674D02*
X10715301Y-16883150D01*
X10715301Y-16883150D02*
X10753396Y-16883150D01*
X10753396Y-16883150D02*
X10772444Y-16892674D01*
X10772444Y-16892674D02*
X10781967Y-16902198D01*
X10781967Y-16902198D02*
X10791491Y-16921246D01*
X10791491Y-16921246D02*
X10791491Y-16978389D01*
X10791491Y-16978389D02*
X10781967Y-16997436D01*
X10781967Y-16997436D02*
X10772444Y-17006960D01*
X10772444Y-17006960D02*
X10753396Y-17016484D01*
X10753396Y-17016484D02*
X10715301Y-17016484D01*
X10715301Y-17016484D02*
X10696253Y-17006960D01*
X10877205Y-16997436D02*
X10886729Y-17006960D01*
X10886729Y-17006960D02*
X10877205Y-17016484D01*
X10877205Y-17016484D02*
X10867682Y-17006960D01*
X10867682Y-17006960D02*
X10877205Y-16997436D01*
X10877205Y-16997436D02*
X10877205Y-17016484D01*
X10877205Y-16892674D02*
X10886729Y-16902198D01*
X10886729Y-16902198D02*
X10877205Y-16911722D01*
X10877205Y-16911722D02*
X10867682Y-16902198D01*
X10867682Y-16902198D02*
X10877205Y-16892674D01*
X10877205Y-16892674D02*
X10877205Y-16911722D01*
X9045000Y-17245000D02*
X9245000Y-17445000D01*
X9245000Y-17245000D02*
X9045000Y-17445000D01*
X9496253Y-17255531D02*
X9505777Y-17246008D01*
X9505777Y-17246008D02*
X9524824Y-17236484D01*
X9524824Y-17236484D02*
X9572444Y-17236484D01*
X9572444Y-17236484D02*
X9591491Y-17246008D01*
X9591491Y-17246008D02*
X9601015Y-17255531D01*
X9601015Y-17255531D02*
X9610539Y-17274579D01*
X9610539Y-17274579D02*
X9610539Y-17293627D01*
X9610539Y-17293627D02*
X9601015Y-17322198D01*
X9601015Y-17322198D02*
X9486729Y-17436484D01*
X9486729Y-17436484D02*
X9610539Y-17436484D01*
X9696253Y-17417436D02*
X9705777Y-17426960D01*
X9705777Y-17426960D02*
X9696253Y-17436484D01*
X9696253Y-17436484D02*
X9686729Y-17426960D01*
X9686729Y-17426960D02*
X9696253Y-17417436D01*
X9696253Y-17417436D02*
X9696253Y-17436484D01*
X9886729Y-17236484D02*
X9791491Y-17236484D01*
X9791491Y-17236484D02*
X9781967Y-17331722D01*
X9781967Y-17331722D02*
X9791491Y-17322198D01*
X9791491Y-17322198D02*
X9810539Y-17312674D01*
X9810539Y-17312674D02*
X9858158Y-17312674D01*
X9858158Y-17312674D02*
X9877205Y-17322198D01*
X9877205Y-17322198D02*
X9886729Y-17331722D01*
X9886729Y-17331722D02*
X9896253Y-17350770D01*
X9896253Y-17350770D02*
X9896253Y-17398389D01*
X9896253Y-17398389D02*
X9886729Y-17417436D01*
X9886729Y-17417436D02*
X9877205Y-17426960D01*
X9877205Y-17426960D02*
X9858158Y-17436484D01*
X9858158Y-17436484D02*
X9810539Y-17436484D01*
X9810539Y-17436484D02*
X9791491Y-17426960D01*
X9791491Y-17426960D02*
X9781967Y-17417436D01*
X10020063Y-17236484D02*
X10039110Y-17236484D01*
X10039110Y-17236484D02*
X10058158Y-17246008D01*
X10058158Y-17246008D02*
X10067682Y-17255531D01*
X10067682Y-17255531D02*
X10077205Y-17274579D01*
X10077205Y-17274579D02*
X10086729Y-17312674D01*
X10086729Y-17312674D02*
X10086729Y-17360293D01*
X10086729Y-17360293D02*
X10077205Y-17398389D01*
X10077205Y-17398389D02*
X10067682Y-17417436D01*
X10067682Y-17417436D02*
X10058158Y-17426960D01*
X10058158Y-17426960D02*
X10039110Y-17436484D01*
X10039110Y-17436484D02*
X10020063Y-17436484D01*
X10020063Y-17436484D02*
X10001015Y-17426960D01*
X10001015Y-17426960D02*
X9991491Y-17417436D01*
X9991491Y-17417436D02*
X9981967Y-17398389D01*
X9981967Y-17398389D02*
X9972444Y-17360293D01*
X9972444Y-17360293D02*
X9972444Y-17312674D01*
X9972444Y-17312674D02*
X9981967Y-17274579D01*
X9981967Y-17274579D02*
X9991491Y-17255531D01*
X9991491Y-17255531D02*
X10001015Y-17246008D01*
X10001015Y-17246008D02*
X10020063Y-17236484D01*
X10210539Y-17236484D02*
X10229586Y-17236484D01*
X10229586Y-17236484D02*
X10248634Y-17246008D01*
X10248634Y-17246008D02*
X10258158Y-17255531D01*
X10258158Y-17255531D02*
X10267682Y-17274579D01*
X10267682Y-17274579D02*
X10277205Y-17312674D01*
X10277205Y-17312674D02*
X10277205Y-17360293D01*
X10277205Y-17360293D02*
X10267682Y-17398389D01*
X10267682Y-17398389D02*
X10258158Y-17417436D01*
X10258158Y-17417436D02*
X10248634Y-17426960D01*
X10248634Y-17426960D02*
X10229586Y-17436484D01*
X10229586Y-17436484D02*
X10210539Y-17436484D01*
X10210539Y-17436484D02*
X10191491Y-17426960D01*
X10191491Y-17426960D02*
X10181967Y-17417436D01*
X10181967Y-17417436D02*
X10172444Y-17398389D01*
X10172444Y-17398389D02*
X10162920Y-17360293D01*
X10162920Y-17360293D02*
X10162920Y-17312674D01*
X10162920Y-17312674D02*
X10172444Y-17274579D01*
X10172444Y-17274579D02*
X10181967Y-17255531D01*
X10181967Y-17255531D02*
X10191491Y-17246008D01*
X10191491Y-17246008D02*
X10210539Y-17236484D01*
X10362920Y-17436484D02*
X10362920Y-17303150D01*
X10362920Y-17322198D02*
X10372444Y-17312674D01*
X10372444Y-17312674D02*
X10391491Y-17303150D01*
X10391491Y-17303150D02*
X10420063Y-17303150D01*
X10420063Y-17303150D02*
X10439110Y-17312674D01*
X10439110Y-17312674D02*
X10448634Y-17331722D01*
X10448634Y-17331722D02*
X10448634Y-17436484D01*
X10448634Y-17331722D02*
X10458158Y-17312674D01*
X10458158Y-17312674D02*
X10477205Y-17303150D01*
X10477205Y-17303150D02*
X10505777Y-17303150D01*
X10505777Y-17303150D02*
X10524825Y-17312674D01*
X10524825Y-17312674D02*
X10534348Y-17331722D01*
X10534348Y-17331722D02*
X10534348Y-17436484D01*
X10629586Y-17436484D02*
X10629586Y-17303150D01*
X10629586Y-17322198D02*
X10639110Y-17312674D01*
X10639110Y-17312674D02*
X10658158Y-17303150D01*
X10658158Y-17303150D02*
X10686729Y-17303150D01*
X10686729Y-17303150D02*
X10705777Y-17312674D01*
X10705777Y-17312674D02*
X10715301Y-17331722D01*
X10715301Y-17331722D02*
X10715301Y-17436484D01*
X10715301Y-17331722D02*
X10724825Y-17312674D01*
X10724825Y-17312674D02*
X10743872Y-17303150D01*
X10743872Y-17303150D02*
X10772444Y-17303150D01*
X10772444Y-17303150D02*
X10791491Y-17312674D01*
X10791491Y-17312674D02*
X10801015Y-17331722D01*
X10801015Y-17331722D02*
X10801015Y-17436484D01*
X11191491Y-17226960D02*
X11020063Y-17484103D01*
X11448634Y-17236484D02*
X11467682Y-17236484D01*
X11467682Y-17236484D02*
X11486729Y-17246008D01*
X11486729Y-17246008D02*
X11496253Y-17255531D01*
X11496253Y-17255531D02*
X11505777Y-17274579D01*
X11505777Y-17274579D02*
X11515301Y-17312674D01*
X11515301Y-17312674D02*
X11515301Y-17360293D01*
X11515301Y-17360293D02*
X11505777Y-17398389D01*
X11505777Y-17398389D02*
X11496253Y-17417436D01*
X11496253Y-17417436D02*
X11486729Y-17426960D01*
X11486729Y-17426960D02*
X11467682Y-17436484D01*
X11467682Y-17436484D02*
X11448634Y-17436484D01*
X11448634Y-17436484D02*
X11429586Y-17426960D01*
X11429586Y-17426960D02*
X11420063Y-17417436D01*
X11420063Y-17417436D02*
X11410539Y-17398389D01*
X11410539Y-17398389D02*
X11401015Y-17360293D01*
X11401015Y-17360293D02*
X11401015Y-17312674D01*
X11401015Y-17312674D02*
X11410539Y-17274579D01*
X11410539Y-17274579D02*
X11420063Y-17255531D01*
X11420063Y-17255531D02*
X11429586Y-17246008D01*
X11429586Y-17246008D02*
X11448634Y-17236484D01*
X11601015Y-17417436D02*
X11610539Y-17426960D01*
X11610539Y-17426960D02*
X11601015Y-17436484D01*
X11601015Y-17436484D02*
X11591491Y-17426960D01*
X11591491Y-17426960D02*
X11601015Y-17417436D01*
X11601015Y-17417436D02*
X11601015Y-17436484D01*
X11734348Y-17236484D02*
X11753396Y-17236484D01*
X11753396Y-17236484D02*
X11772444Y-17246008D01*
X11772444Y-17246008D02*
X11781967Y-17255531D01*
X11781967Y-17255531D02*
X11791491Y-17274579D01*
X11791491Y-17274579D02*
X11801015Y-17312674D01*
X11801015Y-17312674D02*
X11801015Y-17360293D01*
X11801015Y-17360293D02*
X11791491Y-17398389D01*
X11791491Y-17398389D02*
X11781967Y-17417436D01*
X11781967Y-17417436D02*
X11772444Y-17426960D01*
X11772444Y-17426960D02*
X11753396Y-17436484D01*
X11753396Y-17436484D02*
X11734348Y-17436484D01*
X11734348Y-17436484D02*
X11715301Y-17426960D01*
X11715301Y-17426960D02*
X11705777Y-17417436D01*
X11705777Y-17417436D02*
X11696253Y-17398389D01*
X11696253Y-17398389D02*
X11686729Y-17360293D01*
X11686729Y-17360293D02*
X11686729Y-17312674D01*
X11686729Y-17312674D02*
X11696253Y-17274579D01*
X11696253Y-17274579D02*
X11705777Y-17255531D01*
X11705777Y-17255531D02*
X11715301Y-17246008D01*
X11715301Y-17246008D02*
X11734348Y-17236484D01*
X11896253Y-17436484D02*
X11934348Y-17436484D01*
X11934348Y-17436484D02*
X11953396Y-17426960D01*
X11953396Y-17426960D02*
X11962920Y-17417436D01*
X11962920Y-17417436D02*
X11981967Y-17388865D01*
X11981967Y-17388865D02*
X11991491Y-17350770D01*
X11991491Y-17350770D02*
X11991491Y-17274579D01*
X11991491Y-17274579D02*
X11981967Y-17255531D01*
X11981967Y-17255531D02*
X11972444Y-17246008D01*
X11972444Y-17246008D02*
X11953396Y-17236484D01*
X11953396Y-17236484D02*
X11915301Y-17236484D01*
X11915301Y-17236484D02*
X11896253Y-17246008D01*
X11896253Y-17246008D02*
X11886729Y-17255531D01*
X11886729Y-17255531D02*
X11877206Y-17274579D01*
X11877206Y-17274579D02*
X11877206Y-17322198D01*
X11877206Y-17322198D02*
X11886729Y-17341246D01*
X11886729Y-17341246D02*
X11896253Y-17350770D01*
X11896253Y-17350770D02*
X11915301Y-17360293D01*
X11915301Y-17360293D02*
X11953396Y-17360293D01*
X11953396Y-17360293D02*
X11972444Y-17350770D01*
X11972444Y-17350770D02*
X11981967Y-17341246D01*
X11981967Y-17341246D02*
X11991491Y-17322198D01*
X12105777Y-17322198D02*
X12086729Y-17312674D01*
X12086729Y-17312674D02*
X12077206Y-17303150D01*
X12077206Y-17303150D02*
X12067682Y-17284103D01*
X12067682Y-17284103D02*
X12067682Y-17274579D01*
X12067682Y-17274579D02*
X12077206Y-17255531D01*
X12077206Y-17255531D02*
X12086729Y-17246008D01*
X12086729Y-17246008D02*
X12105777Y-17236484D01*
X12105777Y-17236484D02*
X12143872Y-17236484D01*
X12143872Y-17236484D02*
X12162920Y-17246008D01*
X12162920Y-17246008D02*
X12172444Y-17255531D01*
X12172444Y-17255531D02*
X12181967Y-17274579D01*
X12181967Y-17274579D02*
X12181967Y-17284103D01*
X12181967Y-17284103D02*
X12172444Y-17303150D01*
X12172444Y-17303150D02*
X12162920Y-17312674D01*
X12162920Y-17312674D02*
X12143872Y-17322198D01*
X12143872Y-17322198D02*
X12105777Y-17322198D01*
X12105777Y-17322198D02*
X12086729Y-17331722D01*
X12086729Y-17331722D02*
X12077206Y-17341246D01*
X12077206Y-17341246D02*
X12067682Y-17360293D01*
X12067682Y-17360293D02*
X12067682Y-17398389D01*
X12067682Y-17398389D02*
X12077206Y-17417436D01*
X12077206Y-17417436D02*
X12086729Y-17426960D01*
X12086729Y-17426960D02*
X12105777Y-17436484D01*
X12105777Y-17436484D02*
X12143872Y-17436484D01*
X12143872Y-17436484D02*
X12162920Y-17426960D01*
X12162920Y-17426960D02*
X12172444Y-17417436D01*
X12172444Y-17417436D02*
X12181967Y-17398389D01*
X12181967Y-17398389D02*
X12181967Y-17360293D01*
X12181967Y-17360293D02*
X12172444Y-17341246D01*
X12172444Y-17341246D02*
X12162920Y-17331722D01*
X12162920Y-17331722D02*
X12143872Y-17322198D01*
X12353396Y-17303150D02*
X12353396Y-17436484D01*
X12305777Y-17226960D02*
X12258158Y-17369817D01*
X12258158Y-17369817D02*
X12381967Y-17369817D01*
X12448634Y-17236484D02*
X12448634Y-17274579D01*
X12524825Y-17236484D02*
X12524825Y-17274579D01*
X12820063Y-17512674D02*
X12810539Y-17503150D01*
X12810539Y-17503150D02*
X12791491Y-17474579D01*
X12791491Y-17474579D02*
X12781968Y-17455531D01*
X12781968Y-17455531D02*
X12772444Y-17426960D01*
X12772444Y-17426960D02*
X12762920Y-17379341D01*
X12762920Y-17379341D02*
X12762920Y-17341246D01*
X12762920Y-17341246D02*
X12772444Y-17293627D01*
X12772444Y-17293627D02*
X12781968Y-17265055D01*
X12781968Y-17265055D02*
X12791491Y-17246008D01*
X12791491Y-17246008D02*
X12810539Y-17217436D01*
X12810539Y-17217436D02*
X12820063Y-17207912D01*
X13001015Y-17436484D02*
X12886729Y-17436484D01*
X12943872Y-17436484D02*
X12943872Y-17236484D01*
X12943872Y-17236484D02*
X12924825Y-17265055D01*
X12924825Y-17265055D02*
X12905777Y-17284103D01*
X12905777Y-17284103D02*
X12886729Y-17293627D01*
X13239110Y-17436484D02*
X13239110Y-17236484D01*
X13324825Y-17436484D02*
X13324825Y-17331722D01*
X13324825Y-17331722D02*
X13315301Y-17312674D01*
X13315301Y-17312674D02*
X13296253Y-17303150D01*
X13296253Y-17303150D02*
X13267682Y-17303150D01*
X13267682Y-17303150D02*
X13248634Y-17312674D01*
X13248634Y-17312674D02*
X13239110Y-17322198D01*
X13448634Y-17436484D02*
X13429587Y-17426960D01*
X13429587Y-17426960D02*
X13420063Y-17417436D01*
X13420063Y-17417436D02*
X13410539Y-17398389D01*
X13410539Y-17398389D02*
X13410539Y-17341246D01*
X13410539Y-17341246D02*
X13420063Y-17322198D01*
X13420063Y-17322198D02*
X13429587Y-17312674D01*
X13429587Y-17312674D02*
X13448634Y-17303150D01*
X13448634Y-17303150D02*
X13477206Y-17303150D01*
X13477206Y-17303150D02*
X13496253Y-17312674D01*
X13496253Y-17312674D02*
X13505777Y-17322198D01*
X13505777Y-17322198D02*
X13515301Y-17341246D01*
X13515301Y-17341246D02*
X13515301Y-17398389D01*
X13515301Y-17398389D02*
X13505777Y-17417436D01*
X13505777Y-17417436D02*
X13496253Y-17426960D01*
X13496253Y-17426960D02*
X13477206Y-17436484D01*
X13477206Y-17436484D02*
X13448634Y-17436484D01*
X13629587Y-17436484D02*
X13610539Y-17426960D01*
X13610539Y-17426960D02*
X13601015Y-17407912D01*
X13601015Y-17407912D02*
X13601015Y-17236484D01*
X13781968Y-17426960D02*
X13762920Y-17436484D01*
X13762920Y-17436484D02*
X13724825Y-17436484D01*
X13724825Y-17436484D02*
X13705777Y-17426960D01*
X13705777Y-17426960D02*
X13696253Y-17407912D01*
X13696253Y-17407912D02*
X13696253Y-17331722D01*
X13696253Y-17331722D02*
X13705777Y-17312674D01*
X13705777Y-17312674D02*
X13724825Y-17303150D01*
X13724825Y-17303150D02*
X13762920Y-17303150D01*
X13762920Y-17303150D02*
X13781968Y-17312674D01*
X13781968Y-17312674D02*
X13791491Y-17331722D01*
X13791491Y-17331722D02*
X13791491Y-17350770D01*
X13791491Y-17350770D02*
X13696253Y-17369817D01*
X13858158Y-17512674D02*
X13867682Y-17503150D01*
X13867682Y-17503150D02*
X13886730Y-17474579D01*
X13886730Y-17474579D02*
X13896253Y-17455531D01*
X13896253Y-17455531D02*
X13905777Y-17426960D01*
X13905777Y-17426960D02*
X13915301Y-17379341D01*
X13915301Y-17379341D02*
X13915301Y-17341246D01*
X13915301Y-17341246D02*
X13905777Y-17293627D01*
X13905777Y-17293627D02*
X13896253Y-17265055D01*
X13896253Y-17265055D02*
X13886730Y-17246008D01*
X13886730Y-17246008D02*
X13867682Y-17217436D01*
X13867682Y-17217436D02*
X13858158Y-17207912D01*
X14220063Y-17512674D02*
X14210539Y-17503150D01*
X14210539Y-17503150D02*
X14191491Y-17474579D01*
X14191491Y-17474579D02*
X14181968Y-17455531D01*
X14181968Y-17455531D02*
X14172444Y-17426960D01*
X14172444Y-17426960D02*
X14162920Y-17379341D01*
X14162920Y-17379341D02*
X14162920Y-17341246D01*
X14162920Y-17341246D02*
X14172444Y-17293627D01*
X14172444Y-17293627D02*
X14181968Y-17265055D01*
X14181968Y-17265055D02*
X14191491Y-17246008D01*
X14191491Y-17246008D02*
X14210539Y-17217436D01*
X14210539Y-17217436D02*
X14220063Y-17207912D01*
X14296253Y-17303150D02*
X14296253Y-17436484D01*
X14296253Y-17322198D02*
X14305777Y-17312674D01*
X14305777Y-17312674D02*
X14324825Y-17303150D01*
X14324825Y-17303150D02*
X14353396Y-17303150D01*
X14353396Y-17303150D02*
X14372444Y-17312674D01*
X14372444Y-17312674D02*
X14381968Y-17331722D01*
X14381968Y-17331722D02*
X14381968Y-17436484D01*
X14505777Y-17436484D02*
X14486730Y-17426960D01*
X14486730Y-17426960D02*
X14477206Y-17417436D01*
X14477206Y-17417436D02*
X14467682Y-17398389D01*
X14467682Y-17398389D02*
X14467682Y-17341246D01*
X14467682Y-17341246D02*
X14477206Y-17322198D01*
X14477206Y-17322198D02*
X14486730Y-17312674D01*
X14486730Y-17312674D02*
X14505777Y-17303150D01*
X14505777Y-17303150D02*
X14534349Y-17303150D01*
X14534349Y-17303150D02*
X14553396Y-17312674D01*
X14553396Y-17312674D02*
X14562920Y-17322198D01*
X14562920Y-17322198D02*
X14572444Y-17341246D01*
X14572444Y-17341246D02*
X14572444Y-17398389D01*
X14572444Y-17398389D02*
X14562920Y-17417436D01*
X14562920Y-17417436D02*
X14553396Y-17426960D01*
X14553396Y-17426960D02*
X14534349Y-17436484D01*
X14534349Y-17436484D02*
X14505777Y-17436484D01*
X14629587Y-17303150D02*
X14705777Y-17303150D01*
X14658158Y-17236484D02*
X14658158Y-17407912D01*
X14658158Y-17407912D02*
X14667682Y-17426960D01*
X14667682Y-17426960D02*
X14686730Y-17436484D01*
X14686730Y-17436484D02*
X14705777Y-17436484D01*
X14924825Y-17303150D02*
X14924825Y-17503150D01*
X14924825Y-17312674D02*
X14943872Y-17303150D01*
X14943872Y-17303150D02*
X14981968Y-17303150D01*
X14981968Y-17303150D02*
X15001015Y-17312674D01*
X15001015Y-17312674D02*
X15010539Y-17322198D01*
X15010539Y-17322198D02*
X15020063Y-17341246D01*
X15020063Y-17341246D02*
X15020063Y-17398389D01*
X15020063Y-17398389D02*
X15010539Y-17417436D01*
X15010539Y-17417436D02*
X15001015Y-17426960D01*
X15001015Y-17426960D02*
X14981968Y-17436484D01*
X14981968Y-17436484D02*
X14943872Y-17436484D01*
X14943872Y-17436484D02*
X14924825Y-17426960D01*
X15134349Y-17436484D02*
X15115301Y-17426960D01*
X15115301Y-17426960D02*
X15105777Y-17407912D01*
X15105777Y-17407912D02*
X15105777Y-17236484D01*
X15296253Y-17436484D02*
X15296253Y-17331722D01*
X15296253Y-17331722D02*
X15286730Y-17312674D01*
X15286730Y-17312674D02*
X15267682Y-17303150D01*
X15267682Y-17303150D02*
X15229587Y-17303150D01*
X15229587Y-17303150D02*
X15210539Y-17312674D01*
X15296253Y-17426960D02*
X15277206Y-17436484D01*
X15277206Y-17436484D02*
X15229587Y-17436484D01*
X15229587Y-17436484D02*
X15210539Y-17426960D01*
X15210539Y-17426960D02*
X15201015Y-17407912D01*
X15201015Y-17407912D02*
X15201015Y-17388865D01*
X15201015Y-17388865D02*
X15210539Y-17369817D01*
X15210539Y-17369817D02*
X15229587Y-17360293D01*
X15229587Y-17360293D02*
X15277206Y-17360293D01*
X15277206Y-17360293D02*
X15296253Y-17350770D01*
X15362920Y-17303150D02*
X15439111Y-17303150D01*
X15391492Y-17236484D02*
X15391492Y-17407912D01*
X15391492Y-17407912D02*
X15401015Y-17426960D01*
X15401015Y-17426960D02*
X15420063Y-17436484D01*
X15420063Y-17436484D02*
X15439111Y-17436484D01*
X15581968Y-17426960D02*
X15562920Y-17436484D01*
X15562920Y-17436484D02*
X15524825Y-17436484D01*
X15524825Y-17436484D02*
X15505777Y-17426960D01*
X15505777Y-17426960D02*
X15496253Y-17407912D01*
X15496253Y-17407912D02*
X15496253Y-17331722D01*
X15496253Y-17331722D02*
X15505777Y-17312674D01*
X15505777Y-17312674D02*
X15524825Y-17303150D01*
X15524825Y-17303150D02*
X15562920Y-17303150D01*
X15562920Y-17303150D02*
X15581968Y-17312674D01*
X15581968Y-17312674D02*
X15591492Y-17331722D01*
X15591492Y-17331722D02*
X15591492Y-17350770D01*
X15591492Y-17350770D02*
X15496253Y-17369817D01*
X15762920Y-17436484D02*
X15762920Y-17236484D01*
X15762920Y-17426960D02*
X15743873Y-17436484D01*
X15743873Y-17436484D02*
X15705777Y-17436484D01*
X15705777Y-17436484D02*
X15686730Y-17426960D01*
X15686730Y-17426960D02*
X15677206Y-17417436D01*
X15677206Y-17417436D02*
X15667682Y-17398389D01*
X15667682Y-17398389D02*
X15667682Y-17341246D01*
X15667682Y-17341246D02*
X15677206Y-17322198D01*
X15677206Y-17322198D02*
X15686730Y-17312674D01*
X15686730Y-17312674D02*
X15705777Y-17303150D01*
X15705777Y-17303150D02*
X15743873Y-17303150D01*
X15743873Y-17303150D02*
X15762920Y-17312674D01*
X15839111Y-17512674D02*
X15848634Y-17503150D01*
X15848634Y-17503150D02*
X15867682Y-17474579D01*
X15867682Y-17474579D02*
X15877206Y-17455531D01*
X15877206Y-17455531D02*
X15886730Y-17426960D01*
X15886730Y-17426960D02*
X15896253Y-17379341D01*
X15896253Y-17379341D02*
X15896253Y-17341246D01*
X15896253Y-17341246D02*
X15886730Y-17293627D01*
X15886730Y-17293627D02*
X15877206Y-17265055D01*
X15877206Y-17265055D02*
X15867682Y-17246008D01*
X15867682Y-17246008D02*
X15848634Y-17217436D01*
X15848634Y-17217436D02*
X15839111Y-17207912D01*
X9245000Y-17665000D02*
G75*
G03*
X9245000Y-17665000I-100000J0D01*
G01*
X9486729Y-17556484D02*
X9610539Y-17556484D01*
X9610539Y-17556484D02*
X9543872Y-17632674D01*
X9543872Y-17632674D02*
X9572444Y-17632674D01*
X9572444Y-17632674D02*
X9591491Y-17642198D01*
X9591491Y-17642198D02*
X9601015Y-17651722D01*
X9601015Y-17651722D02*
X9610539Y-17670770D01*
X9610539Y-17670770D02*
X9610539Y-17718389D01*
X9610539Y-17718389D02*
X9601015Y-17737436D01*
X9601015Y-17737436D02*
X9591491Y-17746960D01*
X9591491Y-17746960D02*
X9572444Y-17756484D01*
X9572444Y-17756484D02*
X9515301Y-17756484D01*
X9515301Y-17756484D02*
X9496253Y-17746960D01*
X9496253Y-17746960D02*
X9486729Y-17737436D01*
X9696253Y-17737436D02*
X9705777Y-17746960D01*
X9705777Y-17746960D02*
X9696253Y-17756484D01*
X9696253Y-17756484D02*
X9686729Y-17746960D01*
X9686729Y-17746960D02*
X9696253Y-17737436D01*
X9696253Y-17737436D02*
X9696253Y-17756484D01*
X9781967Y-17575531D02*
X9791491Y-17566008D01*
X9791491Y-17566008D02*
X9810539Y-17556484D01*
X9810539Y-17556484D02*
X9858158Y-17556484D01*
X9858158Y-17556484D02*
X9877205Y-17566008D01*
X9877205Y-17566008D02*
X9886729Y-17575531D01*
X9886729Y-17575531D02*
X9896253Y-17594579D01*
X9896253Y-17594579D02*
X9896253Y-17613627D01*
X9896253Y-17613627D02*
X9886729Y-17642198D01*
X9886729Y-17642198D02*
X9772444Y-17756484D01*
X9772444Y-17756484D02*
X9896253Y-17756484D01*
X10020063Y-17556484D02*
X10039110Y-17556484D01*
X10039110Y-17556484D02*
X10058158Y-17566008D01*
X10058158Y-17566008D02*
X10067682Y-17575531D01*
X10067682Y-17575531D02*
X10077205Y-17594579D01*
X10077205Y-17594579D02*
X10086729Y-17632674D01*
X10086729Y-17632674D02*
X10086729Y-17680293D01*
X10086729Y-17680293D02*
X10077205Y-17718389D01*
X10077205Y-17718389D02*
X10067682Y-17737436D01*
X10067682Y-17737436D02*
X10058158Y-17746960D01*
X10058158Y-17746960D02*
X10039110Y-17756484D01*
X10039110Y-17756484D02*
X10020063Y-17756484D01*
X10020063Y-17756484D02*
X10001015Y-17746960D01*
X10001015Y-17746960D02*
X9991491Y-17737436D01*
X9991491Y-17737436D02*
X9981967Y-17718389D01*
X9981967Y-17718389D02*
X9972444Y-17680293D01*
X9972444Y-17680293D02*
X9972444Y-17632674D01*
X9972444Y-17632674D02*
X9981967Y-17594579D01*
X9981967Y-17594579D02*
X9991491Y-17575531D01*
X9991491Y-17575531D02*
X10001015Y-17566008D01*
X10001015Y-17566008D02*
X10020063Y-17556484D01*
X10210539Y-17556484D02*
X10229586Y-17556484D01*
X10229586Y-17556484D02*
X10248634Y-17566008D01*
X10248634Y-17566008D02*
X10258158Y-17575531D01*
X10258158Y-17575531D02*
X10267682Y-17594579D01*
X10267682Y-17594579D02*
X10277205Y-17632674D01*
X10277205Y-17632674D02*
X10277205Y-17680293D01*
X10277205Y-17680293D02*
X10267682Y-17718389D01*
X10267682Y-17718389D02*
X10258158Y-17737436D01*
X10258158Y-17737436D02*
X10248634Y-17746960D01*
X10248634Y-17746960D02*
X10229586Y-17756484D01*
X10229586Y-17756484D02*
X10210539Y-17756484D01*
X10210539Y-17756484D02*
X10191491Y-17746960D01*
X10191491Y-17746960D02*
X10181967Y-17737436D01*
X10181967Y-17737436D02*
X10172444Y-17718389D01*
X10172444Y-17718389D02*
X10162920Y-17680293D01*
X10162920Y-17680293D02*
X10162920Y-17632674D01*
X10162920Y-17632674D02*
X10172444Y-17594579D01*
X10172444Y-17594579D02*
X10181967Y-17575531D01*
X10181967Y-17575531D02*
X10191491Y-17566008D01*
X10191491Y-17566008D02*
X10210539Y-17556484D01*
X10362920Y-17756484D02*
X10362920Y-17623150D01*
X10362920Y-17642198D02*
X10372444Y-17632674D01*
X10372444Y-17632674D02*
X10391491Y-17623150D01*
X10391491Y-17623150D02*
X10420063Y-17623150D01*
X10420063Y-17623150D02*
X10439110Y-17632674D01*
X10439110Y-17632674D02*
X10448634Y-17651722D01*
X10448634Y-17651722D02*
X10448634Y-17756484D01*
X10448634Y-17651722D02*
X10458158Y-17632674D01*
X10458158Y-17632674D02*
X10477205Y-17623150D01*
X10477205Y-17623150D02*
X10505777Y-17623150D01*
X10505777Y-17623150D02*
X10524825Y-17632674D01*
X10524825Y-17632674D02*
X10534348Y-17651722D01*
X10534348Y-17651722D02*
X10534348Y-17756484D01*
X10629586Y-17756484D02*
X10629586Y-17623150D01*
X10629586Y-17642198D02*
X10639110Y-17632674D01*
X10639110Y-17632674D02*
X10658158Y-17623150D01*
X10658158Y-17623150D02*
X10686729Y-17623150D01*
X10686729Y-17623150D02*
X10705777Y-17632674D01*
X10705777Y-17632674D02*
X10715301Y-17651722D01*
X10715301Y-17651722D02*
X10715301Y-17756484D01*
X10715301Y-17651722D02*
X10724825Y-17632674D01*
X10724825Y-17632674D02*
X10743872Y-17623150D01*
X10743872Y-17623150D02*
X10772444Y-17623150D01*
X10772444Y-17623150D02*
X10791491Y-17632674D01*
X10791491Y-17632674D02*
X10801015Y-17651722D01*
X10801015Y-17651722D02*
X10801015Y-17756484D01*
X11191491Y-17546960D02*
X11020063Y-17804103D01*
X11448634Y-17556484D02*
X11467682Y-17556484D01*
X11467682Y-17556484D02*
X11486729Y-17566008D01*
X11486729Y-17566008D02*
X11496253Y-17575531D01*
X11496253Y-17575531D02*
X11505777Y-17594579D01*
X11505777Y-17594579D02*
X11515301Y-17632674D01*
X11515301Y-17632674D02*
X11515301Y-17680293D01*
X11515301Y-17680293D02*
X11505777Y-17718389D01*
X11505777Y-17718389D02*
X11496253Y-17737436D01*
X11496253Y-17737436D02*
X11486729Y-17746960D01*
X11486729Y-17746960D02*
X11467682Y-17756484D01*
X11467682Y-17756484D02*
X11448634Y-17756484D01*
X11448634Y-17756484D02*
X11429586Y-17746960D01*
X11429586Y-17746960D02*
X11420063Y-17737436D01*
X11420063Y-17737436D02*
X11410539Y-17718389D01*
X11410539Y-17718389D02*
X11401015Y-17680293D01*
X11401015Y-17680293D02*
X11401015Y-17632674D01*
X11401015Y-17632674D02*
X11410539Y-17594579D01*
X11410539Y-17594579D02*
X11420063Y-17575531D01*
X11420063Y-17575531D02*
X11429586Y-17566008D01*
X11429586Y-17566008D02*
X11448634Y-17556484D01*
X11601015Y-17737436D02*
X11610539Y-17746960D01*
X11610539Y-17746960D02*
X11601015Y-17756484D01*
X11601015Y-17756484D02*
X11591491Y-17746960D01*
X11591491Y-17746960D02*
X11601015Y-17737436D01*
X11601015Y-17737436D02*
X11601015Y-17756484D01*
X11801015Y-17756484D02*
X11686729Y-17756484D01*
X11743872Y-17756484D02*
X11743872Y-17556484D01*
X11743872Y-17556484D02*
X11724825Y-17585055D01*
X11724825Y-17585055D02*
X11705777Y-17604103D01*
X11705777Y-17604103D02*
X11686729Y-17613627D01*
X11877206Y-17575531D02*
X11886729Y-17566008D01*
X11886729Y-17566008D02*
X11905777Y-17556484D01*
X11905777Y-17556484D02*
X11953396Y-17556484D01*
X11953396Y-17556484D02*
X11972444Y-17566008D01*
X11972444Y-17566008D02*
X11981967Y-17575531D01*
X11981967Y-17575531D02*
X11991491Y-17594579D01*
X11991491Y-17594579D02*
X11991491Y-17613627D01*
X11991491Y-17613627D02*
X11981967Y-17642198D01*
X11981967Y-17642198D02*
X11867682Y-17756484D01*
X11867682Y-17756484D02*
X11991491Y-17756484D01*
X12162920Y-17556484D02*
X12124825Y-17556484D01*
X12124825Y-17556484D02*
X12105777Y-17566008D01*
X12105777Y-17566008D02*
X12096253Y-17575531D01*
X12096253Y-17575531D02*
X12077206Y-17604103D01*
X12077206Y-17604103D02*
X12067682Y-17642198D01*
X12067682Y-17642198D02*
X12067682Y-17718389D01*
X12067682Y-17718389D02*
X12077206Y-17737436D01*
X12077206Y-17737436D02*
X12086729Y-17746960D01*
X12086729Y-17746960D02*
X12105777Y-17756484D01*
X12105777Y-17756484D02*
X12143872Y-17756484D01*
X12143872Y-17756484D02*
X12162920Y-17746960D01*
X12162920Y-17746960D02*
X12172444Y-17737436D01*
X12172444Y-17737436D02*
X12181967Y-17718389D01*
X12181967Y-17718389D02*
X12181967Y-17670770D01*
X12181967Y-17670770D02*
X12172444Y-17651722D01*
X12172444Y-17651722D02*
X12162920Y-17642198D01*
X12162920Y-17642198D02*
X12143872Y-17632674D01*
X12143872Y-17632674D02*
X12105777Y-17632674D01*
X12105777Y-17632674D02*
X12086729Y-17642198D01*
X12086729Y-17642198D02*
X12077206Y-17651722D01*
X12077206Y-17651722D02*
X12067682Y-17670770D01*
X12305777Y-17556484D02*
X12324825Y-17556484D01*
X12324825Y-17556484D02*
X12343872Y-17566008D01*
X12343872Y-17566008D02*
X12353396Y-17575531D01*
X12353396Y-17575531D02*
X12362920Y-17594579D01*
X12362920Y-17594579D02*
X12372444Y-17632674D01*
X12372444Y-17632674D02*
X12372444Y-17680293D01*
X12372444Y-17680293D02*
X12362920Y-17718389D01*
X12362920Y-17718389D02*
X12353396Y-17737436D01*
X12353396Y-17737436D02*
X12343872Y-17746960D01*
X12343872Y-17746960D02*
X12324825Y-17756484D01*
X12324825Y-17756484D02*
X12305777Y-17756484D01*
X12305777Y-17756484D02*
X12286729Y-17746960D01*
X12286729Y-17746960D02*
X12277206Y-17737436D01*
X12277206Y-17737436D02*
X12267682Y-17718389D01*
X12267682Y-17718389D02*
X12258158Y-17680293D01*
X12258158Y-17680293D02*
X12258158Y-17632674D01*
X12258158Y-17632674D02*
X12267682Y-17594579D01*
X12267682Y-17594579D02*
X12277206Y-17575531D01*
X12277206Y-17575531D02*
X12286729Y-17566008D01*
X12286729Y-17566008D02*
X12305777Y-17556484D01*
X12448634Y-17556484D02*
X12448634Y-17594579D01*
X12524825Y-17556484D02*
X12524825Y-17594579D01*
X12820063Y-17832674D02*
X12810539Y-17823150D01*
X12810539Y-17823150D02*
X12791491Y-17794579D01*
X12791491Y-17794579D02*
X12781968Y-17775531D01*
X12781968Y-17775531D02*
X12772444Y-17746960D01*
X12772444Y-17746960D02*
X12762920Y-17699341D01*
X12762920Y-17699341D02*
X12762920Y-17661246D01*
X12762920Y-17661246D02*
X12772444Y-17613627D01*
X12772444Y-17613627D02*
X12781968Y-17585055D01*
X12781968Y-17585055D02*
X12791491Y-17566008D01*
X12791491Y-17566008D02*
X12810539Y-17537436D01*
X12810539Y-17537436D02*
X12820063Y-17527912D01*
X12981968Y-17623150D02*
X12981968Y-17756484D01*
X12934348Y-17546960D02*
X12886729Y-17689817D01*
X12886729Y-17689817D02*
X13010539Y-17689817D01*
X13239110Y-17756484D02*
X13239110Y-17556484D01*
X13324825Y-17756484D02*
X13324825Y-17651722D01*
X13324825Y-17651722D02*
X13315301Y-17632674D01*
X13315301Y-17632674D02*
X13296253Y-17623150D01*
X13296253Y-17623150D02*
X13267682Y-17623150D01*
X13267682Y-17623150D02*
X13248634Y-17632674D01*
X13248634Y-17632674D02*
X13239110Y-17642198D01*
X13448634Y-17756484D02*
X13429587Y-17746960D01*
X13429587Y-17746960D02*
X13420063Y-17737436D01*
X13420063Y-17737436D02*
X13410539Y-17718389D01*
X13410539Y-17718389D02*
X13410539Y-17661246D01*
X13410539Y-17661246D02*
X13420063Y-17642198D01*
X13420063Y-17642198D02*
X13429587Y-17632674D01*
X13429587Y-17632674D02*
X13448634Y-17623150D01*
X13448634Y-17623150D02*
X13477206Y-17623150D01*
X13477206Y-17623150D02*
X13496253Y-17632674D01*
X13496253Y-17632674D02*
X13505777Y-17642198D01*
X13505777Y-17642198D02*
X13515301Y-17661246D01*
X13515301Y-17661246D02*
X13515301Y-17718389D01*
X13515301Y-17718389D02*
X13505777Y-17737436D01*
X13505777Y-17737436D02*
X13496253Y-17746960D01*
X13496253Y-17746960D02*
X13477206Y-17756484D01*
X13477206Y-17756484D02*
X13448634Y-17756484D01*
X13629587Y-17756484D02*
X13610539Y-17746960D01*
X13610539Y-17746960D02*
X13601015Y-17727912D01*
X13601015Y-17727912D02*
X13601015Y-17556484D01*
X13781968Y-17746960D02*
X13762920Y-17756484D01*
X13762920Y-17756484D02*
X13724825Y-17756484D01*
X13724825Y-17756484D02*
X13705777Y-17746960D01*
X13705777Y-17746960D02*
X13696253Y-17727912D01*
X13696253Y-17727912D02*
X13696253Y-17651722D01*
X13696253Y-17651722D02*
X13705777Y-17632674D01*
X13705777Y-17632674D02*
X13724825Y-17623150D01*
X13724825Y-17623150D02*
X13762920Y-17623150D01*
X13762920Y-17623150D02*
X13781968Y-17632674D01*
X13781968Y-17632674D02*
X13791491Y-17651722D01*
X13791491Y-17651722D02*
X13791491Y-17670770D01*
X13791491Y-17670770D02*
X13696253Y-17689817D01*
X13867682Y-17746960D02*
X13886730Y-17756484D01*
X13886730Y-17756484D02*
X13924825Y-17756484D01*
X13924825Y-17756484D02*
X13943872Y-17746960D01*
X13943872Y-17746960D02*
X13953396Y-17727912D01*
X13953396Y-17727912D02*
X13953396Y-17718389D01*
X13953396Y-17718389D02*
X13943872Y-17699341D01*
X13943872Y-17699341D02*
X13924825Y-17689817D01*
X13924825Y-17689817D02*
X13896253Y-17689817D01*
X13896253Y-17689817D02*
X13877206Y-17680293D01*
X13877206Y-17680293D02*
X13867682Y-17661246D01*
X13867682Y-17661246D02*
X13867682Y-17651722D01*
X13867682Y-17651722D02*
X13877206Y-17632674D01*
X13877206Y-17632674D02*
X13896253Y-17623150D01*
X13896253Y-17623150D02*
X13924825Y-17623150D01*
X13924825Y-17623150D02*
X13943872Y-17632674D01*
X14020063Y-17832674D02*
X14029587Y-17823150D01*
X14029587Y-17823150D02*
X14048634Y-17794579D01*
X14048634Y-17794579D02*
X14058158Y-17775531D01*
X14058158Y-17775531D02*
X14067682Y-17746960D01*
X14067682Y-17746960D02*
X14077206Y-17699341D01*
X14077206Y-17699341D02*
X14077206Y-17661246D01*
X14077206Y-17661246D02*
X14067682Y-17613627D01*
X14067682Y-17613627D02*
X14058158Y-17585055D01*
X14058158Y-17585055D02*
X14048634Y-17566008D01*
X14048634Y-17566008D02*
X14029587Y-17537436D01*
X14029587Y-17537436D02*
X14020063Y-17527912D01*
X14381968Y-17832674D02*
X14372444Y-17823150D01*
X14372444Y-17823150D02*
X14353396Y-17794579D01*
X14353396Y-17794579D02*
X14343872Y-17775531D01*
X14343872Y-17775531D02*
X14334349Y-17746960D01*
X14334349Y-17746960D02*
X14324825Y-17699341D01*
X14324825Y-17699341D02*
X14324825Y-17661246D01*
X14324825Y-17661246D02*
X14334349Y-17613627D01*
X14334349Y-17613627D02*
X14343872Y-17585055D01*
X14343872Y-17585055D02*
X14353396Y-17566008D01*
X14353396Y-17566008D02*
X14372444Y-17537436D01*
X14372444Y-17537436D02*
X14381968Y-17527912D01*
X14458158Y-17623150D02*
X14458158Y-17756484D01*
X14458158Y-17642198D02*
X14467682Y-17632674D01*
X14467682Y-17632674D02*
X14486730Y-17623150D01*
X14486730Y-17623150D02*
X14515301Y-17623150D01*
X14515301Y-17623150D02*
X14534349Y-17632674D01*
X14534349Y-17632674D02*
X14543872Y-17651722D01*
X14543872Y-17651722D02*
X14543872Y-17756484D01*
X14667682Y-17756484D02*
X14648634Y-17746960D01*
X14648634Y-17746960D02*
X14639111Y-17737436D01*
X14639111Y-17737436D02*
X14629587Y-17718389D01*
X14629587Y-17718389D02*
X14629587Y-17661246D01*
X14629587Y-17661246D02*
X14639111Y-17642198D01*
X14639111Y-17642198D02*
X14648634Y-17632674D01*
X14648634Y-17632674D02*
X14667682Y-17623150D01*
X14667682Y-17623150D02*
X14696253Y-17623150D01*
X14696253Y-17623150D02*
X14715301Y-17632674D01*
X14715301Y-17632674D02*
X14724825Y-17642198D01*
X14724825Y-17642198D02*
X14734349Y-17661246D01*
X14734349Y-17661246D02*
X14734349Y-17718389D01*
X14734349Y-17718389D02*
X14724825Y-17737436D01*
X14724825Y-17737436D02*
X14715301Y-17746960D01*
X14715301Y-17746960D02*
X14696253Y-17756484D01*
X14696253Y-17756484D02*
X14667682Y-17756484D01*
X14791492Y-17623150D02*
X14867682Y-17623150D01*
X14820063Y-17556484D02*
X14820063Y-17727912D01*
X14820063Y-17727912D02*
X14829587Y-17746960D01*
X14829587Y-17746960D02*
X14848634Y-17756484D01*
X14848634Y-17756484D02*
X14867682Y-17756484D01*
X15086730Y-17623150D02*
X15086730Y-17823150D01*
X15086730Y-17632674D02*
X15105777Y-17623150D01*
X15105777Y-17623150D02*
X15143873Y-17623150D01*
X15143873Y-17623150D02*
X15162920Y-17632674D01*
X15162920Y-17632674D02*
X15172444Y-17642198D01*
X15172444Y-17642198D02*
X15181968Y-17661246D01*
X15181968Y-17661246D02*
X15181968Y-17718389D01*
X15181968Y-17718389D02*
X15172444Y-17737436D01*
X15172444Y-17737436D02*
X15162920Y-17746960D01*
X15162920Y-17746960D02*
X15143873Y-17756484D01*
X15143873Y-17756484D02*
X15105777Y-17756484D01*
X15105777Y-17756484D02*
X15086730Y-17746960D01*
X15296253Y-17756484D02*
X15277206Y-17746960D01*
X15277206Y-17746960D02*
X15267682Y-17727912D01*
X15267682Y-17727912D02*
X15267682Y-17556484D01*
X15458158Y-17756484D02*
X15458158Y-17651722D01*
X15458158Y-17651722D02*
X15448634Y-17632674D01*
X15448634Y-17632674D02*
X15429587Y-17623150D01*
X15429587Y-17623150D02*
X15391492Y-17623150D01*
X15391492Y-17623150D02*
X15372444Y-17632674D01*
X15458158Y-17746960D02*
X15439111Y-17756484D01*
X15439111Y-17756484D02*
X15391492Y-17756484D01*
X15391492Y-17756484D02*
X15372444Y-17746960D01*
X15372444Y-17746960D02*
X15362920Y-17727912D01*
X15362920Y-17727912D02*
X15362920Y-17708865D01*
X15362920Y-17708865D02*
X15372444Y-17689817D01*
X15372444Y-17689817D02*
X15391492Y-17680293D01*
X15391492Y-17680293D02*
X15439111Y-17680293D01*
X15439111Y-17680293D02*
X15458158Y-17670770D01*
X15524825Y-17623150D02*
X15601015Y-17623150D01*
X15553396Y-17556484D02*
X15553396Y-17727912D01*
X15553396Y-17727912D02*
X15562920Y-17746960D01*
X15562920Y-17746960D02*
X15581968Y-17756484D01*
X15581968Y-17756484D02*
X15601015Y-17756484D01*
X15743873Y-17746960D02*
X15724825Y-17756484D01*
X15724825Y-17756484D02*
X15686730Y-17756484D01*
X15686730Y-17756484D02*
X15667682Y-17746960D01*
X15667682Y-17746960D02*
X15658158Y-17727912D01*
X15658158Y-17727912D02*
X15658158Y-17651722D01*
X15658158Y-17651722D02*
X15667682Y-17632674D01*
X15667682Y-17632674D02*
X15686730Y-17623150D01*
X15686730Y-17623150D02*
X15724825Y-17623150D01*
X15724825Y-17623150D02*
X15743873Y-17632674D01*
X15743873Y-17632674D02*
X15753396Y-17651722D01*
X15753396Y-17651722D02*
X15753396Y-17670770D01*
X15753396Y-17670770D02*
X15658158Y-17689817D01*
X15924825Y-17756484D02*
X15924825Y-17556484D01*
X15924825Y-17746960D02*
X15905777Y-17756484D01*
X15905777Y-17756484D02*
X15867682Y-17756484D01*
X15867682Y-17756484D02*
X15848634Y-17746960D01*
X15848634Y-17746960D02*
X15839111Y-17737436D01*
X15839111Y-17737436D02*
X15829587Y-17718389D01*
X15829587Y-17718389D02*
X15829587Y-17661246D01*
X15829587Y-17661246D02*
X15839111Y-17642198D01*
X15839111Y-17642198D02*
X15848634Y-17632674D01*
X15848634Y-17632674D02*
X15867682Y-17623150D01*
X15867682Y-17623150D02*
X15905777Y-17623150D01*
X15905777Y-17623150D02*
X15924825Y-17632674D01*
X16001015Y-17832674D02*
X16010539Y-17823150D01*
X16010539Y-17823150D02*
X16029587Y-17794579D01*
X16029587Y-17794579D02*
X16039111Y-17775531D01*
X16039111Y-17775531D02*
X16048634Y-17746960D01*
X16048634Y-17746960D02*
X16058158Y-17699341D01*
X16058158Y-17699341D02*
X16058158Y-17661246D01*
X16058158Y-17661246D02*
X16048634Y-17613627D01*
X16048634Y-17613627D02*
X16039111Y-17585055D01*
X16039111Y-17585055D02*
X16029587Y-17566008D01*
X16029587Y-17566008D02*
X16010539Y-17537436D01*
X16010539Y-17537436D02*
X16001015Y-17527912D01*
X9145000Y-17885000D02*
X9145000Y-18085000D01*
X9045000Y-17985000D02*
X9245000Y-17985000D01*
X9591491Y-17876484D02*
X9553396Y-17876484D01*
X9553396Y-17876484D02*
X9534348Y-17886008D01*
X9534348Y-17886008D02*
X9524824Y-17895531D01*
X9524824Y-17895531D02*
X9505777Y-17924103D01*
X9505777Y-17924103D02*
X9496253Y-17962198D01*
X9496253Y-17962198D02*
X9496253Y-18038389D01*
X9496253Y-18038389D02*
X9505777Y-18057436D01*
X9505777Y-18057436D02*
X9515301Y-18066960D01*
X9515301Y-18066960D02*
X9534348Y-18076484D01*
X9534348Y-18076484D02*
X9572444Y-18076484D01*
X9572444Y-18076484D02*
X9591491Y-18066960D01*
X9591491Y-18066960D02*
X9601015Y-18057436D01*
X9601015Y-18057436D02*
X9610539Y-18038389D01*
X9610539Y-18038389D02*
X9610539Y-17990770D01*
X9610539Y-17990770D02*
X9601015Y-17971722D01*
X9601015Y-17971722D02*
X9591491Y-17962198D01*
X9591491Y-17962198D02*
X9572444Y-17952674D01*
X9572444Y-17952674D02*
X9534348Y-17952674D01*
X9534348Y-17952674D02*
X9515301Y-17962198D01*
X9515301Y-17962198D02*
X9505777Y-17971722D01*
X9505777Y-17971722D02*
X9496253Y-17990770D01*
X9696253Y-18057436D02*
X9705777Y-18066960D01*
X9705777Y-18066960D02*
X9696253Y-18076484D01*
X9696253Y-18076484D02*
X9686729Y-18066960D01*
X9686729Y-18066960D02*
X9696253Y-18057436D01*
X9696253Y-18057436D02*
X9696253Y-18076484D01*
X9781967Y-17895531D02*
X9791491Y-17886008D01*
X9791491Y-17886008D02*
X9810539Y-17876484D01*
X9810539Y-17876484D02*
X9858158Y-17876484D01*
X9858158Y-17876484D02*
X9877205Y-17886008D01*
X9877205Y-17886008D02*
X9886729Y-17895531D01*
X9886729Y-17895531D02*
X9896253Y-17914579D01*
X9896253Y-17914579D02*
X9896253Y-17933627D01*
X9896253Y-17933627D02*
X9886729Y-17962198D01*
X9886729Y-17962198D02*
X9772444Y-18076484D01*
X9772444Y-18076484D02*
X9896253Y-18076484D01*
X10020063Y-17876484D02*
X10039110Y-17876484D01*
X10039110Y-17876484D02*
X10058158Y-17886008D01*
X10058158Y-17886008D02*
X10067682Y-17895531D01*
X10067682Y-17895531D02*
X10077205Y-17914579D01*
X10077205Y-17914579D02*
X10086729Y-17952674D01*
X10086729Y-17952674D02*
X10086729Y-18000293D01*
X10086729Y-18000293D02*
X10077205Y-18038389D01*
X10077205Y-18038389D02*
X10067682Y-18057436D01*
X10067682Y-18057436D02*
X10058158Y-18066960D01*
X10058158Y-18066960D02*
X10039110Y-18076484D01*
X10039110Y-18076484D02*
X10020063Y-18076484D01*
X10020063Y-18076484D02*
X10001015Y-18066960D01*
X10001015Y-18066960D02*
X9991491Y-18057436D01*
X9991491Y-18057436D02*
X9981967Y-18038389D01*
X9981967Y-18038389D02*
X9972444Y-18000293D01*
X9972444Y-18000293D02*
X9972444Y-17952674D01*
X9972444Y-17952674D02*
X9981967Y-17914579D01*
X9981967Y-17914579D02*
X9991491Y-17895531D01*
X9991491Y-17895531D02*
X10001015Y-17886008D01*
X10001015Y-17886008D02*
X10020063Y-17876484D01*
X10210539Y-17876484D02*
X10229586Y-17876484D01*
X10229586Y-17876484D02*
X10248634Y-17886008D01*
X10248634Y-17886008D02*
X10258158Y-17895531D01*
X10258158Y-17895531D02*
X10267682Y-17914579D01*
X10267682Y-17914579D02*
X10277205Y-17952674D01*
X10277205Y-17952674D02*
X10277205Y-18000293D01*
X10277205Y-18000293D02*
X10267682Y-18038389D01*
X10267682Y-18038389D02*
X10258158Y-18057436D01*
X10258158Y-18057436D02*
X10248634Y-18066960D01*
X10248634Y-18066960D02*
X10229586Y-18076484D01*
X10229586Y-18076484D02*
X10210539Y-18076484D01*
X10210539Y-18076484D02*
X10191491Y-18066960D01*
X10191491Y-18066960D02*
X10181967Y-18057436D01*
X10181967Y-18057436D02*
X10172444Y-18038389D01*
X10172444Y-18038389D02*
X10162920Y-18000293D01*
X10162920Y-18000293D02*
X10162920Y-17952674D01*
X10162920Y-17952674D02*
X10172444Y-17914579D01*
X10172444Y-17914579D02*
X10181967Y-17895531D01*
X10181967Y-17895531D02*
X10191491Y-17886008D01*
X10191491Y-17886008D02*
X10210539Y-17876484D01*
X10362920Y-18076484D02*
X10362920Y-17943150D01*
X10362920Y-17962198D02*
X10372444Y-17952674D01*
X10372444Y-17952674D02*
X10391491Y-17943150D01*
X10391491Y-17943150D02*
X10420063Y-17943150D01*
X10420063Y-17943150D02*
X10439110Y-17952674D01*
X10439110Y-17952674D02*
X10448634Y-17971722D01*
X10448634Y-17971722D02*
X10448634Y-18076484D01*
X10448634Y-17971722D02*
X10458158Y-17952674D01*
X10458158Y-17952674D02*
X10477205Y-17943150D01*
X10477205Y-17943150D02*
X10505777Y-17943150D01*
X10505777Y-17943150D02*
X10524825Y-17952674D01*
X10524825Y-17952674D02*
X10534348Y-17971722D01*
X10534348Y-17971722D02*
X10534348Y-18076484D01*
X10629586Y-18076484D02*
X10629586Y-17943150D01*
X10629586Y-17962198D02*
X10639110Y-17952674D01*
X10639110Y-17952674D02*
X10658158Y-17943150D01*
X10658158Y-17943150D02*
X10686729Y-17943150D01*
X10686729Y-17943150D02*
X10705777Y-17952674D01*
X10705777Y-17952674D02*
X10715301Y-17971722D01*
X10715301Y-17971722D02*
X10715301Y-18076484D01*
X10715301Y-17971722D02*
X10724825Y-17952674D01*
X10724825Y-17952674D02*
X10743872Y-17943150D01*
X10743872Y-17943150D02*
X10772444Y-17943150D01*
X10772444Y-17943150D02*
X10791491Y-17952674D01*
X10791491Y-17952674D02*
X10801015Y-17971722D01*
X10801015Y-17971722D02*
X10801015Y-18076484D01*
X11191491Y-17866960D02*
X11020063Y-18124103D01*
X11448634Y-17876484D02*
X11467682Y-17876484D01*
X11467682Y-17876484D02*
X11486729Y-17886008D01*
X11486729Y-17886008D02*
X11496253Y-17895531D01*
X11496253Y-17895531D02*
X11505777Y-17914579D01*
X11505777Y-17914579D02*
X11515301Y-17952674D01*
X11515301Y-17952674D02*
X11515301Y-18000293D01*
X11515301Y-18000293D02*
X11505777Y-18038389D01*
X11505777Y-18038389D02*
X11496253Y-18057436D01*
X11496253Y-18057436D02*
X11486729Y-18066960D01*
X11486729Y-18066960D02*
X11467682Y-18076484D01*
X11467682Y-18076484D02*
X11448634Y-18076484D01*
X11448634Y-18076484D02*
X11429586Y-18066960D01*
X11429586Y-18066960D02*
X11420063Y-18057436D01*
X11420063Y-18057436D02*
X11410539Y-18038389D01*
X11410539Y-18038389D02*
X11401015Y-18000293D01*
X11401015Y-18000293D02*
X11401015Y-17952674D01*
X11401015Y-17952674D02*
X11410539Y-17914579D01*
X11410539Y-17914579D02*
X11420063Y-17895531D01*
X11420063Y-17895531D02*
X11429586Y-17886008D01*
X11429586Y-17886008D02*
X11448634Y-17876484D01*
X11601015Y-18057436D02*
X11610539Y-18066960D01*
X11610539Y-18066960D02*
X11601015Y-18076484D01*
X11601015Y-18076484D02*
X11591491Y-18066960D01*
X11591491Y-18066960D02*
X11601015Y-18057436D01*
X11601015Y-18057436D02*
X11601015Y-18076484D01*
X11686729Y-17895531D02*
X11696253Y-17886008D01*
X11696253Y-17886008D02*
X11715301Y-17876484D01*
X11715301Y-17876484D02*
X11762920Y-17876484D01*
X11762920Y-17876484D02*
X11781967Y-17886008D01*
X11781967Y-17886008D02*
X11791491Y-17895531D01*
X11791491Y-17895531D02*
X11801015Y-17914579D01*
X11801015Y-17914579D02*
X11801015Y-17933627D01*
X11801015Y-17933627D02*
X11791491Y-17962198D01*
X11791491Y-17962198D02*
X11677206Y-18076484D01*
X11677206Y-18076484D02*
X11801015Y-18076484D01*
X11972444Y-17943150D02*
X11972444Y-18076484D01*
X11924825Y-17866960D02*
X11877206Y-18009817D01*
X11877206Y-18009817D02*
X12001015Y-18009817D01*
X12162920Y-17943150D02*
X12162920Y-18076484D01*
X12115301Y-17866960D02*
X12067682Y-18009817D01*
X12067682Y-18009817D02*
X12191491Y-18009817D01*
X12372444Y-18076484D02*
X12258158Y-18076484D01*
X12315301Y-18076484D02*
X12315301Y-17876484D01*
X12315301Y-17876484D02*
X12296253Y-17905055D01*
X12296253Y-17905055D02*
X12277206Y-17924103D01*
X12277206Y-17924103D02*
X12258158Y-17933627D01*
X12448634Y-17876484D02*
X12448634Y-17914579D01*
X12524825Y-17876484D02*
X12524825Y-17914579D01*
X12820063Y-18152674D02*
X12810539Y-18143150D01*
X12810539Y-18143150D02*
X12791491Y-18114579D01*
X12791491Y-18114579D02*
X12781968Y-18095531D01*
X12781968Y-18095531D02*
X12772444Y-18066960D01*
X12772444Y-18066960D02*
X12762920Y-18019341D01*
X12762920Y-18019341D02*
X12762920Y-17981246D01*
X12762920Y-17981246D02*
X12772444Y-17933627D01*
X12772444Y-17933627D02*
X12781968Y-17905055D01*
X12781968Y-17905055D02*
X12791491Y-17886008D01*
X12791491Y-17886008D02*
X12810539Y-17857436D01*
X12810539Y-17857436D02*
X12820063Y-17847912D01*
X12877206Y-17876484D02*
X13010539Y-17876484D01*
X13010539Y-17876484D02*
X12924825Y-18076484D01*
X13239110Y-18076484D02*
X13239110Y-17876484D01*
X13324825Y-18076484D02*
X13324825Y-17971722D01*
X13324825Y-17971722D02*
X13315301Y-17952674D01*
X13315301Y-17952674D02*
X13296253Y-17943150D01*
X13296253Y-17943150D02*
X13267682Y-17943150D01*
X13267682Y-17943150D02*
X13248634Y-17952674D01*
X13248634Y-17952674D02*
X13239110Y-17962198D01*
X13448634Y-18076484D02*
X13429587Y-18066960D01*
X13429587Y-18066960D02*
X13420063Y-18057436D01*
X13420063Y-18057436D02*
X13410539Y-18038389D01*
X13410539Y-18038389D02*
X13410539Y-17981246D01*
X13410539Y-17981246D02*
X13420063Y-17962198D01*
X13420063Y-17962198D02*
X13429587Y-17952674D01*
X13429587Y-17952674D02*
X13448634Y-17943150D01*
X13448634Y-17943150D02*
X13477206Y-17943150D01*
X13477206Y-17943150D02*
X13496253Y-17952674D01*
X13496253Y-17952674D02*
X13505777Y-17962198D01*
X13505777Y-17962198D02*
X13515301Y-17981246D01*
X13515301Y-17981246D02*
X13515301Y-18038389D01*
X13515301Y-18038389D02*
X13505777Y-18057436D01*
X13505777Y-18057436D02*
X13496253Y-18066960D01*
X13496253Y-18066960D02*
X13477206Y-18076484D01*
X13477206Y-18076484D02*
X13448634Y-18076484D01*
X13629587Y-18076484D02*
X13610539Y-18066960D01*
X13610539Y-18066960D02*
X13601015Y-18047912D01*
X13601015Y-18047912D02*
X13601015Y-17876484D01*
X13781968Y-18066960D02*
X13762920Y-18076484D01*
X13762920Y-18076484D02*
X13724825Y-18076484D01*
X13724825Y-18076484D02*
X13705777Y-18066960D01*
X13705777Y-18066960D02*
X13696253Y-18047912D01*
X13696253Y-18047912D02*
X13696253Y-17971722D01*
X13696253Y-17971722D02*
X13705777Y-17952674D01*
X13705777Y-17952674D02*
X13724825Y-17943150D01*
X13724825Y-17943150D02*
X13762920Y-17943150D01*
X13762920Y-17943150D02*
X13781968Y-17952674D01*
X13781968Y-17952674D02*
X13791491Y-17971722D01*
X13791491Y-17971722D02*
X13791491Y-17990770D01*
X13791491Y-17990770D02*
X13696253Y-18009817D01*
X13867682Y-18066960D02*
X13886730Y-18076484D01*
X13886730Y-18076484D02*
X13924825Y-18076484D01*
X13924825Y-18076484D02*
X13943872Y-18066960D01*
X13943872Y-18066960D02*
X13953396Y-18047912D01*
X13953396Y-18047912D02*
X13953396Y-18038389D01*
X13953396Y-18038389D02*
X13943872Y-18019341D01*
X13943872Y-18019341D02*
X13924825Y-18009817D01*
X13924825Y-18009817D02*
X13896253Y-18009817D01*
X13896253Y-18009817D02*
X13877206Y-18000293D01*
X13877206Y-18000293D02*
X13867682Y-17981246D01*
X13867682Y-17981246D02*
X13867682Y-17971722D01*
X13867682Y-17971722D02*
X13877206Y-17952674D01*
X13877206Y-17952674D02*
X13896253Y-17943150D01*
X13896253Y-17943150D02*
X13924825Y-17943150D01*
X13924825Y-17943150D02*
X13943872Y-17952674D01*
X14020063Y-18152674D02*
X14029587Y-18143150D01*
X14029587Y-18143150D02*
X14048634Y-18114579D01*
X14048634Y-18114579D02*
X14058158Y-18095531D01*
X14058158Y-18095531D02*
X14067682Y-18066960D01*
X14067682Y-18066960D02*
X14077206Y-18019341D01*
X14077206Y-18019341D02*
X14077206Y-17981246D01*
X14077206Y-17981246D02*
X14067682Y-17933627D01*
X14067682Y-17933627D02*
X14058158Y-17905055D01*
X14058158Y-17905055D02*
X14048634Y-17886008D01*
X14048634Y-17886008D02*
X14029587Y-17857436D01*
X14029587Y-17857436D02*
X14020063Y-17847912D01*
X14381968Y-18152674D02*
X14372444Y-18143150D01*
X14372444Y-18143150D02*
X14353396Y-18114579D01*
X14353396Y-18114579D02*
X14343872Y-18095531D01*
X14343872Y-18095531D02*
X14334349Y-18066960D01*
X14334349Y-18066960D02*
X14324825Y-18019341D01*
X14324825Y-18019341D02*
X14324825Y-17981246D01*
X14324825Y-17981246D02*
X14334349Y-17933627D01*
X14334349Y-17933627D02*
X14343872Y-17905055D01*
X14343872Y-17905055D02*
X14353396Y-17886008D01*
X14353396Y-17886008D02*
X14372444Y-17857436D01*
X14372444Y-17857436D02*
X14381968Y-17847912D01*
X14458158Y-17943150D02*
X14458158Y-18076484D01*
X14458158Y-17962198D02*
X14467682Y-17952674D01*
X14467682Y-17952674D02*
X14486730Y-17943150D01*
X14486730Y-17943150D02*
X14515301Y-17943150D01*
X14515301Y-17943150D02*
X14534349Y-17952674D01*
X14534349Y-17952674D02*
X14543872Y-17971722D01*
X14543872Y-17971722D02*
X14543872Y-18076484D01*
X14667682Y-18076484D02*
X14648634Y-18066960D01*
X14648634Y-18066960D02*
X14639111Y-18057436D01*
X14639111Y-18057436D02*
X14629587Y-18038389D01*
X14629587Y-18038389D02*
X14629587Y-17981246D01*
X14629587Y-17981246D02*
X14639111Y-17962198D01*
X14639111Y-17962198D02*
X14648634Y-17952674D01*
X14648634Y-17952674D02*
X14667682Y-17943150D01*
X14667682Y-17943150D02*
X14696253Y-17943150D01*
X14696253Y-17943150D02*
X14715301Y-17952674D01*
X14715301Y-17952674D02*
X14724825Y-17962198D01*
X14724825Y-17962198D02*
X14734349Y-17981246D01*
X14734349Y-17981246D02*
X14734349Y-18038389D01*
X14734349Y-18038389D02*
X14724825Y-18057436D01*
X14724825Y-18057436D02*
X14715301Y-18066960D01*
X14715301Y-18066960D02*
X14696253Y-18076484D01*
X14696253Y-18076484D02*
X14667682Y-18076484D01*
X14791492Y-17943150D02*
X14867682Y-17943150D01*
X14820063Y-17876484D02*
X14820063Y-18047912D01*
X14820063Y-18047912D02*
X14829587Y-18066960D01*
X14829587Y-18066960D02*
X14848634Y-18076484D01*
X14848634Y-18076484D02*
X14867682Y-18076484D01*
X15086730Y-17943150D02*
X15086730Y-18143150D01*
X15086730Y-17952674D02*
X15105777Y-17943150D01*
X15105777Y-17943150D02*
X15143873Y-17943150D01*
X15143873Y-17943150D02*
X15162920Y-17952674D01*
X15162920Y-17952674D02*
X15172444Y-17962198D01*
X15172444Y-17962198D02*
X15181968Y-17981246D01*
X15181968Y-17981246D02*
X15181968Y-18038389D01*
X15181968Y-18038389D02*
X15172444Y-18057436D01*
X15172444Y-18057436D02*
X15162920Y-18066960D01*
X15162920Y-18066960D02*
X15143873Y-18076484D01*
X15143873Y-18076484D02*
X15105777Y-18076484D01*
X15105777Y-18076484D02*
X15086730Y-18066960D01*
X15296253Y-18076484D02*
X15277206Y-18066960D01*
X15277206Y-18066960D02*
X15267682Y-18047912D01*
X15267682Y-18047912D02*
X15267682Y-17876484D01*
X15458158Y-18076484D02*
X15458158Y-17971722D01*
X15458158Y-17971722D02*
X15448634Y-17952674D01*
X15448634Y-17952674D02*
X15429587Y-17943150D01*
X15429587Y-17943150D02*
X15391492Y-17943150D01*
X15391492Y-17943150D02*
X15372444Y-17952674D01*
X15458158Y-18066960D02*
X15439111Y-18076484D01*
X15439111Y-18076484D02*
X15391492Y-18076484D01*
X15391492Y-18076484D02*
X15372444Y-18066960D01*
X15372444Y-18066960D02*
X15362920Y-18047912D01*
X15362920Y-18047912D02*
X15362920Y-18028865D01*
X15362920Y-18028865D02*
X15372444Y-18009817D01*
X15372444Y-18009817D02*
X15391492Y-18000293D01*
X15391492Y-18000293D02*
X15439111Y-18000293D01*
X15439111Y-18000293D02*
X15458158Y-17990770D01*
X15524825Y-17943150D02*
X15601015Y-17943150D01*
X15553396Y-17876484D02*
X15553396Y-18047912D01*
X15553396Y-18047912D02*
X15562920Y-18066960D01*
X15562920Y-18066960D02*
X15581968Y-18076484D01*
X15581968Y-18076484D02*
X15601015Y-18076484D01*
X15743873Y-18066960D02*
X15724825Y-18076484D01*
X15724825Y-18076484D02*
X15686730Y-18076484D01*
X15686730Y-18076484D02*
X15667682Y-18066960D01*
X15667682Y-18066960D02*
X15658158Y-18047912D01*
X15658158Y-18047912D02*
X15658158Y-17971722D01*
X15658158Y-17971722D02*
X15667682Y-17952674D01*
X15667682Y-17952674D02*
X15686730Y-17943150D01*
X15686730Y-17943150D02*
X15724825Y-17943150D01*
X15724825Y-17943150D02*
X15743873Y-17952674D01*
X15743873Y-17952674D02*
X15753396Y-17971722D01*
X15753396Y-17971722D02*
X15753396Y-17990770D01*
X15753396Y-17990770D02*
X15658158Y-18009817D01*
X15924825Y-18076484D02*
X15924825Y-17876484D01*
X15924825Y-18066960D02*
X15905777Y-18076484D01*
X15905777Y-18076484D02*
X15867682Y-18076484D01*
X15867682Y-18076484D02*
X15848634Y-18066960D01*
X15848634Y-18066960D02*
X15839111Y-18057436D01*
X15839111Y-18057436D02*
X15829587Y-18038389D01*
X15829587Y-18038389D02*
X15829587Y-17981246D01*
X15829587Y-17981246D02*
X15839111Y-17962198D01*
X15839111Y-17962198D02*
X15848634Y-17952674D01*
X15848634Y-17952674D02*
X15867682Y-17943150D01*
X15867682Y-17943150D02*
X15905777Y-17943150D01*
X15905777Y-17943150D02*
X15924825Y-17952674D01*
X16001015Y-18152674D02*
X16010539Y-18143150D01*
X16010539Y-18143150D02*
X16029587Y-18114579D01*
X16029587Y-18114579D02*
X16039111Y-18095531D01*
X16039111Y-18095531D02*
X16048634Y-18066960D01*
X16048634Y-18066960D02*
X16058158Y-18019341D01*
X16058158Y-18019341D02*
X16058158Y-17981246D01*
X16058158Y-17981246D02*
X16048634Y-17933627D01*
X16048634Y-17933627D02*
X16039111Y-17905055D01*
X16039111Y-17905055D02*
X16029587Y-17886008D01*
X16029587Y-17886008D02*
X16010539Y-17857436D01*
X16010539Y-17857436D02*
X16001015Y-17847912D01*
X9215711Y-18375711D02*
X9215711Y-18234289D01*
X9074289Y-18234289D01*
X9074289Y-18375711D01*
X9215711Y-18375711D01*
X9486729Y-18196484D02*
X9620063Y-18196484D01*
X9620063Y-18196484D02*
X9534348Y-18396484D01*
X9696253Y-18377436D02*
X9705777Y-18386960D01*
X9705777Y-18386960D02*
X9696253Y-18396484D01*
X9696253Y-18396484D02*
X9686729Y-18386960D01*
X9686729Y-18386960D02*
X9696253Y-18377436D01*
X9696253Y-18377436D02*
X9696253Y-18396484D01*
X9886729Y-18196484D02*
X9791491Y-18196484D01*
X9791491Y-18196484D02*
X9781967Y-18291722D01*
X9781967Y-18291722D02*
X9791491Y-18282198D01*
X9791491Y-18282198D02*
X9810539Y-18272674D01*
X9810539Y-18272674D02*
X9858158Y-18272674D01*
X9858158Y-18272674D02*
X9877205Y-18282198D01*
X9877205Y-18282198D02*
X9886729Y-18291722D01*
X9886729Y-18291722D02*
X9896253Y-18310770D01*
X9896253Y-18310770D02*
X9896253Y-18358389D01*
X9896253Y-18358389D02*
X9886729Y-18377436D01*
X9886729Y-18377436D02*
X9877205Y-18386960D01*
X9877205Y-18386960D02*
X9858158Y-18396484D01*
X9858158Y-18396484D02*
X9810539Y-18396484D01*
X9810539Y-18396484D02*
X9791491Y-18386960D01*
X9791491Y-18386960D02*
X9781967Y-18377436D01*
X10020063Y-18196484D02*
X10039110Y-18196484D01*
X10039110Y-18196484D02*
X10058158Y-18206008D01*
X10058158Y-18206008D02*
X10067682Y-18215531D01*
X10067682Y-18215531D02*
X10077205Y-18234579D01*
X10077205Y-18234579D02*
X10086729Y-18272674D01*
X10086729Y-18272674D02*
X10086729Y-18320293D01*
X10086729Y-18320293D02*
X10077205Y-18358389D01*
X10077205Y-18358389D02*
X10067682Y-18377436D01*
X10067682Y-18377436D02*
X10058158Y-18386960D01*
X10058158Y-18386960D02*
X10039110Y-18396484D01*
X10039110Y-18396484D02*
X10020063Y-18396484D01*
X10020063Y-18396484D02*
X10001015Y-18386960D01*
X10001015Y-18386960D02*
X9991491Y-18377436D01*
X9991491Y-18377436D02*
X9981967Y-18358389D01*
X9981967Y-18358389D02*
X9972444Y-18320293D01*
X9972444Y-18320293D02*
X9972444Y-18272674D01*
X9972444Y-18272674D02*
X9981967Y-18234579D01*
X9981967Y-18234579D02*
X9991491Y-18215531D01*
X9991491Y-18215531D02*
X10001015Y-18206008D01*
X10001015Y-18206008D02*
X10020063Y-18196484D01*
X10210539Y-18196484D02*
X10229586Y-18196484D01*
X10229586Y-18196484D02*
X10248634Y-18206008D01*
X10248634Y-18206008D02*
X10258158Y-18215531D01*
X10258158Y-18215531D02*
X10267682Y-18234579D01*
X10267682Y-18234579D02*
X10277205Y-18272674D01*
X10277205Y-18272674D02*
X10277205Y-18320293D01*
X10277205Y-18320293D02*
X10267682Y-18358389D01*
X10267682Y-18358389D02*
X10258158Y-18377436D01*
X10258158Y-18377436D02*
X10248634Y-18386960D01*
X10248634Y-18386960D02*
X10229586Y-18396484D01*
X10229586Y-18396484D02*
X10210539Y-18396484D01*
X10210539Y-18396484D02*
X10191491Y-18386960D01*
X10191491Y-18386960D02*
X10181967Y-18377436D01*
X10181967Y-18377436D02*
X10172444Y-18358389D01*
X10172444Y-18358389D02*
X10162920Y-18320293D01*
X10162920Y-18320293D02*
X10162920Y-18272674D01*
X10162920Y-18272674D02*
X10172444Y-18234579D01*
X10172444Y-18234579D02*
X10181967Y-18215531D01*
X10181967Y-18215531D02*
X10191491Y-18206008D01*
X10191491Y-18206008D02*
X10210539Y-18196484D01*
X10362920Y-18396484D02*
X10362920Y-18263150D01*
X10362920Y-18282198D02*
X10372444Y-18272674D01*
X10372444Y-18272674D02*
X10391491Y-18263150D01*
X10391491Y-18263150D02*
X10420063Y-18263150D01*
X10420063Y-18263150D02*
X10439110Y-18272674D01*
X10439110Y-18272674D02*
X10448634Y-18291722D01*
X10448634Y-18291722D02*
X10448634Y-18396484D01*
X10448634Y-18291722D02*
X10458158Y-18272674D01*
X10458158Y-18272674D02*
X10477205Y-18263150D01*
X10477205Y-18263150D02*
X10505777Y-18263150D01*
X10505777Y-18263150D02*
X10524825Y-18272674D01*
X10524825Y-18272674D02*
X10534348Y-18291722D01*
X10534348Y-18291722D02*
X10534348Y-18396484D01*
X10629586Y-18396484D02*
X10629586Y-18263150D01*
X10629586Y-18282198D02*
X10639110Y-18272674D01*
X10639110Y-18272674D02*
X10658158Y-18263150D01*
X10658158Y-18263150D02*
X10686729Y-18263150D01*
X10686729Y-18263150D02*
X10705777Y-18272674D01*
X10705777Y-18272674D02*
X10715301Y-18291722D01*
X10715301Y-18291722D02*
X10715301Y-18396484D01*
X10715301Y-18291722D02*
X10724825Y-18272674D01*
X10724825Y-18272674D02*
X10743872Y-18263150D01*
X10743872Y-18263150D02*
X10772444Y-18263150D01*
X10772444Y-18263150D02*
X10791491Y-18272674D01*
X10791491Y-18272674D02*
X10801015Y-18291722D01*
X10801015Y-18291722D02*
X10801015Y-18396484D01*
X11191491Y-18186960D02*
X11020063Y-18444103D01*
X11448634Y-18196484D02*
X11467682Y-18196484D01*
X11467682Y-18196484D02*
X11486729Y-18206008D01*
X11486729Y-18206008D02*
X11496253Y-18215531D01*
X11496253Y-18215531D02*
X11505777Y-18234579D01*
X11505777Y-18234579D02*
X11515301Y-18272674D01*
X11515301Y-18272674D02*
X11515301Y-18320293D01*
X11515301Y-18320293D02*
X11505777Y-18358389D01*
X11505777Y-18358389D02*
X11496253Y-18377436D01*
X11496253Y-18377436D02*
X11486729Y-18386960D01*
X11486729Y-18386960D02*
X11467682Y-18396484D01*
X11467682Y-18396484D02*
X11448634Y-18396484D01*
X11448634Y-18396484D02*
X11429586Y-18386960D01*
X11429586Y-18386960D02*
X11420063Y-18377436D01*
X11420063Y-18377436D02*
X11410539Y-18358389D01*
X11410539Y-18358389D02*
X11401015Y-18320293D01*
X11401015Y-18320293D02*
X11401015Y-18272674D01*
X11401015Y-18272674D02*
X11410539Y-18234579D01*
X11410539Y-18234579D02*
X11420063Y-18215531D01*
X11420063Y-18215531D02*
X11429586Y-18206008D01*
X11429586Y-18206008D02*
X11448634Y-18196484D01*
X11601015Y-18377436D02*
X11610539Y-18386960D01*
X11610539Y-18386960D02*
X11601015Y-18396484D01*
X11601015Y-18396484D02*
X11591491Y-18386960D01*
X11591491Y-18386960D02*
X11601015Y-18377436D01*
X11601015Y-18377436D02*
X11601015Y-18396484D01*
X11686729Y-18215531D02*
X11696253Y-18206008D01*
X11696253Y-18206008D02*
X11715301Y-18196484D01*
X11715301Y-18196484D02*
X11762920Y-18196484D01*
X11762920Y-18196484D02*
X11781967Y-18206008D01*
X11781967Y-18206008D02*
X11791491Y-18215531D01*
X11791491Y-18215531D02*
X11801015Y-18234579D01*
X11801015Y-18234579D02*
X11801015Y-18253627D01*
X11801015Y-18253627D02*
X11791491Y-18282198D01*
X11791491Y-18282198D02*
X11677206Y-18396484D01*
X11677206Y-18396484D02*
X11801015Y-18396484D01*
X11896253Y-18396484D02*
X11934348Y-18396484D01*
X11934348Y-18396484D02*
X11953396Y-18386960D01*
X11953396Y-18386960D02*
X11962920Y-18377436D01*
X11962920Y-18377436D02*
X11981967Y-18348865D01*
X11981967Y-18348865D02*
X11991491Y-18310770D01*
X11991491Y-18310770D02*
X11991491Y-18234579D01*
X11991491Y-18234579D02*
X11981967Y-18215531D01*
X11981967Y-18215531D02*
X11972444Y-18206008D01*
X11972444Y-18206008D02*
X11953396Y-18196484D01*
X11953396Y-18196484D02*
X11915301Y-18196484D01*
X11915301Y-18196484D02*
X11896253Y-18206008D01*
X11896253Y-18206008D02*
X11886729Y-18215531D01*
X11886729Y-18215531D02*
X11877206Y-18234579D01*
X11877206Y-18234579D02*
X11877206Y-18282198D01*
X11877206Y-18282198D02*
X11886729Y-18301246D01*
X11886729Y-18301246D02*
X11896253Y-18310770D01*
X11896253Y-18310770D02*
X11915301Y-18320293D01*
X11915301Y-18320293D02*
X11953396Y-18320293D01*
X11953396Y-18320293D02*
X11972444Y-18310770D01*
X11972444Y-18310770D02*
X11981967Y-18301246D01*
X11981967Y-18301246D02*
X11991491Y-18282198D01*
X12172444Y-18196484D02*
X12077206Y-18196484D01*
X12077206Y-18196484D02*
X12067682Y-18291722D01*
X12067682Y-18291722D02*
X12077206Y-18282198D01*
X12077206Y-18282198D02*
X12096253Y-18272674D01*
X12096253Y-18272674D02*
X12143872Y-18272674D01*
X12143872Y-18272674D02*
X12162920Y-18282198D01*
X12162920Y-18282198D02*
X12172444Y-18291722D01*
X12172444Y-18291722D02*
X12181967Y-18310770D01*
X12181967Y-18310770D02*
X12181967Y-18358389D01*
X12181967Y-18358389D02*
X12172444Y-18377436D01*
X12172444Y-18377436D02*
X12162920Y-18386960D01*
X12162920Y-18386960D02*
X12143872Y-18396484D01*
X12143872Y-18396484D02*
X12096253Y-18396484D01*
X12096253Y-18396484D02*
X12077206Y-18386960D01*
X12077206Y-18386960D02*
X12067682Y-18377436D01*
X12248634Y-18196484D02*
X12372444Y-18196484D01*
X12372444Y-18196484D02*
X12305777Y-18272674D01*
X12305777Y-18272674D02*
X12334348Y-18272674D01*
X12334348Y-18272674D02*
X12353396Y-18282198D01*
X12353396Y-18282198D02*
X12362920Y-18291722D01*
X12362920Y-18291722D02*
X12372444Y-18310770D01*
X12372444Y-18310770D02*
X12372444Y-18358389D01*
X12372444Y-18358389D02*
X12362920Y-18377436D01*
X12362920Y-18377436D02*
X12353396Y-18386960D01*
X12353396Y-18386960D02*
X12334348Y-18396484D01*
X12334348Y-18396484D02*
X12277206Y-18396484D01*
X12277206Y-18396484D02*
X12258158Y-18386960D01*
X12258158Y-18386960D02*
X12248634Y-18377436D01*
X12448634Y-18196484D02*
X12448634Y-18234579D01*
X12524825Y-18196484D02*
X12524825Y-18234579D01*
X12820063Y-18472674D02*
X12810539Y-18463150D01*
X12810539Y-18463150D02*
X12791491Y-18434579D01*
X12791491Y-18434579D02*
X12781968Y-18415531D01*
X12781968Y-18415531D02*
X12772444Y-18386960D01*
X12772444Y-18386960D02*
X12762920Y-18339341D01*
X12762920Y-18339341D02*
X12762920Y-18301246D01*
X12762920Y-18301246D02*
X12772444Y-18253627D01*
X12772444Y-18253627D02*
X12781968Y-18225055D01*
X12781968Y-18225055D02*
X12791491Y-18206008D01*
X12791491Y-18206008D02*
X12810539Y-18177436D01*
X12810539Y-18177436D02*
X12820063Y-18167912D01*
X12991491Y-18196484D02*
X12896253Y-18196484D01*
X12896253Y-18196484D02*
X12886729Y-18291722D01*
X12886729Y-18291722D02*
X12896253Y-18282198D01*
X12896253Y-18282198D02*
X12915301Y-18272674D01*
X12915301Y-18272674D02*
X12962920Y-18272674D01*
X12962920Y-18272674D02*
X12981968Y-18282198D01*
X12981968Y-18282198D02*
X12991491Y-18291722D01*
X12991491Y-18291722D02*
X13001015Y-18310770D01*
X13001015Y-18310770D02*
X13001015Y-18358389D01*
X13001015Y-18358389D02*
X12991491Y-18377436D01*
X12991491Y-18377436D02*
X12981968Y-18386960D01*
X12981968Y-18386960D02*
X12962920Y-18396484D01*
X12962920Y-18396484D02*
X12915301Y-18396484D01*
X12915301Y-18396484D02*
X12896253Y-18386960D01*
X12896253Y-18386960D02*
X12886729Y-18377436D01*
X13239110Y-18396484D02*
X13239110Y-18196484D01*
X13324825Y-18396484D02*
X13324825Y-18291722D01*
X13324825Y-18291722D02*
X13315301Y-18272674D01*
X13315301Y-18272674D02*
X13296253Y-18263150D01*
X13296253Y-18263150D02*
X13267682Y-18263150D01*
X13267682Y-18263150D02*
X13248634Y-18272674D01*
X13248634Y-18272674D02*
X13239110Y-18282198D01*
X13448634Y-18396484D02*
X13429587Y-18386960D01*
X13429587Y-18386960D02*
X13420063Y-18377436D01*
X13420063Y-18377436D02*
X13410539Y-18358389D01*
X13410539Y-18358389D02*
X13410539Y-18301246D01*
X13410539Y-18301246D02*
X13420063Y-18282198D01*
X13420063Y-18282198D02*
X13429587Y-18272674D01*
X13429587Y-18272674D02*
X13448634Y-18263150D01*
X13448634Y-18263150D02*
X13477206Y-18263150D01*
X13477206Y-18263150D02*
X13496253Y-18272674D01*
X13496253Y-18272674D02*
X13505777Y-18282198D01*
X13505777Y-18282198D02*
X13515301Y-18301246D01*
X13515301Y-18301246D02*
X13515301Y-18358389D01*
X13515301Y-18358389D02*
X13505777Y-18377436D01*
X13505777Y-18377436D02*
X13496253Y-18386960D01*
X13496253Y-18386960D02*
X13477206Y-18396484D01*
X13477206Y-18396484D02*
X13448634Y-18396484D01*
X13629587Y-18396484D02*
X13610539Y-18386960D01*
X13610539Y-18386960D02*
X13601015Y-18367912D01*
X13601015Y-18367912D02*
X13601015Y-18196484D01*
X13781968Y-18386960D02*
X13762920Y-18396484D01*
X13762920Y-18396484D02*
X13724825Y-18396484D01*
X13724825Y-18396484D02*
X13705777Y-18386960D01*
X13705777Y-18386960D02*
X13696253Y-18367912D01*
X13696253Y-18367912D02*
X13696253Y-18291722D01*
X13696253Y-18291722D02*
X13705777Y-18272674D01*
X13705777Y-18272674D02*
X13724825Y-18263150D01*
X13724825Y-18263150D02*
X13762920Y-18263150D01*
X13762920Y-18263150D02*
X13781968Y-18272674D01*
X13781968Y-18272674D02*
X13791491Y-18291722D01*
X13791491Y-18291722D02*
X13791491Y-18310770D01*
X13791491Y-18310770D02*
X13696253Y-18329817D01*
X13867682Y-18386960D02*
X13886730Y-18396484D01*
X13886730Y-18396484D02*
X13924825Y-18396484D01*
X13924825Y-18396484D02*
X13943872Y-18386960D01*
X13943872Y-18386960D02*
X13953396Y-18367912D01*
X13953396Y-18367912D02*
X13953396Y-18358389D01*
X13953396Y-18358389D02*
X13943872Y-18339341D01*
X13943872Y-18339341D02*
X13924825Y-18329817D01*
X13924825Y-18329817D02*
X13896253Y-18329817D01*
X13896253Y-18329817D02*
X13877206Y-18320293D01*
X13877206Y-18320293D02*
X13867682Y-18301246D01*
X13867682Y-18301246D02*
X13867682Y-18291722D01*
X13867682Y-18291722D02*
X13877206Y-18272674D01*
X13877206Y-18272674D02*
X13896253Y-18263150D01*
X13896253Y-18263150D02*
X13924825Y-18263150D01*
X13924825Y-18263150D02*
X13943872Y-18272674D01*
X14020063Y-18472674D02*
X14029587Y-18463150D01*
X14029587Y-18463150D02*
X14048634Y-18434579D01*
X14048634Y-18434579D02*
X14058158Y-18415531D01*
X14058158Y-18415531D02*
X14067682Y-18386960D01*
X14067682Y-18386960D02*
X14077206Y-18339341D01*
X14077206Y-18339341D02*
X14077206Y-18301246D01*
X14077206Y-18301246D02*
X14067682Y-18253627D01*
X14067682Y-18253627D02*
X14058158Y-18225055D01*
X14058158Y-18225055D02*
X14048634Y-18206008D01*
X14048634Y-18206008D02*
X14029587Y-18177436D01*
X14029587Y-18177436D02*
X14020063Y-18167912D01*
X14381968Y-18472674D02*
X14372444Y-18463150D01*
X14372444Y-18463150D02*
X14353396Y-18434579D01*
X14353396Y-18434579D02*
X14343872Y-18415531D01*
X14343872Y-18415531D02*
X14334349Y-18386960D01*
X14334349Y-18386960D02*
X14324825Y-18339341D01*
X14324825Y-18339341D02*
X14324825Y-18301246D01*
X14324825Y-18301246D02*
X14334349Y-18253627D01*
X14334349Y-18253627D02*
X14343872Y-18225055D01*
X14343872Y-18225055D02*
X14353396Y-18206008D01*
X14353396Y-18206008D02*
X14372444Y-18177436D01*
X14372444Y-18177436D02*
X14381968Y-18167912D01*
X14458158Y-18263150D02*
X14458158Y-18396484D01*
X14458158Y-18282198D02*
X14467682Y-18272674D01*
X14467682Y-18272674D02*
X14486730Y-18263150D01*
X14486730Y-18263150D02*
X14515301Y-18263150D01*
X14515301Y-18263150D02*
X14534349Y-18272674D01*
X14534349Y-18272674D02*
X14543872Y-18291722D01*
X14543872Y-18291722D02*
X14543872Y-18396484D01*
X14667682Y-18396484D02*
X14648634Y-18386960D01*
X14648634Y-18386960D02*
X14639111Y-18377436D01*
X14639111Y-18377436D02*
X14629587Y-18358389D01*
X14629587Y-18358389D02*
X14629587Y-18301246D01*
X14629587Y-18301246D02*
X14639111Y-18282198D01*
X14639111Y-18282198D02*
X14648634Y-18272674D01*
X14648634Y-18272674D02*
X14667682Y-18263150D01*
X14667682Y-18263150D02*
X14696253Y-18263150D01*
X14696253Y-18263150D02*
X14715301Y-18272674D01*
X14715301Y-18272674D02*
X14724825Y-18282198D01*
X14724825Y-18282198D02*
X14734349Y-18301246D01*
X14734349Y-18301246D02*
X14734349Y-18358389D01*
X14734349Y-18358389D02*
X14724825Y-18377436D01*
X14724825Y-18377436D02*
X14715301Y-18386960D01*
X14715301Y-18386960D02*
X14696253Y-18396484D01*
X14696253Y-18396484D02*
X14667682Y-18396484D01*
X14791492Y-18263150D02*
X14867682Y-18263150D01*
X14820063Y-18196484D02*
X14820063Y-18367912D01*
X14820063Y-18367912D02*
X14829587Y-18386960D01*
X14829587Y-18386960D02*
X14848634Y-18396484D01*
X14848634Y-18396484D02*
X14867682Y-18396484D01*
X15086730Y-18263150D02*
X15086730Y-18463150D01*
X15086730Y-18272674D02*
X15105777Y-18263150D01*
X15105777Y-18263150D02*
X15143873Y-18263150D01*
X15143873Y-18263150D02*
X15162920Y-18272674D01*
X15162920Y-18272674D02*
X15172444Y-18282198D01*
X15172444Y-18282198D02*
X15181968Y-18301246D01*
X15181968Y-18301246D02*
X15181968Y-18358389D01*
X15181968Y-18358389D02*
X15172444Y-18377436D01*
X15172444Y-18377436D02*
X15162920Y-18386960D01*
X15162920Y-18386960D02*
X15143873Y-18396484D01*
X15143873Y-18396484D02*
X15105777Y-18396484D01*
X15105777Y-18396484D02*
X15086730Y-18386960D01*
X15296253Y-18396484D02*
X15277206Y-18386960D01*
X15277206Y-18386960D02*
X15267682Y-18367912D01*
X15267682Y-18367912D02*
X15267682Y-18196484D01*
X15458158Y-18396484D02*
X15458158Y-18291722D01*
X15458158Y-18291722D02*
X15448634Y-18272674D01*
X15448634Y-18272674D02*
X15429587Y-18263150D01*
X15429587Y-18263150D02*
X15391492Y-18263150D01*
X15391492Y-18263150D02*
X15372444Y-18272674D01*
X15458158Y-18386960D02*
X15439111Y-18396484D01*
X15439111Y-18396484D02*
X15391492Y-18396484D01*
X15391492Y-18396484D02*
X15372444Y-18386960D01*
X15372444Y-18386960D02*
X15362920Y-18367912D01*
X15362920Y-18367912D02*
X15362920Y-18348865D01*
X15362920Y-18348865D02*
X15372444Y-18329817D01*
X15372444Y-18329817D02*
X15391492Y-18320293D01*
X15391492Y-18320293D02*
X15439111Y-18320293D01*
X15439111Y-18320293D02*
X15458158Y-18310770D01*
X15524825Y-18263150D02*
X15601015Y-18263150D01*
X15553396Y-18196484D02*
X15553396Y-18367912D01*
X15553396Y-18367912D02*
X15562920Y-18386960D01*
X15562920Y-18386960D02*
X15581968Y-18396484D01*
X15581968Y-18396484D02*
X15601015Y-18396484D01*
X15743873Y-18386960D02*
X15724825Y-18396484D01*
X15724825Y-18396484D02*
X15686730Y-18396484D01*
X15686730Y-18396484D02*
X15667682Y-18386960D01*
X15667682Y-18386960D02*
X15658158Y-18367912D01*
X15658158Y-18367912D02*
X15658158Y-18291722D01*
X15658158Y-18291722D02*
X15667682Y-18272674D01*
X15667682Y-18272674D02*
X15686730Y-18263150D01*
X15686730Y-18263150D02*
X15724825Y-18263150D01*
X15724825Y-18263150D02*
X15743873Y-18272674D01*
X15743873Y-18272674D02*
X15753396Y-18291722D01*
X15753396Y-18291722D02*
X15753396Y-18310770D01*
X15753396Y-18310770D02*
X15658158Y-18329817D01*
X15924825Y-18396484D02*
X15924825Y-18196484D01*
X15924825Y-18386960D02*
X15905777Y-18396484D01*
X15905777Y-18396484D02*
X15867682Y-18396484D01*
X15867682Y-18396484D02*
X15848634Y-18386960D01*
X15848634Y-18386960D02*
X15839111Y-18377436D01*
X15839111Y-18377436D02*
X15829587Y-18358389D01*
X15829587Y-18358389D02*
X15829587Y-18301246D01*
X15829587Y-18301246D02*
X15839111Y-18282198D01*
X15839111Y-18282198D02*
X15848634Y-18272674D01*
X15848634Y-18272674D02*
X15867682Y-18263150D01*
X15867682Y-18263150D02*
X15905777Y-18263150D01*
X15905777Y-18263150D02*
X15924825Y-18272674D01*
X16001015Y-18472674D02*
X16010539Y-18463150D01*
X16010539Y-18463150D02*
X16029587Y-18434579D01*
X16029587Y-18434579D02*
X16039111Y-18415531D01*
X16039111Y-18415531D02*
X16048634Y-18386960D01*
X16048634Y-18386960D02*
X16058158Y-18339341D01*
X16058158Y-18339341D02*
X16058158Y-18301246D01*
X16058158Y-18301246D02*
X16048634Y-18253627D01*
X16048634Y-18253627D02*
X16039111Y-18225055D01*
X16039111Y-18225055D02*
X16029587Y-18206008D01*
X16029587Y-18206008D02*
X16010539Y-18177436D01*
X16010539Y-18177436D02*
X16001015Y-18167912D01*
X9145000Y-18725000D02*
X9245000Y-18625000D01*
X9145000Y-18525000D01*
X9045000Y-18625000D01*
X9145000Y-18725000D01*
X9515301Y-18716484D02*
X9553396Y-18716484D01*
X9553396Y-18716484D02*
X9572444Y-18706960D01*
X9572444Y-18706960D02*
X9581967Y-18697436D01*
X9581967Y-18697436D02*
X9601015Y-18668865D01*
X9601015Y-18668865D02*
X9610539Y-18630770D01*
X9610539Y-18630770D02*
X9610539Y-18554579D01*
X9610539Y-18554579D02*
X9601015Y-18535531D01*
X9601015Y-18535531D02*
X9591491Y-18526008D01*
X9591491Y-18526008D02*
X9572444Y-18516484D01*
X9572444Y-18516484D02*
X9534348Y-18516484D01*
X9534348Y-18516484D02*
X9515301Y-18526008D01*
X9515301Y-18526008D02*
X9505777Y-18535531D01*
X9505777Y-18535531D02*
X9496253Y-18554579D01*
X9496253Y-18554579D02*
X9496253Y-18602198D01*
X9496253Y-18602198D02*
X9505777Y-18621246D01*
X9505777Y-18621246D02*
X9515301Y-18630770D01*
X9515301Y-18630770D02*
X9534348Y-18640293D01*
X9534348Y-18640293D02*
X9572444Y-18640293D01*
X9572444Y-18640293D02*
X9591491Y-18630770D01*
X9591491Y-18630770D02*
X9601015Y-18621246D01*
X9601015Y-18621246D02*
X9610539Y-18602198D01*
X9696253Y-18697436D02*
X9705777Y-18706960D01*
X9705777Y-18706960D02*
X9696253Y-18716484D01*
X9696253Y-18716484D02*
X9686729Y-18706960D01*
X9686729Y-18706960D02*
X9696253Y-18697436D01*
X9696253Y-18697436D02*
X9696253Y-18716484D01*
X9772444Y-18516484D02*
X9896253Y-18516484D01*
X9896253Y-18516484D02*
X9829586Y-18592674D01*
X9829586Y-18592674D02*
X9858158Y-18592674D01*
X9858158Y-18592674D02*
X9877205Y-18602198D01*
X9877205Y-18602198D02*
X9886729Y-18611722D01*
X9886729Y-18611722D02*
X9896253Y-18630770D01*
X9896253Y-18630770D02*
X9896253Y-18678389D01*
X9896253Y-18678389D02*
X9886729Y-18697436D01*
X9886729Y-18697436D02*
X9877205Y-18706960D01*
X9877205Y-18706960D02*
X9858158Y-18716484D01*
X9858158Y-18716484D02*
X9801015Y-18716484D01*
X9801015Y-18716484D02*
X9781967Y-18706960D01*
X9781967Y-18706960D02*
X9772444Y-18697436D01*
X10020063Y-18516484D02*
X10039110Y-18516484D01*
X10039110Y-18516484D02*
X10058158Y-18526008D01*
X10058158Y-18526008D02*
X10067682Y-18535531D01*
X10067682Y-18535531D02*
X10077205Y-18554579D01*
X10077205Y-18554579D02*
X10086729Y-18592674D01*
X10086729Y-18592674D02*
X10086729Y-18640293D01*
X10086729Y-18640293D02*
X10077205Y-18678389D01*
X10077205Y-18678389D02*
X10067682Y-18697436D01*
X10067682Y-18697436D02*
X10058158Y-18706960D01*
X10058158Y-18706960D02*
X10039110Y-18716484D01*
X10039110Y-18716484D02*
X10020063Y-18716484D01*
X10020063Y-18716484D02*
X10001015Y-18706960D01*
X10001015Y-18706960D02*
X9991491Y-18697436D01*
X9991491Y-18697436D02*
X9981967Y-18678389D01*
X9981967Y-18678389D02*
X9972444Y-18640293D01*
X9972444Y-18640293D02*
X9972444Y-18592674D01*
X9972444Y-18592674D02*
X9981967Y-18554579D01*
X9981967Y-18554579D02*
X9991491Y-18535531D01*
X9991491Y-18535531D02*
X10001015Y-18526008D01*
X10001015Y-18526008D02*
X10020063Y-18516484D01*
X10210539Y-18516484D02*
X10229586Y-18516484D01*
X10229586Y-18516484D02*
X10248634Y-18526008D01*
X10248634Y-18526008D02*
X10258158Y-18535531D01*
X10258158Y-18535531D02*
X10267682Y-18554579D01*
X10267682Y-18554579D02*
X10277205Y-18592674D01*
X10277205Y-18592674D02*
X10277205Y-18640293D01*
X10277205Y-18640293D02*
X10267682Y-18678389D01*
X10267682Y-18678389D02*
X10258158Y-18697436D01*
X10258158Y-18697436D02*
X10248634Y-18706960D01*
X10248634Y-18706960D02*
X10229586Y-18716484D01*
X10229586Y-18716484D02*
X10210539Y-18716484D01*
X10210539Y-18716484D02*
X10191491Y-18706960D01*
X10191491Y-18706960D02*
X10181967Y-18697436D01*
X10181967Y-18697436D02*
X10172444Y-18678389D01*
X10172444Y-18678389D02*
X10162920Y-18640293D01*
X10162920Y-18640293D02*
X10162920Y-18592674D01*
X10162920Y-18592674D02*
X10172444Y-18554579D01*
X10172444Y-18554579D02*
X10181967Y-18535531D01*
X10181967Y-18535531D02*
X10191491Y-18526008D01*
X10191491Y-18526008D02*
X10210539Y-18516484D01*
X10362920Y-18716484D02*
X10362920Y-18583150D01*
X10362920Y-18602198D02*
X10372444Y-18592674D01*
X10372444Y-18592674D02*
X10391491Y-18583150D01*
X10391491Y-18583150D02*
X10420063Y-18583150D01*
X10420063Y-18583150D02*
X10439110Y-18592674D01*
X10439110Y-18592674D02*
X10448634Y-18611722D01*
X10448634Y-18611722D02*
X10448634Y-18716484D01*
X10448634Y-18611722D02*
X10458158Y-18592674D01*
X10458158Y-18592674D02*
X10477205Y-18583150D01*
X10477205Y-18583150D02*
X10505777Y-18583150D01*
X10505777Y-18583150D02*
X10524825Y-18592674D01*
X10524825Y-18592674D02*
X10534348Y-18611722D01*
X10534348Y-18611722D02*
X10534348Y-18716484D01*
X10629586Y-18716484D02*
X10629586Y-18583150D01*
X10629586Y-18602198D02*
X10639110Y-18592674D01*
X10639110Y-18592674D02*
X10658158Y-18583150D01*
X10658158Y-18583150D02*
X10686729Y-18583150D01*
X10686729Y-18583150D02*
X10705777Y-18592674D01*
X10705777Y-18592674D02*
X10715301Y-18611722D01*
X10715301Y-18611722D02*
X10715301Y-18716484D01*
X10715301Y-18611722D02*
X10724825Y-18592674D01*
X10724825Y-18592674D02*
X10743872Y-18583150D01*
X10743872Y-18583150D02*
X10772444Y-18583150D01*
X10772444Y-18583150D02*
X10791491Y-18592674D01*
X10791491Y-18592674D02*
X10801015Y-18611722D01*
X10801015Y-18611722D02*
X10801015Y-18716484D01*
X11191491Y-18506960D02*
X11020063Y-18764103D01*
X11448634Y-18516484D02*
X11467682Y-18516484D01*
X11467682Y-18516484D02*
X11486729Y-18526008D01*
X11486729Y-18526008D02*
X11496253Y-18535531D01*
X11496253Y-18535531D02*
X11505777Y-18554579D01*
X11505777Y-18554579D02*
X11515301Y-18592674D01*
X11515301Y-18592674D02*
X11515301Y-18640293D01*
X11515301Y-18640293D02*
X11505777Y-18678389D01*
X11505777Y-18678389D02*
X11496253Y-18697436D01*
X11496253Y-18697436D02*
X11486729Y-18706960D01*
X11486729Y-18706960D02*
X11467682Y-18716484D01*
X11467682Y-18716484D02*
X11448634Y-18716484D01*
X11448634Y-18716484D02*
X11429586Y-18706960D01*
X11429586Y-18706960D02*
X11420063Y-18697436D01*
X11420063Y-18697436D02*
X11410539Y-18678389D01*
X11410539Y-18678389D02*
X11401015Y-18640293D01*
X11401015Y-18640293D02*
X11401015Y-18592674D01*
X11401015Y-18592674D02*
X11410539Y-18554579D01*
X11410539Y-18554579D02*
X11420063Y-18535531D01*
X11420063Y-18535531D02*
X11429586Y-18526008D01*
X11429586Y-18526008D02*
X11448634Y-18516484D01*
X11601015Y-18697436D02*
X11610539Y-18706960D01*
X11610539Y-18706960D02*
X11601015Y-18716484D01*
X11601015Y-18716484D02*
X11591491Y-18706960D01*
X11591491Y-18706960D02*
X11601015Y-18697436D01*
X11601015Y-18697436D02*
X11601015Y-18716484D01*
X11677206Y-18516484D02*
X11801015Y-18516484D01*
X11801015Y-18516484D02*
X11734348Y-18592674D01*
X11734348Y-18592674D02*
X11762920Y-18592674D01*
X11762920Y-18592674D02*
X11781967Y-18602198D01*
X11781967Y-18602198D02*
X11791491Y-18611722D01*
X11791491Y-18611722D02*
X11801015Y-18630770D01*
X11801015Y-18630770D02*
X11801015Y-18678389D01*
X11801015Y-18678389D02*
X11791491Y-18697436D01*
X11791491Y-18697436D02*
X11781967Y-18706960D01*
X11781967Y-18706960D02*
X11762920Y-18716484D01*
X11762920Y-18716484D02*
X11705777Y-18716484D01*
X11705777Y-18716484D02*
X11686729Y-18706960D01*
X11686729Y-18706960D02*
X11677206Y-18697436D01*
X11972444Y-18516484D02*
X11934348Y-18516484D01*
X11934348Y-18516484D02*
X11915301Y-18526008D01*
X11915301Y-18526008D02*
X11905777Y-18535531D01*
X11905777Y-18535531D02*
X11886729Y-18564103D01*
X11886729Y-18564103D02*
X11877206Y-18602198D01*
X11877206Y-18602198D02*
X11877206Y-18678389D01*
X11877206Y-18678389D02*
X11886729Y-18697436D01*
X11886729Y-18697436D02*
X11896253Y-18706960D01*
X11896253Y-18706960D02*
X11915301Y-18716484D01*
X11915301Y-18716484D02*
X11953396Y-18716484D01*
X11953396Y-18716484D02*
X11972444Y-18706960D01*
X11972444Y-18706960D02*
X11981967Y-18697436D01*
X11981967Y-18697436D02*
X11991491Y-18678389D01*
X11991491Y-18678389D02*
X11991491Y-18630770D01*
X11991491Y-18630770D02*
X11981967Y-18611722D01*
X11981967Y-18611722D02*
X11972444Y-18602198D01*
X11972444Y-18602198D02*
X11953396Y-18592674D01*
X11953396Y-18592674D02*
X11915301Y-18592674D01*
X11915301Y-18592674D02*
X11896253Y-18602198D01*
X11896253Y-18602198D02*
X11886729Y-18611722D01*
X11886729Y-18611722D02*
X11877206Y-18630770D01*
X12162920Y-18516484D02*
X12124825Y-18516484D01*
X12124825Y-18516484D02*
X12105777Y-18526008D01*
X12105777Y-18526008D02*
X12096253Y-18535531D01*
X12096253Y-18535531D02*
X12077206Y-18564103D01*
X12077206Y-18564103D02*
X12067682Y-18602198D01*
X12067682Y-18602198D02*
X12067682Y-18678389D01*
X12067682Y-18678389D02*
X12077206Y-18697436D01*
X12077206Y-18697436D02*
X12086729Y-18706960D01*
X12086729Y-18706960D02*
X12105777Y-18716484D01*
X12105777Y-18716484D02*
X12143872Y-18716484D01*
X12143872Y-18716484D02*
X12162920Y-18706960D01*
X12162920Y-18706960D02*
X12172444Y-18697436D01*
X12172444Y-18697436D02*
X12181967Y-18678389D01*
X12181967Y-18678389D02*
X12181967Y-18630770D01*
X12181967Y-18630770D02*
X12172444Y-18611722D01*
X12172444Y-18611722D02*
X12162920Y-18602198D01*
X12162920Y-18602198D02*
X12143872Y-18592674D01*
X12143872Y-18592674D02*
X12105777Y-18592674D01*
X12105777Y-18592674D02*
X12086729Y-18602198D01*
X12086729Y-18602198D02*
X12077206Y-18611722D01*
X12077206Y-18611722D02*
X12067682Y-18630770D01*
X12372444Y-18716484D02*
X12258158Y-18716484D01*
X12315301Y-18716484D02*
X12315301Y-18516484D01*
X12315301Y-18516484D02*
X12296253Y-18545055D01*
X12296253Y-18545055D02*
X12277206Y-18564103D01*
X12277206Y-18564103D02*
X12258158Y-18573627D01*
X12448634Y-18516484D02*
X12448634Y-18554579D01*
X12524825Y-18516484D02*
X12524825Y-18554579D01*
X12820063Y-18792674D02*
X12810539Y-18783150D01*
X12810539Y-18783150D02*
X12791491Y-18754579D01*
X12791491Y-18754579D02*
X12781968Y-18735531D01*
X12781968Y-18735531D02*
X12772444Y-18706960D01*
X12772444Y-18706960D02*
X12762920Y-18659341D01*
X12762920Y-18659341D02*
X12762920Y-18621246D01*
X12762920Y-18621246D02*
X12772444Y-18573627D01*
X12772444Y-18573627D02*
X12781968Y-18545055D01*
X12781968Y-18545055D02*
X12791491Y-18526008D01*
X12791491Y-18526008D02*
X12810539Y-18497436D01*
X12810539Y-18497436D02*
X12820063Y-18487912D01*
X13001015Y-18716484D02*
X12886729Y-18716484D01*
X12943872Y-18716484D02*
X12943872Y-18516484D01*
X12943872Y-18516484D02*
X12924825Y-18545055D01*
X12924825Y-18545055D02*
X12905777Y-18564103D01*
X12905777Y-18564103D02*
X12886729Y-18573627D01*
X13239110Y-18716484D02*
X13239110Y-18516484D01*
X13324825Y-18716484D02*
X13324825Y-18611722D01*
X13324825Y-18611722D02*
X13315301Y-18592674D01*
X13315301Y-18592674D02*
X13296253Y-18583150D01*
X13296253Y-18583150D02*
X13267682Y-18583150D01*
X13267682Y-18583150D02*
X13248634Y-18592674D01*
X13248634Y-18592674D02*
X13239110Y-18602198D01*
X13448634Y-18716484D02*
X13429587Y-18706960D01*
X13429587Y-18706960D02*
X13420063Y-18697436D01*
X13420063Y-18697436D02*
X13410539Y-18678389D01*
X13410539Y-18678389D02*
X13410539Y-18621246D01*
X13410539Y-18621246D02*
X13420063Y-18602198D01*
X13420063Y-18602198D02*
X13429587Y-18592674D01*
X13429587Y-18592674D02*
X13448634Y-18583150D01*
X13448634Y-18583150D02*
X13477206Y-18583150D01*
X13477206Y-18583150D02*
X13496253Y-18592674D01*
X13496253Y-18592674D02*
X13505777Y-18602198D01*
X13505777Y-18602198D02*
X13515301Y-18621246D01*
X13515301Y-18621246D02*
X13515301Y-18678389D01*
X13515301Y-18678389D02*
X13505777Y-18697436D01*
X13505777Y-18697436D02*
X13496253Y-18706960D01*
X13496253Y-18706960D02*
X13477206Y-18716484D01*
X13477206Y-18716484D02*
X13448634Y-18716484D01*
X13629587Y-18716484D02*
X13610539Y-18706960D01*
X13610539Y-18706960D02*
X13601015Y-18687912D01*
X13601015Y-18687912D02*
X13601015Y-18516484D01*
X13781968Y-18706960D02*
X13762920Y-18716484D01*
X13762920Y-18716484D02*
X13724825Y-18716484D01*
X13724825Y-18716484D02*
X13705777Y-18706960D01*
X13705777Y-18706960D02*
X13696253Y-18687912D01*
X13696253Y-18687912D02*
X13696253Y-18611722D01*
X13696253Y-18611722D02*
X13705777Y-18592674D01*
X13705777Y-18592674D02*
X13724825Y-18583150D01*
X13724825Y-18583150D02*
X13762920Y-18583150D01*
X13762920Y-18583150D02*
X13781968Y-18592674D01*
X13781968Y-18592674D02*
X13791491Y-18611722D01*
X13791491Y-18611722D02*
X13791491Y-18630770D01*
X13791491Y-18630770D02*
X13696253Y-18649817D01*
X13858158Y-18792674D02*
X13867682Y-18783150D01*
X13867682Y-18783150D02*
X13886730Y-18754579D01*
X13886730Y-18754579D02*
X13896253Y-18735531D01*
X13896253Y-18735531D02*
X13905777Y-18706960D01*
X13905777Y-18706960D02*
X13915301Y-18659341D01*
X13915301Y-18659341D02*
X13915301Y-18621246D01*
X13915301Y-18621246D02*
X13905777Y-18573627D01*
X13905777Y-18573627D02*
X13896253Y-18545055D01*
X13896253Y-18545055D02*
X13886730Y-18526008D01*
X13886730Y-18526008D02*
X13867682Y-18497436D01*
X13867682Y-18497436D02*
X13858158Y-18487912D01*
X14220063Y-18792674D02*
X14210539Y-18783150D01*
X14210539Y-18783150D02*
X14191491Y-18754579D01*
X14191491Y-18754579D02*
X14181968Y-18735531D01*
X14181968Y-18735531D02*
X14172444Y-18706960D01*
X14172444Y-18706960D02*
X14162920Y-18659341D01*
X14162920Y-18659341D02*
X14162920Y-18621246D01*
X14162920Y-18621246D02*
X14172444Y-18573627D01*
X14172444Y-18573627D02*
X14181968Y-18545055D01*
X14181968Y-18545055D02*
X14191491Y-18526008D01*
X14191491Y-18526008D02*
X14210539Y-18497436D01*
X14210539Y-18497436D02*
X14220063Y-18487912D01*
X14296253Y-18583150D02*
X14296253Y-18716484D01*
X14296253Y-18602198D02*
X14305777Y-18592674D01*
X14305777Y-18592674D02*
X14324825Y-18583150D01*
X14324825Y-18583150D02*
X14353396Y-18583150D01*
X14353396Y-18583150D02*
X14372444Y-18592674D01*
X14372444Y-18592674D02*
X14381968Y-18611722D01*
X14381968Y-18611722D02*
X14381968Y-18716484D01*
X14505777Y-18716484D02*
X14486730Y-18706960D01*
X14486730Y-18706960D02*
X14477206Y-18697436D01*
X14477206Y-18697436D02*
X14467682Y-18678389D01*
X14467682Y-18678389D02*
X14467682Y-18621246D01*
X14467682Y-18621246D02*
X14477206Y-18602198D01*
X14477206Y-18602198D02*
X14486730Y-18592674D01*
X14486730Y-18592674D02*
X14505777Y-18583150D01*
X14505777Y-18583150D02*
X14534349Y-18583150D01*
X14534349Y-18583150D02*
X14553396Y-18592674D01*
X14553396Y-18592674D02*
X14562920Y-18602198D01*
X14562920Y-18602198D02*
X14572444Y-18621246D01*
X14572444Y-18621246D02*
X14572444Y-18678389D01*
X14572444Y-18678389D02*
X14562920Y-18697436D01*
X14562920Y-18697436D02*
X14553396Y-18706960D01*
X14553396Y-18706960D02*
X14534349Y-18716484D01*
X14534349Y-18716484D02*
X14505777Y-18716484D01*
X14629587Y-18583150D02*
X14705777Y-18583150D01*
X14658158Y-18516484D02*
X14658158Y-18687912D01*
X14658158Y-18687912D02*
X14667682Y-18706960D01*
X14667682Y-18706960D02*
X14686730Y-18716484D01*
X14686730Y-18716484D02*
X14705777Y-18716484D01*
X14924825Y-18583150D02*
X14924825Y-18783150D01*
X14924825Y-18592674D02*
X14943872Y-18583150D01*
X14943872Y-18583150D02*
X14981968Y-18583150D01*
X14981968Y-18583150D02*
X15001015Y-18592674D01*
X15001015Y-18592674D02*
X15010539Y-18602198D01*
X15010539Y-18602198D02*
X15020063Y-18621246D01*
X15020063Y-18621246D02*
X15020063Y-18678389D01*
X15020063Y-18678389D02*
X15010539Y-18697436D01*
X15010539Y-18697436D02*
X15001015Y-18706960D01*
X15001015Y-18706960D02*
X14981968Y-18716484D01*
X14981968Y-18716484D02*
X14943872Y-18716484D01*
X14943872Y-18716484D02*
X14924825Y-18706960D01*
X15134349Y-18716484D02*
X15115301Y-18706960D01*
X15115301Y-18706960D02*
X15105777Y-18687912D01*
X15105777Y-18687912D02*
X15105777Y-18516484D01*
X15296253Y-18716484D02*
X15296253Y-18611722D01*
X15296253Y-18611722D02*
X15286730Y-18592674D01*
X15286730Y-18592674D02*
X15267682Y-18583150D01*
X15267682Y-18583150D02*
X15229587Y-18583150D01*
X15229587Y-18583150D02*
X15210539Y-18592674D01*
X15296253Y-18706960D02*
X15277206Y-18716484D01*
X15277206Y-18716484D02*
X15229587Y-18716484D01*
X15229587Y-18716484D02*
X15210539Y-18706960D01*
X15210539Y-18706960D02*
X15201015Y-18687912D01*
X15201015Y-18687912D02*
X15201015Y-18668865D01*
X15201015Y-18668865D02*
X15210539Y-18649817D01*
X15210539Y-18649817D02*
X15229587Y-18640293D01*
X15229587Y-18640293D02*
X15277206Y-18640293D01*
X15277206Y-18640293D02*
X15296253Y-18630770D01*
X15362920Y-18583150D02*
X15439111Y-18583150D01*
X15391492Y-18516484D02*
X15391492Y-18687912D01*
X15391492Y-18687912D02*
X15401015Y-18706960D01*
X15401015Y-18706960D02*
X15420063Y-18716484D01*
X15420063Y-18716484D02*
X15439111Y-18716484D01*
X15581968Y-18706960D02*
X15562920Y-18716484D01*
X15562920Y-18716484D02*
X15524825Y-18716484D01*
X15524825Y-18716484D02*
X15505777Y-18706960D01*
X15505777Y-18706960D02*
X15496253Y-18687912D01*
X15496253Y-18687912D02*
X15496253Y-18611722D01*
X15496253Y-18611722D02*
X15505777Y-18592674D01*
X15505777Y-18592674D02*
X15524825Y-18583150D01*
X15524825Y-18583150D02*
X15562920Y-18583150D01*
X15562920Y-18583150D02*
X15581968Y-18592674D01*
X15581968Y-18592674D02*
X15591492Y-18611722D01*
X15591492Y-18611722D02*
X15591492Y-18630770D01*
X15591492Y-18630770D02*
X15496253Y-18649817D01*
X15762920Y-18716484D02*
X15762920Y-18516484D01*
X15762920Y-18706960D02*
X15743873Y-18716484D01*
X15743873Y-18716484D02*
X15705777Y-18716484D01*
X15705777Y-18716484D02*
X15686730Y-18706960D01*
X15686730Y-18706960D02*
X15677206Y-18697436D01*
X15677206Y-18697436D02*
X15667682Y-18678389D01*
X15667682Y-18678389D02*
X15667682Y-18621246D01*
X15667682Y-18621246D02*
X15677206Y-18602198D01*
X15677206Y-18602198D02*
X15686730Y-18592674D01*
X15686730Y-18592674D02*
X15705777Y-18583150D01*
X15705777Y-18583150D02*
X15743873Y-18583150D01*
X15743873Y-18583150D02*
X15762920Y-18592674D01*
X15839111Y-18792674D02*
X15848634Y-18783150D01*
X15848634Y-18783150D02*
X15867682Y-18754579D01*
X15867682Y-18754579D02*
X15877206Y-18735531D01*
X15877206Y-18735531D02*
X15886730Y-18706960D01*
X15886730Y-18706960D02*
X15896253Y-18659341D01*
X15896253Y-18659341D02*
X15896253Y-18621246D01*
X15896253Y-18621246D02*
X15886730Y-18573627D01*
X15886730Y-18573627D02*
X15877206Y-18545055D01*
X15877206Y-18545055D02*
X15867682Y-18526008D01*
X15867682Y-18526008D02*
X15848634Y-18497436D01*
X15848634Y-18497436D02*
X15839111Y-18487912D01*
M02*
